<?xml version="1.0" encoding="iso-8859-1"?>
<svg version="1.1" id="图层_1" xmlns="http://www.w3.org/2000/svg" xmlns:xlink="http://www.w3.org/1999/xlink" x="0px" y="0px"
	 viewBox="0 0 298.3 59.9" style="enable-background:new 0 0 298.3 59.9;" xml:space="preserve">
<style type="text/css">
	.st0{display:none;fill:#6B3939;}
	.st1{display:none;}
	.st2{display:inline;}
	.st3{fill:#FFFFFF;}
	.st4{display:inline;fill:#FFFFFF;}
	.st5{display:inline;fill:#FF6B00;}
	.st6{fill:#fff;}
	.st7{fill:#FF6B00;}
</style>
<rect x="-5" y="-2" class="st0" width="318" height="64"/>
<g class="st1">
	<g id="XMLID_44_" class="st2">
		<g>
			<path class="st3" d="M98.5,19.1h-5.6l-9.4,19.1h5l1.6-3.6h11.2l1.6,3.4h5L98.5,19.1z M91.5,31.3l4-8.6H96l4,8.6H91.5z"/>
			<g>
				<path class="st3" d="M128.8,27.5c-0.4,0.7-0.9,1.4-1.5,1.9c-0.7,0.5-1.5,1-2.4,1.3c-0.9,0.3-2,0.5-3.2,0.5h-5.7v7.4H111V18.9
					h10.7c1.1,0,2.1,0.2,3.1,0.5c0.9,0.3,1.8,0.7,2.4,1.3c0.7,0.6,1.2,1.2,1.6,1.9c0.4,0.7,0.6,1.6,0.6,2.4
					C129.3,25.9,129.1,26.7,128.8,27.5 M124,23.9c-0.2-0.3-0.4-0.6-0.7-0.9c-0.3-0.3-0.6-0.5-1-0.6c-0.4-0.1-0.7-0.2-1.1-0.2h-5.3
					v5.7h5.3c0.4,0,0.7-0.1,1.1-0.2c0.4-0.1,0.7-0.3,1-0.6c0.3-0.2,0.5-0.5,0.7-0.9c0.2-0.4,0.3-0.7,0.3-1.2
					C124.3,24.7,124.2,24.3,124,23.9"/>
				<path class="st3" d="M150.4,18.9h-16.7v19.5h16.8v-3h-12.5V21.9h12.2C150.3,21.9,150.3,18.8,150.4,18.9"/>
				<rect x="140.7" y="26.9" class="st3" width="9.3" height="3"/>
				<path class="st3" d="M153.1,19h5.3l3.7,4.1l-2.6,2.8C159.4,25.9,153.1,19,153.1,19"/>
				<polygon class="st3" points="171,19 175.8,19 168,28.6 176.6,38.6 171.3,38.2 164.6,30.8 157.9,38.3 153,38.3 				"/>
			</g>
		</g>
	</g>
</g>
<g id="XMLID_233_" class="st1">
	<path id="XMLID_244_" class="st4" d="M200.4,38.4l-10.1-13.8v13.8h-3.4V19.1h3.5l9.9,13.4V19.1h3.4v19.3H200.4z"/>
	<path id="XMLID_242_" class="st4" d="M209.1,38.4V19.1h13.3v3h-9.9v5h9.7v3h-9.7v5.4h9.9v3H209.1z"/>
	<path id="XMLID_240_" class="st4" d="M252.5,30.6V18.9h3.5v11.6c0,3.1,1.7,5.1,4.9,5.1c3.2,0,4.9-2,4.9-5.1V18.9h3.4v11.7
		c0,4.8-2.8,8-8.4,8C255.3,38.6,252.5,35.4,252.5,30.6z"/>
	<path id="XMLID_238_" class="st4" d="M273.7,35.7l1.9-2.6c1.3,1.4,3.4,2.7,6.1,2.7c2.8,0,3.9-1.4,3.9-2.7c0-4.1-11.2-1.5-11.2-8.6
		c0-3.2,2.8-5.7,7-5.7c3,0,5.5,1,7.2,2.7l-1.9,2.5c-1.5-1.5-3.6-2.2-5.6-2.2c-2,0-3.2,1-3.2,2.4c0,3.6,11.2,1.4,11.2,8.6
		c0,3.2-2.3,6-7.5,6C278,38.8,275.5,37.5,273.7,35.7z"/>
	<g id="XMLID_234_" class="st2">
		<polygon id="XMLID_237_" class="st3" points="235.9,24.2 231.3,19.1 226.2,19.1 233.2,26.6 		"/>
		<polygon id="XMLID_236_" class="st3" points="241.9,30 239.2,32.5 244.7,38.4 249.8,38.4 		"/>
		<polygon id="XMLID_235_" class="st3" points="243.8,19.1 225.2,38.4 230.2,38.4 249,19.1 		"/>
	</g>
</g>
<g class="st1">
	<polygon class="st4" points="36.7,13.7 19.5,36 19.5,43 36.7,21.5 54,43 54,36 	"/>
	<path class="st5" d="M36.4,29.6c-2.4,0-4.3,1.9-4.3,4.3c0,2.4,1.9,4.3,4.3,4.3c2.4,0,4.3-1.9,4.3-4.3
		C40.7,31.5,38.7,29.6,36.4,29.6"/>
	<path class="st4" d="M36.5,55c-13.6,0-24.7-11.1-24.7-24.7S22.9,5.6,36.5,5.6c13.6,0,24.7,11.1,24.7,24.7S50.1,55,36.5,55
		 M36.5,6.6C23.5,6.6,13,17.2,13,30.3C13,43.4,23.5,54,36.5,54C49.5,54,60,43.4,60,30.3C60,17.2,49.5,6.6,36.5,6.6"/>
</g>
<g>
	<g id="XMLID_50_">
		<g>
			<path class="st6" d="M99,19.2h-5.5l-9.3,18.9h5l1.6-3.5h11.1l1.6,3.4h4.9L99,19.2z M92.2,31.3l3.9-8.5h0.5l4,8.5H92.2z"/>
			<g>
				<path class="st6" d="M128.9,27.5c-0.3,0.7-0.8,1.4-1.5,1.9c-0.7,0.5-1.5,1-2.4,1.3c-0.9,0.3-2,0.5-3.1,0.5h-5.7v7.3h-4.9V19.1
					h10.5c1.1,0,2.1,0.2,3,0.5c0.9,0.3,1.7,0.7,2.4,1.3c0.7,0.5,1.2,1.2,1.6,1.9c0.4,0.7,0.6,1.5,0.6,2.4
					C129.4,26,129.3,26.8,128.9,27.5 M124.2,24c-0.2-0.3-0.4-0.6-0.7-0.9c-0.3-0.3-0.6-0.4-1-0.6c-0.4-0.1-0.7-0.2-1.1-0.2h-5.2V28
					h5.2c0.4,0,0.7-0.1,1.1-0.2c0.4-0.1,0.7-0.3,1-0.6c0.3-0.2,0.5-0.5,0.7-0.9c0.2-0.3,0.3-0.7,0.3-1.1
					C124.5,24.7,124.4,24.4,124.2,24"/>
				<path class="st6" d="M150.2,19.1h-16.5v19.2h16.6v-3h-12.3V22.1h12C150.1,22.1,150.1,19,150.2,19.1"/>
				<rect x="140.7" y="27" class="st6" width="9.2" height="3"/>
				<path class="st6" d="M152.9,19.2h5.2l3.6,4.1l-2.6,2.7C159.1,25.9,152.9,19.1,152.9,19.2"/>
				<polygon class="st6" points="170.6,19.2 175.3,19.2 167.6,28.6 176,38.5 170.9,38.1 164.3,30.8 157.6,38.2 152.8,38.2 				"/>
			</g>
		</g>
	</g>
</g>
<g id="XMLID_36_">
	<path id="XMLID_48_" class="st6" d="M200.5,38.3l-9.9-13.6v13.6h-3.3V19.3h3.4l9.7,13.2V19.3h3.3v19.1H200.5z"/>
	<path id="XMLID_46_" class="st6" d="M209.1,38.3V19.3h13.1v2.9h-9.7v4.9h9.5v2.9h-9.5v5.3h9.7v2.9H209.1z"/>
	<path id="XMLID_43_" class="st6" d="M252,30.6V19.1h3.4v11.4c0,3,1.7,5,4.9,5c3.2,0,4.9-2,4.9-5V19.1h3.4v11.5
		c0,4.7-2.7,7.9-8.3,7.9C254.7,38.5,252,35.3,252,30.6z"/>
	<path id="XMLID_41_" class="st6" d="M272.8,35.6l1.9-2.6c1.3,1.4,3.4,2.7,6,2.7c2.7,0,3.8-1.3,3.8-2.6c0-4-11.1-1.5-11.1-8.5
		c0-3.2,2.7-5.6,6.9-5.6c2.9,0,5.4,1,7.1,2.7l-1.9,2.5c-1.5-1.5-3.5-2.2-5.5-2.2c-1.9,0-3.2,1-3.2,2.4c0,3.6,11.1,1.4,11.1,8.5
		c0,3.2-2.3,5.9-7.4,5.9C277.1,38.7,274.6,37.4,272.8,35.6z"/>
	<g id="XMLID_37_">
		<polygon id="XMLID_40_" class="st6" points="235.6,24.3 231,19.3 226,19.3 232.9,26.7 		"/>
		<polygon id="XMLID_39_" class="st6" points="241.5,30 238.8,32.4 244.3,38.3 249.3,38.3 		"/>
		<polygon id="XMLID_38_" class="st6" points="243.4,19.3 225,38.3 229.9,38.3 248.4,19.3 		"/>
	</g>
</g>
<g>
	<polygon class="st6" points="36.7,13.7 19.5,36 19.5,43 36.7,21.5 54,43 54,36 	"/>
	<path class="st7" d="M36.4,29.6c-2.4,0-4.3,1.9-4.3,4.3c0,2.4,1.9,4.3,4.3,4.3c2.4,0,4.3-1.9,4.3-4.3
		C40.7,31.5,38.7,29.6,36.4,29.6"/>
	<path class="st6" d="M36.5,55c-13.6,0-24.7-11.1-24.7-24.7S22.9,5.6,36.5,5.6c13.6,0,24.7,11.1,24.7,24.7S50.1,55,36.5,55
		 M36.5,6.6C23.5,6.6,13,17.2,13,30.3C13,43.4,23.5,54,36.5,54C49.5,54,60,43.4,60,30.3C60,17.2,49.5,6.6,36.5,6.6"/>
</g>
</svg>