<?xml version="1.0" standalone="no"?><!DOCTYPE svg PUBLIC "-//W3C//DTD SVG 1.1//EN" "http://www.w3.org/Graphics/SVG/1.1/DTD/svg11.dtd"><svg t="1710313004630" class="icon" viewBox="0 0 1024 1024" version="1.1" xmlns="http://www.w3.org/2000/svg" p-id="2332" xmlns:xlink="http://www.w3.org/1999/xlink" width="200" height="200"><path d="M96.256 159.744v256h832v-256c0-38.4-25.6-64-64-64H159.744c-31.744 0.512-63.488 26.112-63.488 64z m768 192.512H159.744V159.744h704v192.512h0.512z" p-id="2333"></path><path d="M159.744 586.24V415.744h704v170.496h64.512V352.256H96.256v233.984zM230.4 224.256h256v64H230.4z" p-id="2334"></path><path d="M320.512 844.8H214.528L189.44 938.496H106.496l96.256-331.264H332.8l96.256 331.264H345.6L320.512 844.8z m-14.848-56.832l-37.376-138.752h-1.024l-37.376 138.752h75.776zM430.08 607.232h125.952c52.224 0 91.648 14.848 118.784 44.032 27.136 29.184 40.96 70.144 40.96 122.368 0 53.76-13.824 95.232-40.96 122.88-27.136 28.16-67.584 41.984-120.832 41.984H430.08v-331.264z m126.976 272.384c13.312 0 26.112-4.096 37.888-12.8 11.776-8.704 21.504-20.992 29.184-36.864 7.168-15.872 11.264-34.816 11.264-56.32 0-20.48-3.584-38.912-10.752-55.296-7.168-16.384-16.896-29.184-28.672-38.4-11.776-9.216-25.088-14.336-38.912-14.336h-48.64v214.016h48.64z" p-id="2335"></path><path d="M827.904 944.64c-42.496 0-80.384-9.216-113.664-27.648v-69.632c17.408 10.752 36.352 19.456 57.344 26.112 20.992 6.656 39.936 10.24 56.832 10.24 13.824 0 25.088-3.072 32.768-9.728 8.192-6.656 12.8-14.336 13.312-23.04 1.536-12.8-3.072-24.064-13.824-34.304s-26.624-18.432-47.104-24.576c-24.064-7.68-42.496-15.36-56.32-23.04-13.312-7.68-23.552-17.408-30.208-29.184-6.656-11.776-10.24-26.624-10.24-44.544 0-16.896 4.096-32.768 12.288-46.592 8.192-13.824 20.48-25.088 36.352-33.792 15.872-8.704 34.816-13.312 56.832-14.336 3.072-0.512 7.168-0.512 13.312-0.512 16.384 0 32.768 1.536 49.664 5.12 16.384 3.072 30.72 7.68 41.984 12.8v60.928c-12.288-5.12-26.624-9.728-43.008-13.312-16.384-3.584-30.72-5.12-43.52-5.12-15.872 0-28.16 3.072-36.864 8.704-8.704 5.632-12.8 13.824-12.8 23.552 0 9.216 4.608 17.408 13.824 24.576 9.216 7.168 23.552 14.336 42.496 20.992 23.04 6.656 41.984 14.336 56.32 22.528 14.336 8.192 26.112 19.456 34.304 32.768 8.192 13.312 12.288 30.208 12.288 50.176 0 19.456-4.608 36.352-13.312 51.2-8.704 14.848-20.992 26.624-37.376 34.816-15.872 8.192-34.304 12.8-55.808 13.824-3.072 1.024-8.192 1.024-15.872 1.024z" p-id="2336"></path></svg>