<?xml version="1.0" standalone="no"?><!DOCTYPE svg PUBLIC "-//W3C//DTD SVG 1.1//EN" "http://www.w3.org/Graphics/SVG/1.1/DTD/svg11.dtd"><svg t="1703756044719" class="icon" viewBox="0 0 1024 1024" version="1.1" xmlns="http://www.w3.org/2000/svg" p-id="1538" xmlns:xlink="http://www.w3.org/1999/xlink" width="200" height="200"><path d="M743.37848889 953.95536592h-460.20835556a41.9309037 41.9309037 0 0 1-36.29966222-20.9593837l-230.11631408-398.55597037a41.91876741 41.91876741 0 0 1 0-41.9187674l230.11631408-398.55597037a41.9309037 41.9309037 0 0 1 36.29966222-20.95938371h460.20835556c14.97618963 0 28.8237037 7.99781925 36.29966222 20.95938371l230.11631407 398.55597037a41.91876741 41.91876741 0 0 1 0 41.9187674L779.67815111 933.00811852a41.93454459 41.93454459 0 0 1-36.29966222 20.9472474z m-436.02071704-83.82539851H719.16657778l205.91653925-356.63720296L719.16657778 156.84342518H307.35777185L101.45336889 513.48062815l205.90440296 356.64933926z" p-id="1539"></path><path d="M509.01447111 702.24858075l-15.65582222-60.3173926h-103.92310519l-16.60245333 60.3173926h-86.8352l122.8921363-405.13384297h64.05537185L595.86180741 702.24858075h-86.8473363zM443.06583703 450.7359763l-30.36501333 108.1222637h58.84890075l-28.48388742-108.1222637z m186.95964445 251.51260445V297.11473778h83.03653927v405.13384297h-83.03653927z" p-id="1540"></path></svg>