<?xml version="1.0" encoding="utf-8"?>
<svg version="1.1" id="图层_1" xmlns="http://www.w3.org/2000/svg" xmlns:xlink="http://www.w3.org/1999/xlink" x="0px" y="0px"
	viewBox="0 0 200 200" style="enable-background:new 0 0 200 200;" xml:space="preserve">
<style type="text/css">
	.st0{fill:#898989;}
</style>
<path class="st0" d="M46.4,117.9c5.9,0,10.7-4.8,10.7-10.7c0-5.9-4.8-10.7-10.7-10.7s-10.7,4.8-10.7,10.7
	C35.7,113.1,40.5,117.9,46.4,117.9z"/>
<path class="st0" d="M82.1,117.9c5.9,0,10.7-4.8,10.7-10.7c0-5.9-4.8-10.7-10.7-10.7s-10.7,4.8-10.7,10.7
	C71.4,113.1,76.2,117.9,82.1,117.9z"/>
<path class="st0" d="M117.9,117.9c5.9,0,10.7-4.8,10.7-10.7c0-5.9-4.8-10.7-10.7-10.7c-5.9,0-10.7,4.8-10.7,10.7
	C107.1,113.1,111.9,117.9,117.9,117.9z"/>
<path class="st0" d="M157.1,50H7.1c0,0-7.1,0-7.1,7.1v100c0,7.1,7.1,7.1,7.1,7.1h21.4V200l35.7-35.7h92.9c0,0,7.1,0,7.1-7.1l0-100
	C164.3,50,157.1,50,157.1,50z M150,150H58.4l-4.2,4.2l-11.3,11.3V150H14.3V64.3H150V150z"/>
<path class="st0" d="M192.9,14.3h-150c0,0-7.1,0-7.1,7.1v21.4H50V28.6h135.7v85.7h-14.3v14.3h21.4c0,0,7.1,0,7.1-7.1l0-100
	C200,14.3,192.9,14.3,192.9,14.3z"/>
</svg>
