<?xml version="1.0" standalone="no"?><!DOCTYPE svg PUBLIC "-//W3C//DTD SVG 1.1//EN" "http://www.w3.org/Graphics/SVG/1.1/DTD/svg11.dtd"><svg t="1704786078347" class="icon" viewBox="0 0 1109 1024" version="1.1" xmlns="http://www.w3.org/2000/svg" p-id="1427" xmlns:xlink="http://www.w3.org/1999/xlink" width="216.6015625" height="200"><path d="M63.25457237 338.3648347h36.08003357v320.21030457H63.25457237zM135.41464064 338.3648347h36.0800347v320.21030457h-36.0800347zM207.57471005 338.3648347h36.08003356v320.21030457h-36.08003356zM279.73477831 338.3648347h36.0800347v320.21030457h-36.0800347zM351.89484771 469.15495936h36.08003357v58.63005525h-36.08003357z" fill="#FCC918" p-id="1428"></path><path d="M63.25457237 620.99177017h36.08003357v37.5833691H63.25457237z" fill="#FB0209" p-id="1429"></path><path d="M475.40883229 536.98542365c9.1402752 0 17.07788288-2.64586923 23.69255537-7.81734116 7.09573973-5.5322715 11.54561138-13.34961266 13.46987919-23.33175467h-9.50107592c-1.68373475 7.45654045-5.17147193 13.10907961-10.22267619 16.95761636-4.81067122 3.6080037-10.58347691 5.41200498-17.43868245 5.41200497-10.10240967 0-17.67921664-3.36746951-22.97095624-9.98214314-5.05120427-6.25387293-7.45654045-14.79281437-7.45654044-25.4965578 0-10.70374343 2.5256027-19.24268487 7.5768081-25.73709084 5.41200498-6.97547321 13.10907961-10.46321038 23.09122162-10.46321038 6.73494016 0 12.38747819 1.56346823 17.07788288 4.81067122 4.81067122 3.36746951 7.93760768 8.17814073 9.1402752 14.43201365h9.50107592c-1.20266752-8.53894144-5.05120427-15.39414813-11.54561138-20.44535239-6.49440597-5.05120427-14.55228018-7.57680697-24.05335609-7.57680697-13.22934613 0-23.57228885 4.44987051-30.78829625 13.59014571-6.6146725 8.17814073-9.86187662 18.64135111-9.86187548 31.38963 0 12.7482789 3.12693646 23.09122162 9.62134243 31.0288293 7.09573973 8.77947449 17.31841707 13.22934613 30.66802973 13.22934614zM536.50435641 535.30168889v-87.55421639h-9.50107591V535.30168889h9.50107591z m24.77495751-71.31820146c2.04453547 0 3.72827022-0.72160029 5.17147079-2.04453546 1.44320171-1.44320171 2.16480199-3.12693646 2.16480313-5.1714708 0-2.16480199-0.72160029-3.84853675-2.16480313-5.0512054-1.44320171-1.44320171-3.12693646-2.04453547-5.17147079-2.04453547-2.04453547 0-3.72827022 0.60133376-5.17147193 2.04453547-1.44320171 1.20266752-2.04453547 2.88640227-2.04453546 5.0512054 0 2.04453547 0.60133376 3.72827022 2.04453546 5.1714708 1.44320171 1.32293405 3.12693646 2.04453547 5.17147193 2.04453546z m4.81067122 71.31820146v-62.17792626h-9.62134244V535.30168889h9.62134244z m44.73924267 1.68373476c7.69707349 0 13.83067989-2.04453547 18.52108458-6.01333874 4.81067122-4.08907093 7.81734115-10.22267619 9.26054172-18.16028388h-9.62134243c-1.44320171 10.70374343-7.57680697 16.11574841-18.16028387 16.11574841-6.25387293 0-11.06454414-2.28506851-14.31174714-6.6146725-3.36746951-4.32960398-4.93093774-10.34294272-4.93093774-17.91975083s1.68373475-13.59014685 5.05120427-18.04001734c3.48773717-4.57013817 8.29840839-6.85520669 14.31174713-6.85520669 4.93093774 0 8.89974215 1.08240099 12.02667861 3.48773717 3.00666994 2.40533618 4.93093774 6.01333874 5.77280455 10.82400996h9.50107592c-1.08240099-7.57680697-3.96880327-13.22934613-8.7794745-16.95761636-4.69040469-3.6080037-10.82400995-5.41200498-18.52108458-5.41200498-9.26054173 0-16.59681565 3.24720299-21.8885541 9.86187663-4.93093774 6.01333874-7.33627392 13.71041337-7.33627392 23.21148814s2.40533618 17.19814941 7.33627392 23.09122275c5.17147193 6.25387293 12.38747819 9.38080939 21.76828758 9.38080826z m48.70804593-1.68373476v-22.00882062l9.86187663-8.89974216L693.6930395 535.30168889h12.38747933l-30.06669597-37.1624357 27.42082674-25.01549056h-12.7482789l-31.14909696 28.86402731v-54.24031744h-9.62134243V535.30168889h9.62134243z m65.06432853 0v-40.04883798h49.67018155V535.30168889h9.86187549v-85.87048164h-9.86187549v37.28270222h-49.67018155v-37.28270222h-9.86187548V535.30168889h9.86187548z m103.30916523 1.68373476c9.26054173 0 16.71708217-3.24720299 22.36962133-9.74160896 5.17147193-6.01333874 7.81734115-13.71041337 7.81734116-22.9709551 0-9.38080939-2.64586923-17.07788288-7.93760768-23.21148928-5.5322715-6.49440597-12.98881195-9.62134243-22.24935481-9.62134244-9.38080939 0-16.71708217 3.12693646-22.24935367 9.62134244-5.29173845 6.1336064-7.93760768 13.83067989-7.93760768 23.21148928 0 9.26054173 2.64586923 16.95761635 7.93760768 22.9709551 5.5322715 6.49440597 12.86854542 9.74160896 22.24935367 9.74160896z m0-8.05787421c-6.6146725 0-11.78614443-2.5256027-15.39414812-7.57680697-3.36746951-4.57013817-4.93093774-10.22267619-4.93093775-17.07788288 0-6.97547321 1.56346823-12.62801237 4.93093775-17.19815054 3.6080037-5.05120427 8.77947449-7.57680697 15.39414812-7.57680697 6.49440597 0 11.6658779 2.5256027 15.51441579 7.57680697 3.24720299 4.57013817 4.93093774 10.22267619 4.93093774 17.19815054 0 6.73494016-1.68373475 12.50774471-4.93093774 17.07788288-3.84853675 5.05120427-9.02000867 7.57680697-15.51441579 7.57680697z m65.30486272 8.05787421c8.41867491 0 15.15361394-3.84853675 20.20481935-11.3050772v9.62134244h9.62134243v-62.17792626h-9.62134243v37.88403598c-0.72160029 5.29173845-2.76613575 9.62134243-6.1336064 12.98881309-3.24720299 3.12693646-6.97547321 4.81067122-11.06454301 4.81067121-5.65253917 0-9.74160896-1.56346823-12.26721166-4.44987164-2.5256027-2.88640227-3.72827022-7.33627392-3.72827023-13.229345v-38.00430364h-9.62134243v38.48537088c0 16.83734983 7.45654045 25.37629127 22.61015438 25.37629014z m67.83046429 0c17.55895011 0 26.33842461-6.49440597 26.33842574-19.24268488 0-5.41200498-2.5256027-9.62134243-7.45654044-12.7482789-3.24720299-2.04453547-8.53894144-3.96880327-15.99548189-5.77280568-6.25387293-1.68373475-10.58347691-3.00666994-12.86854542-4.0890698-3.6080037-1.80400128-5.29173845-4.08907093-5.29173845-6.73494016 0-2.76613575 1.32293405-4.93093774 3.96880326-6.49440597 2.40533618-1.68373475 5.77280569-2.40533618 10.10240968-2.40533618 4.93093774 0 8.77947449 0.96213447 11.42534485 2.88640341 2.40533618 1.68373475 3.96880327 4.57013817 4.81067122 8.41867378h9.38080825c-1.68373475-12.98881195-10.10240967-19.36295139-25.4965578-19.3629514-6.97547321 0-12.7482789 1.56346823-17.07788288 4.6904047-4.69040469 3.12693646-6.97547321 7.21600739-6.97547321 12.50774471 0 5.29173845 2.28506851 9.26054173 7.09573973 12.14694514 2.88640227 1.92426894 8.05787421 3.72827022 15.39414813 5.53227264 6.73494016 1.68373475 11.18481067 3.00666994 13.22934613 3.96880327 3.84853675 1.92426894 5.89307221 4.57013817 5.89307222 8.0578742 0 6.97547321-5.65253917 10.58347691-16.71708217 10.58347691-5.29173845 0-9.26054173-0.96213447-11.90641095-2.88640227-2.64586923-2.16480199-4.44987051-5.65253917-5.17147193-10.58347691h-9.38080939c1.44320171 14.31174713 10.34294272 21.52775339 26.69922532 21.52775339z m63.62112796 0c8.05787421 0 14.67254784-2.40533618 19.84401863-6.97547322 4.20933746-3.84853675 6.97547321-8.65920797 8.41867492-14.6725467h-9.62134244c-1.56346823 4.32960398-3.6080037 7.57680697-6.25387292 9.74160896-3.12693646 2.5256027-7.33627392 3.84853675-12.38747819 3.84853675-5.89307221 0-10.58347691-1.92426894-13.95094642-5.77280569-3.36746951-3.84853675-5.17147193-9.26054173-5.65253916-16.23601493h49.06884665c-0.24053305-10.82400995-2.64586923-19.36295139-7.21600626-25.37629127-5.05120427-6.73494016-12.62801237-10.10240967-22.61015552-10.10240968-9.02000867 0-16.11574841 3.24720299-21.40748686 9.74160896-5.29173845 6.1336064-7.81734115 13.83067989-7.81734116 22.97095624 0 10.10240967 2.64586923 18.04001735 8.17814187 24.05335608 5.29173845 5.77280569 12.50774471 8.77947449 21.40748686 8.7794745z m19.48321792-37.52323528h-38.84617045c0.60133376-6.1336064 2.5256027-10.94427762 5.89307335-14.55228131 3.36746951-3.6080037 7.81734115-5.41200498 13.34961266-5.41200498 11.78614443 0 18.40081806 6.6146725 19.60348444 19.96428629z" fill="#000000" p-id="1430"></path></svg>