<?xml version="1.0" standalone="no"?><!DOCTYPE svg PUBLIC "-//W3C//DTD SVG 1.1//EN" "http://www.w3.org/Graphics/SVG/1.1/DTD/svg11.dtd"><svg t="1702965951270" class="icon" viewBox="0 0 1024 1024" version="1.1" xmlns="http://www.w3.org/2000/svg" p-id="2475" xmlns:xlink="http://www.w3.org/1999/xlink" width="200" height="200"><path d="M522.667 96l8.533 0.043a910.08 910.08 0 0 1 91.563 5.333l14.549 1.707 15.403 2.133 15.125 2.41 7.573 1.323 14.891 2.838c125.205 25.322 212.928 79.488 216.256 150.677l0.107 4.203v448c0 73.258-88.704 129.066-216.363 154.88l-14.89 2.837-7.574 1.323-15.125 2.389-15.403 2.133c-36.267 4.651-74.773 7.104-114.645 7.104s-78.379-2.453-114.646-7.104l-15.402-2.133-15.126-2.39c-137.088-23.189-235.264-79.487-238.72-154.9l-0.106-4.14v-448l0.106-4.202c3.328-71.19 91.051-125.355 216.256-150.677l14.891-2.838 7.573-1.322 15.126-2.39 15.402-2.133a892.203 892.203 0 0 1 97.643-6.955L522.667 96zM667.84 639.04l-15.125 2.39-15.403 2.133c-36.267 4.65-74.773 7.104-114.645 7.104s-78.379-2.454-114.646-7.104l-15.402-2.134-15.126-2.389c-71.488-12.096-132.416-33.195-174.826-61.312v136.939c0 20.949 24.17 42.773 65.066 61.184l9.75 4.181c15.04 6.187 32 11.925 50.602 17.024l12.651 3.307a642.594 642.594 0 0 0 40.597 8.704l14.379 2.453 14.741 2.197a765.06 765.06 0 0 0 30.571 3.627l15.765 1.408 16.064 1.11 16.363 0.81a845.995 845.995 0 0 0 66.901 0l16.363-0.81 16.064-1.11 15.787-1.408a768.635 768.635 0 0 0 30.549-3.627l14.741-2.197L664 809.067c14.165-2.56 27.733-5.483 40.597-8.704l12.651-3.307c18.603-5.12 35.563-10.837 50.603-17.024l9.749-4.181c39.317-17.707 63.19-38.55 64.96-58.774l0.107-2.41v-136.96c-42.39 28.138-103.318 49.237-174.827 61.333z m174.827-274.667c-40.299 26.731-97.28 47.104-164.203 59.456l-10.667 1.878-15.104 2.389-15.402 2.133c-36.267 4.651-74.774 7.104-114.646 7.104-34.176 0-67.349-1.792-98.986-5.248L408 430.23l-15.403-2.133-15.125-2.39c-71.488-12.095-132.416-33.194-174.827-61.311V480c0 20.95 24.171 42.773 65.067 61.184l9.75 4.181c15.04 6.187 32 11.926 50.602 17.024l12.65 3.307a642.594 642.594 0 0 0 40.598 8.704l14.379 2.453 14.741 2.198a765.059 765.059 0 0 0 30.57 3.626l15.766 1.408 16.064 1.11 16.363 0.81a845.995 845.995 0 0 0 66.901 0l16.363-0.81 16.064-1.11 15.786-1.408a768.637 768.637 0 0 0 30.55-3.626l14.741-2.198 14.379-2.453c14.165-2.56 27.733-5.483 40.597-8.704l12.65-3.307c18.603-5.12 35.563-10.837 50.603-17.024l9.75-4.181c39.317-17.707 63.189-38.55 64.96-58.773l0.106-2.411V364.373zM522.667 160l-8.448 0.043-12.587 0.213-12.416 0.405-16.363 0.811-16.064 1.11-15.786 1.407c-6.934 0.683-13.76 1.451-20.502 2.304l-10.026 1.323-14.763 2.197-14.379 2.454a664.253 664.253 0 0 0-30.826 6.336l-9.771 2.346-12.65 3.328c-15.489 4.267-29.867 8.96-42.923 13.974l-7.68 3.05-9.75 4.182c-40.896 18.41-65.066 40.234-65.066 61.184 0 20.053 22.122 40.874 59.84 58.773l5.226 2.41 9.75 4.182c12.522 5.163 26.389 10.005 41.45 14.421l9.174 2.603 12.629 3.307c9.643 2.41 19.69 4.65 30.08 6.72l10.517 1.984 14.379 2.453 14.741 2.197c6.635 0.939 13.376 1.771 20.224 2.56l10.347 1.067 15.765 1.408 16.064 1.11 16.363 0.81a845.995 845.995 0 0 0 55.872 0.363l11.03-0.363 16.362-0.81 16.064-1.11 15.787-1.408c6.933-0.683 13.76-1.45 20.501-2.304l10.027-1.323 14.762-2.197L664 361.067a664.253 664.253 0 0 0 30.827-6.336l9.77-2.347 12.651-3.328c15.488-4.267 29.867-8.96 42.923-13.973l7.68-3.051 9.749-4.181c40.896-18.411 65.067-40.235 65.067-61.184 0-20.054-22.123-40.875-59.84-58.774l-5.227-2.41-9.75-4.182a424.47 424.47 0 0 0-41.45-14.421l-9.173-2.603-12.63-3.306a623.659 623.659 0 0 0-30.08-6.72L664 172.267l-14.379-2.454-14.741-2.197a765.995 765.995 0 0 0-20.224-2.56l-10.347-1.067-15.765-1.408-16.064-1.109-16.363-0.81c-7.317-0.3-14.72-0.491-22.186-0.598L522.667 160z" p-id="2476"></path></svg>