<?xml version="1.0" standalone="no"?><!DOCTYPE svg PUBLIC "-//W3C//DTD SVG 1.1//EN" "http://www.w3.org/Graphics/SVG/1.1/DTD/svg11.dtd"><svg t="1703818075464" class="icon" viewBox="0 0 1024 1024" version="1.1" xmlns="http://www.w3.org/2000/svg" p-id="2132" xmlns:xlink="http://www.w3.org/1999/xlink" width="200" height="200"><path d="M254.976 849.408c-4.608 0-10.24-1.024-14.848-3.584l-141.824-78.848c-9.216-4.608-14.848-14.336-14.848-24.064v-157.184c0-15.36 12.8-27.648 28.16-27.648s28.16 12.8 28.16 27.648V727.04l126.976 70.656v-1.024c13.312 7.68 18.432 24.064 11.264 36.864v1.024c-3.584 9.216-12.288 14.848-23.04 14.848zM112.128 487.424c-7.168 0-14.848-3.072-19.456-7.168-5.12-5.12-9.216-12.8-9.216-19.456V302.592c0-9.728 5.12-18.944 14.848-24.064L240.64 201.216c9.216-6.144 20.992-7.168 30.72-3.072 10.24 4.608 15.872 14.336 15.872 25.6-1.024 10.752-7.168 20.992-17.408 24.064L142.336 318.464v141.824c0 15.36-12.8 27.648-28.16 27.648l-2.048-0.512z m799.232-1.536c-15.872 0-28.16-11.776-28.16-27.136V317.44l-126.976-69.632c-13.312-7.168-18.432-23.552-11.264-36.864V209.92c5.12-9.216 14.848-13.312 24.576-13.312 4.608 0 10.24 1.024 14.848 3.584l141.824 77.312c9.216 4.608 14.848 14.336 14.848 24.064v156.16c-1.536 15.36-14.336 28.16-29.696 28.16zM370.688 188.416c-10.24 0-19.456-5.12-24.576-13.312-8.192-12.8-3.584-30.208 10.24-38.4h1.024l141.312-78.848c9.216-4.608 19.968-4.608 28.16 0l141.824 77.312c13.312 7.168 18.432 24.064 11.264 36.864v1.024c-5.12 9.216-14.848 13.312-24.576 13.312-4.608 0-10.24-1.024-14.848-3.584l-128.512-71.68-128 72.704c-3.584 2.048-8.192 4.608-13.312 4.608z m298.496 688.128c-2.56 4.096-5.632 8.192-10.752 10.24L517.12 965.632c-8.704 5.12-19.968 5.12-28.672 0l-137.216-80.896c-13.312-8.192-17.408-25.6-10.24-38.4 7.68-12.8 26.112-17.408 38.912-9.728l123.392 73.216 126.976-70.656-0.512-0.512c13.312-8.192 30.72-3.072 38.4 9.728l0.512 0.512c6.144 8.192 6.144 18.944 0.512 27.648z m68.096-53.248v-1.024c-7.168-12.8-3.072-30.208 11.264-36.864v1.024l126.976-70.656v-141.824c0-15.36 12.8-27.648 28.16-27.648s28.16 12.8 28.16 27.648v157.184c0 9.728-5.12 19.456-14.848 24.064l-141.824 78.848c-4.608 3.072-10.24 3.584-14.848 3.584-9.728 0-18.944-5.12-23.04-14.336z m-236.544-563.2c-130.048 0-231.936 54.784-231.936 124.416v251.392c0 70.144 101.888 124.416 231.936 124.416s231.936-54.784 231.936-124.416V384.512c-0.512-69.632-101.888-124.416-231.936-124.416zM308.224 508.416c0-10.24 4.608-19.968 13.312-29.696 3.072-3.072 4.096-7.168 4.608-10.752 41.984 25.6 103.936 41.472 174.08 41.472 69.632 0 131.072-15.872 173.056-40.96 1.024 3.072 2.048 6.144 4.608 8.704 9.728 10.24 14.336 20.992 14.336 31.232 0 40.448-78.848 86.016-192.512 86.016-112.64 0-191.488-45.568-191.488-86.016z m192.512-209.408c113.152 0 192.512 45.056 192.512 86.016 0 40.448-78.848 86.016-192.512 86.016s-192.512-45.056-192.512-86.016 78.848-86.016 192.512-86.016z m0 422.912c-113.152 0-192.512-45.056-192.512-86.016 0-10.24 4.608-19.968 13.312-29.696 3.584-4.096 5.12-9.216 5.12-14.336 41.984 25.6 103.936 41.472 174.08 41.472 69.12 0 130.56-15.36 172.544-40.448 0.512 4.096 2.048 8.704 5.12 12.288 9.728 10.24 14.336 20.992 14.336 31.232 0 40.448-78.848 85.504-192 85.504z" p-id="2133"></path></svg>