<?xml version="1.0" standalone="no"?><!DOCTYPE svg PUBLIC "-//W3C//DTD SVG 1.1//EN" "http://www.w3.org/Graphics/SVG/1.1/DTD/svg11.dtd"><svg t="1708682734717" class="icon" viewBox="0 0 1024 1024" version="1.1" xmlns="http://www.w3.org/2000/svg" p-id="5157" xmlns:xlink="http://www.w3.org/1999/xlink" width="200" height="200"><path d="M392.704 703.488l-27.648 27.648-22.016-110.08 110.08 22.016-27.648 27.648c51.712 51.712 135.68 51.712 187.392 0 51.712-51.712 51.712-135.68 0-187.392s-135.68-51.712-187.392 0c-9.216 9.216-24.064 9.216-33.28 0-9.216-9.216-9.216-24.064 0-33.28 70.144-70.144 183.808-70.144 253.952 0 70.144 70.144 70.144 183.808 0 253.952-69.632 69.632-183.296 69.632-253.44-0.512z" p-id="5158"></path><path d="M909.824 797.184c-27.648 0-53.248 11.264-71.168 29.696l-73.728-61.952c37.888-51.712 60.416-115.712 60.416-185.344 0-166.912-131.072-303.616-295.424-312.832V225.28c46.592-8.192 81.92-49.152 81.92-98.304 0-55.296-44.544-99.84-99.84-99.84S412.16 71.68 412.16 126.976c0 49.152 35.328 89.6 81.92 98.304v41.472c-164.864 9.216-295.424 145.92-295.424 312.832 0 65.536 19.968 125.952 54.272 176.64l-75.776 63.488c-17.408-13.824-38.912-22.528-62.976-22.528-55.296 0-99.84 44.544-99.84 99.84s44.544 99.84 99.84 99.84 99.84-44.544 99.84-99.84c0-17.92-4.608-35.328-13.824-50.176l74.24-62.464c57.344 66.56 142.336 109.056 237.568 109.056 91.136 0 173.056-38.912 230.4-100.864l76.288 64c-5.632 12.8-8.704 26.624-8.704 40.448 0 55.296 44.544 99.84 99.84 99.84s99.84-44.544 99.84-99.84-45.056-99.84-99.84-99.84zM111.616 948.224c-27.648 0-50.688-22.528-50.688-50.688 0-27.648 22.528-50.688 50.688-50.688 27.648 0 50.688 22.528 50.688 50.688-0.512 28.16-23.04 50.688-50.688 50.688zM460.8 131.072c0-27.648 22.528-50.688 50.688-50.688 27.648 0 50.688 22.528 50.688 50.688 0 27.648-22.528 50.688-50.688 50.688S460.8 159.232 460.8 131.072z m50.688 698.88c-138.24 0-250.368-112.128-250.368-250.368s112.128-250.368 250.368-250.368 250.368 112.128 250.368 250.368-112.128 250.368-250.368 250.368z m401.408 118.272c-27.648 0-50.688-22.528-50.688-50.688 0-27.648 22.528-50.688 50.688-50.688 27.648 0 50.688 22.528 50.688 50.688s-22.528 50.688-50.688 50.688z" p-id="5159"></path></svg>