<?xml version="1.0" standalone="no"?><!DOCTYPE svg PUBLIC "-//W3C//DTD SVG 1.1//EN" "http://www.w3.org/Graphics/SVG/1.1/DTD/svg11.dtd"><svg t="1704786082885" class="icon" viewBox="0 0 3003 1024" version="1.1" xmlns="http://www.w3.org/2000/svg" p-id="1568" xmlns:xlink="http://www.w3.org/1999/xlink" width="586.5234375" height="200"><path d="M667.34937013 237.62349311l-86.29974675-86.29974675A118.5467957 118.5467957 0 0 0 497.22838968 116.4927151a110.29387168 110.29387168 0 0 0-76.99213627 31.00779165 112.95695632 112.95695632 0 0 0-1.58202969 161.02430694l156.62098947 156.62098869a17.87694154 17.87694154 0 0 0 24.60056893 0l67.36811953-67.42085337c4.24511435-5.06249691 74.75092635-85.56146654 0.10546848-160.1014559z" fill="#15A9CA" p-id="1569"></path><path d="M808.7565027 375.52379233c-16.42674649-15.92577095-33.48630547-32.35251743-48.88473317-50.1503574V324.79335705c-0.55371094 1.60839741-0.97558491 3.26952945-1.2392573 4.95702841a177.37195186 177.37195186 0 0 1-52.81344128 98.82415284c-90.86126736 90.22845563-182.75085502 182.40808184-271.6345841 271.60821716l-11.99706285 11.89159358a115.14543082 115.14543082 0 0 0-35.25290598 63.67671533 123.21378479 123.21378479 0 0 0 31.64060414 96.76751375 103.3329388 103.3329388 0 0 0 81.3427191 34.91013282c35.43747606 0.52734324 52.73433973-4.13964586 78.57416597-29.26755882 103.35930574-101.17083124 206.71861224-203.18541117 284.95000579-280.70489066 36.91403804-36.70310029 45.35153212-97.47942704 19.22166656-138.40127476a474.66179291 474.66179291 0 0 0-73.90717687-83.50482744z" fill="#52CAA3" p-id="1570"></path><path d="M308.49218747 321.44472681V702.63490236a21.19920485 21.19920485 0 0 0 36.17575704 15.00291989l191.84752854-191.84752853a19.5380728 19.5380728 0 0 0 0-27.47459134L344.66794451 306.46817384a20.67186083 20.67186083 0 0 0-14.76561521-6.19628494 21.3837749 21.3837749 0 0 0-21.41014183 21.17283791z" fill="#5268AD" p-id="1571"></path><path d="M1145.70256724 673.89468677V350.52771479h95.92376351c105.12590627 0 170.5428552 62.01558329 170.54285519 161.55165019s-65.41694893 161.86805643-170.54285519 161.86805642h-95.92376351z m51.67965249-46.30075009h46.40621935c71.0067883 0 116.80656286-45.24606362 116.80656286-115.22453238s-45.79977379-115.25090009-116.80656286-115.25090009h-46.40621935v230.47543247zM1643.09286008 678.87808212a166.79871714 166.79871714 0 1 1 0-333.59743352 166.79871714 166.79871714 0 0 1 0 333.59743352z m0-285.68828602a118.96867044 118.96867044 0 0 0 0 237.72640389 120.10245924 120.10245924 0 0 0 117.30753917-119.49601367 117.9403509 117.9403509 0 0 0-117.33390611-118.23039022zM2287.63832876 350.50134788h-53.12984676v323.10330034h53.12984676V350.50134788zM2483.20362841 678.87808212a251.91194123 251.91194123 0 0 1-99.14055908-21.19920485v-47.54000739a242.6834323 242.6834323 0 0 0 99.14055908 22.93943845c41.34372245 0 68.92378229-18.90526108 68.9237823-46.93356259 0-31.50876795-33.69724322-44.03317403-69.34565704-57.24312647-55.8983999-20.67186083-98.71868434-40.60544145-98.71868434-93.55071894 0-66.44526847 60.16988197-90.12298714 111.74406595-90.12298636 29.00388719 0 57.744102 5.40527009 84.74408475 15.92577095v46.51168708a241.5496435 241.5496435 0 0 0-86.08880977-17.16502747c-39.6825904 0-57.48043039 20.67186083-57.48043114 41.34372245 0 27.39548978 29.79490205 38.33786539 64.70503563 50.96773996 60.98726375 22.01658663 107.4989516 43.50583002 107.4989516 101.27629894-0.21093698 56.03023611-51.89059024 94.78997624-125.98233794 94.78997625zM2049.49005013 542.9553212l20.14451838-8.70116647a95.81829577 95.81829577 0 0 0 58.00777361-87.7235741c0-58.29781295-41.97653417-95.92376426-106.8925068-95.92376427H1898.27433076V673.89468677h51.67965325V396.2483878h65.33784659a56.66304783 56.66304783 0 0 1 60.03804655 56.95308714 57.26949339 57.26949339 0 0 1-60.03804655 56.95308715h-27.50095828c-12.10253134 1.76660053-5.80077712 12.10253134-5.80077712 12.10253056l104.30852448 151.61122719h58.37691373l-95.18548328-130.93936557z" fill="#1D2434" p-id="1572"></path></svg>