<?xml version="1.0" standalone="no"?><!DOCTYPE svg PUBLIC "-//W3C//DTD SVG 1.1//EN" "http://www.w3.org/Graphics/SVG/1.1/DTD/svg11.dtd"><svg t="1710387885374" class="icon" viewBox="0 0 1024 1024" version="1.1" xmlns="http://www.w3.org/2000/svg" p-id="2221" xmlns:xlink="http://www.w3.org/1999/xlink" width="200" height="200"><path d="M96.256 159.744v256h832v-256c0-38.4-25.6-64-64-64H159.744c-31.744 0.512-63.488 26.112-63.488 64z m768 192.512H159.744V159.744h704v192.512h0.512z" p-id="2222"></path><path d="M159.744 929.28V415.744h704v170.496h64.512V352.256H96.256v577.024zM230.4 224.256h256v64H230.4z" p-id="2223"></path><path d="M257.024 620.032h118.272c97.792 0 149.504 58.368 149.504 156.16 0 101.376-51.712 155.136-151.552 155.136H257.024v-311.296z m119.296 256c12.288 0 24.576-4.096 35.328-11.776 22.528-15.872 37.888-47.104 37.888-87.552 0-56.832-32.768-101.376-73.216-101.376h-45.568v200.704h45.568zM721.408 730.112h-1.536l-35.328 201.216h-89.088l-75.264-310.784h76.288l44.544 234.496h1.536l44.544-234.496h67.072L798.72 855.04h1.536l44.544-234.496h76.288l-75.776 310.784h-89.088l-34.816-201.216z" p-id="2224"></path></svg>