<?xml version="1.0" standalone="no"?><!DOCTYPE svg PUBLIC "-//W3C//DTD SVG 1.1//EN" "http://www.w3.org/Graphics/SVG/1.1/DTD/svg11.dtd"><svg t="1704786095658" class="icon" viewBox="0 0 1024 1024" version="1.1" xmlns="http://www.w3.org/2000/svg" p-id="2138" xmlns:xlink="http://www.w3.org/1999/xlink" width="200" height="200"><path d="M233.79725861 274.69960952h443.48038879c14.06363077-2.00048182 29.98313086-8.11038867 47.746448-18.36587246 24.65654534-13.26825796 40.69655667-26.87394754 48.10798087-40.80501645C708.36947894 128.78492051 619.11905002 87.05197021 505.38079197 90.30576685c-113.73825805 3.25379663-204.26610306 64.71439399-271.59558481 184.38179123z" fill="#E8BB20" p-id="2139"></path><path d="M233.79725861 546.87364676h443.48038879c14.06363077 1.98843118 29.98313086 8.11038867 47.746448 18.36587246 24.65654534 13.25620733 40.69655667 26.87394754 48.10798087 40.80501645-64.76259815 86.73174865-154.01302625 128.4767504-267.73923285 125.22295378-113.73825805-3.25379663-204.26610306-64.71439399-271.59558481-184.39384269z" fill="#13C5B5" p-id="2140"></path><path d="M217.11854007 320.21660471h417.25719992c51.14485793 15.78693741 76.72933794 46.25211237 76.72933795 91.34731906 0 45.11930877-25.58448001 74.64449762-76.72933795 88.59966944H217.11854007c-8.82140378-20.33020157-13.23210525-50.32538305-13.23210525-89.97349468s4.41070148-69.64329227 13.23210525-89.97349382z" fill="#10A1D3" p-id="2141"></path><path d="M474.1443471 546.88569822a318.18512796 318.18512796 0 0 1-121.72813548 135.99663518c-45.36033124-30.73029868-84.89998223-76.07857846-118.61895301-136.00868664h240.3470885z m16.77512769-226.66909351a319.00460202 319.00460202 0 0 1 13.26825879 91.34731907c0 30.75440076-4.33839523 60.49650916-12.46083454 88.61172005H217.11854007c-8.82140378-20.34225219-13.23210525-50.33743451-13.23210525-89.9855453s4.41070148-69.64329227 13.23210525-89.97349382h273.80093472zM351.19905032 139.52244839a318.17307651 318.17307651 0 0 1 122.19812897 135.17716113H233.80931006c32.98385358-58.64064066 71.54736575-103.31405887 115.6905357-134.008204l1.71125602-1.16895713z" fill="#000000" fill-opacity=".098" p-id="2142"></path><path d="M490.91947479 320.21660471a319.00460202 319.00460202 0 0 1 13.26825879 91.34731906c0 30.76645222-4.33839523 60.49650916-12.46083454 88.61172006H217.11854007c-8.82140378-20.34225219-13.23210525-50.33743451-13.23210525-89.9855453s4.41070148-69.64329227 13.23210525-89.97349382h273.80093472z" fill="#000000" p-id="2143"></path><path d="M144.32991095 932.19543817v-88.67197485h63.76235641v10.46035272H155.99537351v27.16317334h48.79489307v10.4000971H155.99537351v30.17594834h54.14558065v10.47240335zM224.63842487 932.19543817v-88.67197485h10.83393622v88.67197485zM293.94428635 924.26581634c-4.01301508 3.42251202-7.86936704 5.84478232-11.58110486 7.25476109a33.29718228 33.29718228 0 0 1-11.94263773 2.12099303c-7.02579007 0-12.41263037-1.72330664-16.18462381-5.1819722-3.77199344-3.43456265-5.66401548-7.8332135-5.66401547-13.20800316 0-3.1332854 0.72306573-6.02554916 2.14509512-8.61653404 1.42202939-2.60303714 3.28994934-4.68787664 5.59170924-6.26657079 2.31381052-1.5666427 4.90479702-2.74765045 7.79705996-3.55507389a77.00651312 77.00651312 0 0 1 9.61677576-1.63894977c8.74909671-1.0484459 15.18438291-2.28970844 19.3179092-3.74789136l0.06025562-2.84405877c0-4.43480356-1.02434299-7.55603833-3.07302979-9.3757533-2.77175254-2.45842383-6.86912531-3.68763575-12.32827266-3.68763656-5.0976145 0-8.85755649 0.89178112-11.27982761 2.68739483-2.42227029 1.80766433-4.217884 4.97710328-5.38684031 9.52036744l-10.58086395-1.44613147c0.96408819-4.55531479 2.53073007-8.2308999 4.74813309-11.03880598 2.20535074-2.79585461 5.39889175-4.95300119 9.56857077-6.4714389a42.45601685 42.45601685 0 0 1 14.4974707-2.26560635c5.44709592 0 9.8819003 0.65075949 13.29236087 1.92817557 3.41046057 1.30151816 5.90503793 2.92841648 7.5198848 4.88069412 1.60279624 1.95227765 2.72354837 4.42275293 3.37430704 7.41142502 0.36153287 1.85586932 0.53024827 5.19402283 0.53024826 10.03856423v14.50952134c0 10.12292193 0.24102163 16.52205459 0.69896364 19.20944943 0.45794201 2.67534338 1.37382522 5.24222782 2.73559901 7.71270227h-11.31598031a23.17426035 23.17426035 0 0 1-2.16919804-7.92962183zM293.04045376 899.95875241c-3.92865738 1.60279624-9.83369531 2.97662146-17.69101089 4.09737359-4.45890647 0.65075949-7.59219104 1.38587586-9.44806036 2.19329929a9.32754914 9.32754914 0 0 0-5.78452671 8.712944c0.01205146 2.89226377 1.10870068 5.30248261 3.28994935 7.24270963 2.19330011 1.94022702 5.3868403 2.90431439 9.59267368 2.90431439 4.18173047 0 7.88141767-0.91588321 11.13521429-2.74765045 3.25379663-1.83176641 5.63991339-4.33839523 7.15835193-7.53193543 1.1689563-2.45842383 1.74740955-6.08580396 1.74740871-10.8821412V899.95875241zM316.44368512 913.02214227l10.70137519-1.68715393c0.60255451 4.3022417 2.27765781 7.60424249 5.02530742 9.90600238 2.74765045 2.28970844 6.59195013 3.44661411 11.52084925 3.44661411 4.97710328 0 8.66473901-1.01229236 11.06290723-3.0489277 2.41021967-2.0486868 3.61532949-4.42275293 3.6153295-7.17040338a6.62810366 6.62810366 0 0 0-3.19354102-5.80862879c-1.48228501-0.96408819-5.16992075-2.19330011-11.06290723-3.68763574-7.95372473-2.01253327-13.44902481-3.75994282-16.51000397-5.23017636a16.02795987 16.02795987 0 0 1-6.98963653-6.10990604 16.24487942 16.24487942 0 0 1-2.37406613-8.61653485c0-2.86816086 0.65075949-5.51940298 1.9643291-7.95372473a17.59460257 17.59460257 0 0 1 5.31453405-6.07375332c1.68715393-1.25331399 3.97686236-2.31381052 6.89322739-3.18148958 2.90431439-0.86767905 6.02554916-1.30151816 9.35165204-1.30151814 5.01325681 0 9.41190683 0.72306573 13.20800235 2.16919719 3.78404489 1.45818293 6.5798995 3.42251202 8.38756384 5.90503793 1.80766433 2.4825259 3.0489277 5.79657816 3.73584074 9.95420655l-10.59291459 1.44613147a11.66546256 11.66546256 0 0 0-4.18173129-7.73680435c-2.30175989-1.85586932-5.56760715-2.78380315-9.77343969-2.78380317-4.97710328 0-8.5201257 0.83152552-10.6531702 2.48252592-2.12099304 1.6510004-3.18148956 3.59122742-3.18148957 5.80862878a6.02554916 6.02554916 0 0 0 1.32562025 3.80814697 9.54446951 9.54446951 0 0 0 4.14557775 2.89226293c1.08459861 0.40973703 4.27813962 1.33767169 9.56857159 2.79585463 7.65244666 2.0486868 13.00313425 3.73583991 16.02795905 5.04941034 3.02482562 1.30151816 5.41094239 3.20559165 7.13424985 5.71222045 1.72330664 2.49457736 2.57893506 5.60376068 2.57893506 9.31549768 0 3.61532949-1.0484459 7.0378407-3.15738749 10.24343317a20.43866135 20.43866135 0 0 1-9.11062958 7.44757855 33.02000711 33.02000711 0 0 1-13.47312689 2.62713922c-8.30320614 0-14.63003257-1.73535809-18.98047924-5.20607427-4.35044586-3.45866473-7.13424985-8.6044834-8.32730823-15.42540454zM406.00744192 922.45815201l1.5666427 9.60472431c-3.0489277 0.65075949-5.77247607 0.96408819-8.1826949 0.96408819-3.92865738 0-6.97758508-0.61460596-9.1347325-1.86791995a10.48445481 10.48445481 0 0 1-4.57941686-4.92889912c-0.8797305-2.03663535-1.32562106-6.31477496-1.32562025-12.8464703v-36.96071594h-7.94167326v-8.45987009h7.9537239v-15.90744863l10.76162998-6.53169535v22.43914398h10.88214119v8.45987009h-10.88214119v37.56327127c0 3.10918332 0.19281748 5.0976145 0.56640179 5.9893948a4.53121271 4.53121271 0 0 0 1.86791994 2.10894241 7.17040338 7.17040338 0 0 0 3.6996872 0.79537281c1.20510983 0 2.78380315-0.14461331 4.74813226-0.42178848zM416.66061211 856.04455347v-12.52109016h10.88214121v12.52109016h-10.8821412z m1e-8 76.15088471v-64.23234907h10.8821412v64.23234907h-10.8821412zM485.66519635 908.65964495l10.64111957 1.39792732c-1.15690567 7.37527148-4.1335263 13.14774756-8.92986356 17.32947802-4.79633643 4.16967983-10.67727228 6.25451935-17.65485736 6.25452017-8.74909671 0-15.77488677-2.86816086-21.08942084-8.61653484-5.30248261-5.74837317-7.96577536-13.97927307-7.96577536-24.70475034 0-6.94143237 1.14485422-13.01518569 3.42251121-18.19715707a23.98168378 23.98168378 0 0 1 10.43625064-11.71366672c4.67582603-2.60303714 9.76138907-3.90455529 15.25668914-3.90455529 6.92938091 0 12.60544785 1.77151163 17.01615015 5.3024826 4.41070148 3.51892034 7.24270962 8.53217715 8.48397216 15.02771896l-10.5206075 1.62689832c-1.01229236-4.31429316-2.77175254-7.55603833-5.32658552-9.737287a13.73825144 13.73825144 0 0 0-9.23114081-3.26584725c-5.45914737 0-9.8819003 1.96432911-13.30441149 5.9050371-3.39840912 3.92865738-5.10966514 10.14702402-5.10966514 18.6550991 0 8.62858548 1.6510004 14.89515628 4.94094974 18.7997124a16.02795987 16.02795987 0 0 0 12.87057239 5.8688844c4.25403754 0 7.79705996-1.31356961 10.64111875-3.9286582 2.85611023-2.61508777 4.65172394-6.65220576 5.42299383-12.09930167zM502.98262375 903.69459314l11.01470306-0.96408819c0.51819681 4.43480356 1.73535809 8.07423514 3.63943159 10.91829473s4.85659204 5.14581866 8.86960793 6.89322739c4.01301508 1.75946018 8.5201257 2.63919068 13.53338251 2.63919068 4.45890647 0 8.38756385-0.66281012 11.79802442-2.00048264 3.39840912-1.32562106 5.94119146-3.15738748 7.60424249-5.471198s2.49457736-4.84454141 2.49457736-7.59219104a11.56905341 11.56905341 0 0 0-2.41021967-7.29091462c-1.60279624-2.07278887-4.24198609-3.8201976-7.92962266-5.23017635-2.37406613-0.92793466-7.60424249-2.3620155-15.7025797-4.32634378-8.09833721-1.95227765-13.77440415-3.79609552-17.02820077-5.53145362-4.217884-2.2174022-7.35116941-4.96505182-9.41190684-8.25500198a20.31815012 20.31815012 0 0 1-3.09713269-11.03880515c0-4.47095708 1.26536545-8.65268838 3.7840449-12.54519222 2.53073007-3.89250467 6.21836663-6.84502322 11.07495868-8.85755732 4.84454141-2.02458472 10.24343317-3.02482562 16.18462381-3.0248248 6.53169452 0 12.29211914 1.06049651 17.29332532 3.16943811 4.98915472 2.12099304 8.83345441 5.23017637 11.52084924 9.35165204 2.68739484 4.09737278 4.12147568 8.76114817 4.32634378 13.96722161l-11.18341845 0.84357698c-0.60255451-5.60376068-2.6512413-9.83369531-6.10990687-12.701857-3.47071619-2.85611023-8.59243277-4.29019107-15.37720038-4.29019024-7.04989216 0-12.19571081 1.30151816-15.42540454 3.90455529-3.22969372 2.59098569-4.84454141 5.73632254-4.84454141 9.3998562 0 3.18148956 1.14485422 5.80862878 3.43456265 7.85731558 2.24150427 2.06073743 8.11038867 4.16967983 17.59460257 6.32682642 9.48421389 2.15714658 15.99180633 4.03711798 19.52277814 5.66401547 5.13376721 2.37406613 8.9178121 5.3868403 11.36418447 9.03832334 2.44637319 3.63943158 3.67558511 7.84526413 3.67558513 12.60544784 0 4.71197873-1.34972315 9.15883374-4.037118 13.32851358a26.57267029 26.57267029 0 0 1-11.5690534 9.737287 40.15425696 40.15425696 0 0 1-16.99204723 3.48276763c-7.98987744 0-14.67823672-1.1689563-20.07712849-3.50686973a28.12726153 28.12726153 0 0 1-12.68980554-10.55676104 30.04338648 30.04338648 0 0 1-4.84454141-15.93155154zM631.48347623 911.50370373l11.18341845 1.39792731c-1.75946018 6.56784805-5.02530742 11.66546256-9.79754177 15.30489413-4.77223434 3.61532949-10.87008975 5.43504529-18.29356622 5.43504529-9.33960058 0-16.75102561-2.89226377-22.22222361-8.67679046-5.48324945-5.78452671-8.21884845-13.90696683-8.21884845-24.34321664 0-10.80983413 2.77175254-19.19739798 8.30320615-25.16269153 5.54350507-5.96529355 12.71390762-8.95396564 21.5353114-8.95396564 8.54422778 0 15.52181369 2.92841648 20.93275607 8.77319879 5.42299383 5.84478232 8.12244012 14.07568222 8.12243931 24.68064743 0 0.63870803-0.02410208 1.60279624-0.0602548 2.89226376h-47.63798904c0.3976864 7.06194277 2.38611758 12.46083453 5.95324209 16.20872589 3.56712451 3.75994282 8.01397952 5.62786277 13.35261649 5.62786277 3.97686236 0 7.35116941-1.0484459 10.1711261-3.1332854 2.80790606-2.10894241 5.02530742-5.44709592 6.67630783-10.0506157z m-35.55073719-17.59460174h35.67124842c-0.4820441-5.41094239-1.84381787-9.46011182-4.09737278-12.15955729a16.55820813 16.55820813 0 0 0-13.4128721-6.29067287c-4.97710328 0-9.15883374 1.67510248-12.5331416 5.02530744-3.39840912 3.33815433-5.26632989 7.82116205-5.62786194 13.42492272zM697.95733039 924.26581634c-4.01301508 3.42251202-7.86936704 5.84478232-11.58110487 7.25476109a33.29718228 33.29718228 0 0 1-11.94263772 2.12099303c-7.01373862 0-12.41263037-1.72330664-16.18462381-5.1819722-3.77199344-3.43456265-5.66401548-7.8332135-5.66401547-13.20800316 0-3.1332854 0.72306573-6.02554916 2.14509512-8.61653404 1.42202939-2.60303714 3.28994934-4.68787664 5.59170922-6.26657079 2.31381052-1.5666427 4.90479702-2.74765045 7.79705997-3.55507389a77.00651312 77.00651312 0 0 1 9.61677576-1.63894977c8.74909671-1.0484459 15.18438291-2.28970844 19.31790922-3.74789136l0.06025561-2.84405877c0-4.43480356-1.02434299-7.55603833-3.07302978-9.3757533-2.77175254-2.45842383-6.86912531-3.68763575-12.32827269-3.68763656-5.0976145 0-8.85755649 0.89178112-11.2798276 2.68739483-2.42227029 1.80766433-4.217884 4.97710328-5.38684029 9.52036744l-10.58086396-1.44613147c0.96408819-4.55531479 2.53073007-8.2308999 4.74813308-11.03880598 2.20535074-2.79585461 5.39889175-4.95300119 9.56857077-6.4714389a42.45601685 42.45601685 0 0 1 14.49747071-2.26560635c5.44709592 0 9.8819003 0.65075949 13.29236087 1.92817557 3.41046057 1.30151816 5.90503793 2.92841648 7.5198848 4.88069412 1.60279624 1.95227765 2.72354837 4.42275293 3.37430703 7.41142502 0.36153287 1.85586932 0.53024827 5.19402283 0.53024827 10.03856423v14.50952134c0 10.12292193 0.24102163 16.52205459 0.69896365 19.20944943 0.45794201 2.67534338 1.37382522 5.24222782 2.73559899 7.71270227h-11.31598031a23.17426035 23.17426035 0 0 1-2.16919803-7.92962183z m-0.90383258-24.30706393c-3.92865738 1.60279624-9.83369531 2.97662146-17.6910109 4.09737359-4.45890647 0.65075949-7.59219104 1.38587586-9.43600974 2.19329929a9.32754914 9.32754914 0 0 0-5.7845267 8.712944c0 2.89226377 1.09665006 5.30248261 3.27789871 7.24270962 2.19330011 1.94022702 5.3868403 2.90431439 9.60472513 2.9043144 4.16967983 0 7.86936704-0.91588321 11.12316284-2.74765045 3.25379663-1.83176641 5.63991339-4.33839523 7.15835193-7.53193543 1.1689563-2.45842383 1.74740955-6.08580396 1.74740873-10.8821412V899.95875241zM724.66256253 932.19543817v-64.23234906h9.74933762v9.73728616c2.4825259-4.55531479 4.78428579-7.56808896 6.88117675-9.01422043a11.97879126 11.97879126 0 0 1 6.95348301-2.16919803c3.6514822 0 7.35116941 1.15690567 11.12316366 3.49481827l-3.73584073 10.09881986a15.42540454 15.42540454 0 0 0-7.92962182-2.34996405 10.27958588 10.27958588 0 0 0-6.38708203 2.14509594 11.62930901 11.62930901 0 0 0-4.02506653 5.9532421c-1.20510983 3.86840258-1.80766433 8.11038867-1.80766434 12.70185617v33.62256244h-10.82188559zM807.50180652 908.65964495l10.64111956 1.39792732c-1.15690567 7.37527148-4.1335263 13.14774756-8.9178121 17.32947802-4.80838788 4.16967983-10.68932373 6.25451935-17.66690963 6.25452017-8.74909671 0-15.77488677-2.86816086-21.08942002-8.61653484-5.30248261-5.74837317-7.96577536-13.97927307-7.96577536-24.70475034 0-6.94143237 1.14485422-13.01518569 3.4225112-18.19715707a23.98168378 23.98168378 0 0 1 10.44830127-11.71366672c4.66377457-2.60303714 9.74933762-3.90455529 15.24463853-3.90455529 6.94143237 0 12.6174993 1.77151163 17.02820077 5.3024826 4.41070148 3.51892034 7.23065817 8.53217715 8.47192153 15.02771896l-10.52060751 1.62689832c-1.0002409-4.31429316-2.77175254-7.55603833-5.3265855-9.737287a13.73825144 13.73825144 0 0 0-9.23114082-3.26584725c-5.45914737 0-9.8819003 1.96432911-13.29236004 5.9050371-3.41046057 3.92865738-5.12171658 10.14702402-5.12171659 18.6550991 0 8.62858548 1.6510004 14.89515628 4.94094974 18.7997124a16.02795987 16.02795987 0 0 0 12.87057239 5.8688844c4.25403754 0 7.79705996-1.31356961 10.6531702-3.9286582 2.84405877-2.61508777 4.65172394-6.65220576 5.41094238-12.09930167zM827.41021961 932.19543817v-88.67197485h10.83393704v31.81489728c5.04940952-5.89298647 11.42444009-8.83345441 19.12509173-8.83345441 4.73608163 0 8.84550586 0.93998529 12.32827268 2.81995669 3.49481827 1.86791995 5.98939563 4.45890647 7.49578271 7.77295789 1.50638708 3.30200078 2.25355491 8.09833721 2.2535549 14.38901009v40.70860731h-10.83393621v-40.70860731c0-5.44709592-1.1689563-9.3998562-3.51892036-11.8823821-2.3379126-2.4825259-5.66401548-3.72378928-9.95420654-3.72378928-3.20559165 0-6.21836663 0.84357697-9.05037478 2.50662882a14.14798847 14.14798847 0 0 0-6.04965042 6.80886968c-1.20510983 2.86816086-1.80766433 6.80886968-1.80766516 11.85828003v35.14100016h-10.82188559z" fill="#333333" p-id="2144"></path></svg>