<?xml version="1.0" standalone="no"?><!DOCTYPE svg PUBLIC "-//W3C//DTD SVG 1.1//EN" "http://www.w3.org/Graphics/SVG/1.1/DTD/svg11.dtd"><svg t="1705748152566" class="icon" viewBox="0 0 1024 1024" version="1.1" xmlns="http://www.w3.org/2000/svg" p-id="1968" xmlns:xlink="http://www.w3.org/1999/xlink" width="200" height="200"><path d="M830.75029297 962H193.24970703C120.12470703 962 62 903.87529297 62 830.75029297V193.24970703C62 120.12470703 120.12470703 62 193.24970703 62h637.50058594C903.87529297 62 962 120.12470703 962 193.24970703v637.50058594c0 73.125-58.12470703 131.24970703-131.24970703 131.24970703zM193.24970703 136.99970703c-31.87441406 0-56.25 24.37558594-56.25 56.25v637.50058594c0 31.87441406 24.37558594 56.25 56.25 56.25h637.50058594c31.87441406 0 56.25-24.37558594 56.25-56.25V193.24970703c0-31.87441406-24.37558594-56.25-56.25-56.25H193.24970703z" p-id="1969"></path><path d="M738.87470703 335.75029297h-37.49941406c-15.00029297-33.75-46.87558594-56.25-86.25058594-56.25s-71.24941406 22.5-86.24970703 56.25H285.12529297c-20.62529297 0-35.62558594 16.875-35.62558594 35.62470703v1.87470703c0 20.62529297 16.875 35.62558594 35.62558594 35.62558594H528.875c15.00029297 33.75 46.87470703 56.25 86.24970703 56.25s71.25029297-22.5 86.25058594-56.25h37.49941406c20.62529297 0 35.62558594-16.875 35.62558594-35.62558594V371.375c0-18.74970703-16.875-35.62470703-35.62558594-35.62470703z m0 281.25H495.125c-15.00029297-33.75-46.87470703-56.25-86.24970703-56.25s-71.25029297 22.5-86.25058594 56.25h-37.49941406c-20.62529297 0-35.62558594 16.875-35.62558594 35.62470703v1.87470703c0 20.62529297 16.875 35.62558594 35.62558594 35.62558594h37.49941406c15.00029297 33.75 46.87558594 56.25 86.25058594 56.25s71.24941406-22.5 86.24970703-56.25h243.74970703c20.62529297 0 35.62558594-16.875 35.62558594-35.62558594V652.625c0-18.74970703-16.875-35.62470703-35.62558594-35.62470703z" p-id="1970"></path></svg>