<?xml version="1.0" standalone="no"?><!DOCTYPE svg PUBLIC "-//W3C//DTD SVG 1.1//EN" "http://www.w3.org/Graphics/SVG/1.1/DTD/svg11.dtd"><svg t="1702965972065" class="icon" viewBox="0 0 1024 1024" version="1.1" xmlns="http://www.w3.org/2000/svg" p-id="2892" xmlns:xlink="http://www.w3.org/1999/xlink" width="200" height="200"><path d="M970.667 874.667a32 32 0 0 1-32 32H85.333a32 32 0 0 1-32-32V128a32 32 0 0 1 32-32H384a32 32 0 0 1 22.613 9.387l97.302 97.28h434.752a32 32 0 0 1 31.85 28.928l0.15 3.072z m-64-458.667H117.333v426.667h789.334V416zM370.752 160H117.333v192h789.334v-85.333h-416a32 32 0 0 1-20.267-7.254l-2.347-2.133L370.752 160z" p-id="2893"></path></svg>