<?xml version="1.0" standalone="no"?><!DOCTYPE svg PUBLIC "-//W3C//DTD SVG 1.1//EN" "http://www.w3.org/Graphics/SVG/1.1/DTD/svg11.dtd"><svg t="1702965966018" class="icon" viewBox="0 0 1024 1024" version="1.1" xmlns="http://www.w3.org/2000/svg" p-id="2753" xmlns:xlink="http://www.w3.org/1999/xlink" width="200" height="200"><path d="M33.152 947.456a31.915 31.915 0 0 1-22.741-14.08v-0.213l-0.256-0.427v-0.597a31.915 31.915 0 0 1-4.523-17.067v-759.04A79.573 79.573 0 0 1 85.12 76.544h308.693a32 32 0 0 1 24.576 11.52l109.142 130.944h305.578a79.616 79.616 0 0 1 79.488 79.488V408.96h74.838a32 32 0 0 1 24.746 11.69 32 32 0 0 1 6.656 26.582l-95.53 474.71a32.043 32.043 0 0 1-31.403 25.6H37.077a32.64 32.64 0 0 1-3.925-0.086z m832.512-63.744l82.176-410.88H180.779L78.037 883.712zM69.12 155.862V645.76l51.2-212.48a32.085 32.085 0 0 1 31.147-24.49H848.17V298.324a15.488 15.488 0 0 0-15.488-15.488H512.128a32 32 0 0 1-24.576-11.52L378.368 140.373H84.693a15.488 15.488 0 0 0-15.616 15.488z" p-id="2754"></path></svg>