<?xml version="1.0" standalone="no"?><!DOCTYPE svg PUBLIC "-//W3C//DTD SVG 1.1//EN" "http://www.w3.org/Graphics/SVG/1.1/DTD/svg11.dtd"><svg t="1705371039877" class="icon" viewBox="0 0 1024 1024" version="1.1" xmlns="http://www.w3.org/2000/svg" p-id="2249" xmlns:xlink="http://www.w3.org/1999/xlink" width="200" height="200"><path d="M835.24 953.99H188.78c-24.41 0-44.2-19.79-44.2-44.2s19.79-44.2 44.2-44.2h646.47c24.41 0 44.2 19.79 44.2 44.2s-19.8 44.2-44.21 44.2zM792.9 786.91H231.1c-73.38 0-133.1-59.72-133.1-133.1V203.09C98 129.71 157.72 70 231.1 70h561.8C866.28 70 926 129.71 926 203.09v450.72c0 73.38-59.72 133.1-133.1 133.1z m-561.8-628.5c-24.65 0-44.7 20.04-44.7 44.69v450.72c0 24.65 20.05 44.7 44.7 44.7h561.8c24.65 0 44.7-20.05 44.7-44.7V203.09c0-24.65-20.05-44.69-44.7-44.69H231.1z" p-id="2250"></path><path d="M527.79 556.02c-11.72 0-22.96-4.66-31.25-12.95l-81.82-81.82-53.98 53.98c-17.27 17.27-45.24 17.27-62.5 0-17.27-17.27-17.27-45.24 0-62.5l85.23-85.23c17.27-17.27 45.24-17.27 62.5 0l81.82 81.82 135.47-135.49c17.27-17.27 45.24-17.27 62.5 0 17.27 17.24 17.27 45.24 0 62.5L559.04 543.07a44.197 44.197 0 0 1-31.25 12.95z" p-id="2251"></path></svg>