<?xml version="1.0" standalone="no"?><!DOCTYPE svg PUBLIC "-//W3C//DTD SVG 1.1//EN" "http://www.w3.org/Graphics/SVG/1.1/DTD/svg11.dtd"><svg t="1705371050676" class="icon" viewBox="0 0 1085 1024" version="1.1" xmlns="http://www.w3.org/2000/svg" p-id="2389" xmlns:xlink="http://www.w3.org/1999/xlink" width="211.9140625" height="200"><path d="M1016.04658203 897.79238281V962H62v-64.20761719zM348.2140625 62v803.59277344H62V62z m333.91669922 0v803.59277344H395.91669922V62zM252.80966797 714.90166016h-95.40527344v50.18291015H252.81054687v-50.18291015z m333.91582031 0h-95.40527344v50.18291015h95.40527344v-50.18291015zM920.6421875 614.48925781v100.41328125h-95.40527344V614.48925781z m-667.83251953 25.04355469h-95.40527344v50.27871094H252.81054687z m333.91582031 0h-95.40527344v50.27871094h95.40527344zM872.94042969 62l143.10703125 251.10527344h-95.40527344v251.10527343H825.23867187V313.10527344h-95.40527343zM228.95791016 162.31835937h-47.70175782v376.84863282h47.70175782V162.31835937z m333.91669922 1e-8h-47.70263672v376.84863281h47.70263672V162.31835937z" p-id="2390"></path></svg>