<?xml version="1.0" standalone="no"?><!DOCTYPE svg PUBLIC "-//W3C//DTD SVG 1.1//EN" "http://www.w3.org/Graphics/SVG/1.1/DTD/svg11.dtd"><svg t="1710667940915" class="icon" viewBox="0 0 1024 1024" version="1.1" xmlns="http://www.w3.org/2000/svg" p-id="4777" xmlns:xlink="http://www.w3.org/1999/xlink" width="200" height="200"><path d="M564.8 820.16c18.72 0 39.36 0.48 60 0 17.28-0.48 24-11.04 21.6-30.24-2.4-21.12-3.36-42.24-6.24-63.36-2.4-18.24-6.72-36-10.08-53.76-22.08 49.44-42.72 96.96-65.28 147.36zM77.6 682.4c-4.32 4.32-7.2 13.44-6.72 20.16 2.4 29.76 42.72 72.48 68.64 72.96 5.76 0 12.96-4.8 17.28-10.08 2.88-3.36 2.88-12.48 0.96-17.28-15.36-35.04-31.68-69.6-44.64-97.92-10.56 9.12-23.52 19.68-35.52 32.16z" fill="#FFEC00" p-id="4778"></path><path d="M162.56 713.6c19.68 32.64 19.68 62.88 9.12 96.48-1.44 4.8-2.88 10.08-4.32 14.88-5.76 15.36-0.48 26.88 12.48 30.72 26.4 7.68 52.8 13.44 79.68 18.24 12 2.4 17.76-5.76 20.16-20.16 3.36-17.76 11.04-34.56 15.36-52.32 4.32-15.36 8.16-31.68 10.08-48 1.92-15.84 0.48-32.64 0.48-48.96 1.92 0 3.36-0.48 4.8-0.48 0.96 2.4 3.36 5.28 3.36 8.16 0 20.16 10.56 24.96 25.92 24.96h51.84c20.64 0 38.88-3.36 43.68-31.2 0-0.96 1.92-0.96 3.36-1.92 0.48 19.2 0.48 37.92 0.48 54.72-7.2 1.92-13.44 1.92-18.24 4.32-8.64 4.8-16.8 12-25.44 16.8-12.96 7.2-15.36 18.24-8.64 30.72 11.04 21.6 22.56 43.68 36.96 62.88 14.4 19.68 35.52 15.84 50.4-4.32 6.72-9.6 14.88-17.76 23.04-25.92 19.2-18.72 41.28-34.08 57.6-55.68 34.08-46.08 51.36-102.24 64.32-159.36 2.4-11.04-0.96-17.28-10.08-23.04-11.52-7.68-21.6-18.24-32.64-27.36 1.44-1.92 2.4-3.84 3.84-5.76 29.28 22.08 66.24 28.8 90.72 60.48 7.68 10.08 18.24 18.72 29.28 23.04 33.12 13.92 66.72-16.8 68.64-65.28-11.52 24.96-18.24 57.12-52.32 48.96 5.76 0.96 11.04 2.4 18.72 3.84-24.48 15.36-46.56 2.88-44.64-24.48 1.92-24.96 6.72-49.92 10.08-70.08 36.48 10.08 73.44 22.56 110.88 30.72 63.84 13.44 118.08-22.56 142.56-90.24 19.68-54.24 18.72-110.4 9.6-166.56-3.84-24.48-10.08-49.44-18.72-72-8.16-21.12-18.72-19.68-33.12-2.4-11.04 13.44-23.04 27.36-37.44 36-22.56 13.92-24 12.96-19.68 43.2 4.8 35.52-3.36 68.16-15.84 100.32 1.44-26.88 2.88-53.76 4.32-82.08-33.12 3.36-29.76 36-41.28 54.72-1.92-0.96-3.36-1.44-5.28-1.92 4.32-19.68 8.64-38.88 13.44-58.56-5.76 3.84-14.4 7.68-20.16 13.92-6.24 6.72-10.08 16.32-15.36 24-1.92-1.44-3.36-2.4-5.28-3.84 8.16-12.96 13.92-29.76 24.96-37.92 11.04-8.16 27.36-7.2 42.24-10.08-6.24-19.2-24.48-4.8-35.52-12.96 5.28-2.4 10.56-5.28 15.36-7.68 0-1.92 0.48-4.32 0.48-6.24-7.2-1.44-13.92-2.88-22.08-4.32-0.96-2.4-3.36-7.2-5.76-13.44 7.68-3.84 14.88-8.16 22.56-10.56 7.2-2.4 15.36-1.92 22.56-2.88-16.32-40.32-34.56-57.6-70.08-67.2 0.96-17.76-67.2-78.24-100.8-89.28-67.68-22.08-173.76 20.64-205.44 84.96h40.8c-18.24 6.72-36 11.04-54.24 13.44-18.72 2.4-34.08 10.56-46.56 26.4-27.36 35.04-57.12 68.16-83.04 104.64-18.24 25.44-33.12 54.24-46.56 83.04-4.32 10.08-3.36 27.36 1.44 37.92 9.6 20.16 23.52 37.44 35.52 56.16 13.44-18.24 26.88-36 39.84-53.28 1.44 6.72-0.48 10.56-2.4 14.4-11.04 23.52-23.52 46.08-33.6 70.08-10.08 23.52-7.2 35.52 9.6 53.28 20.64 21.6 45.6 24.96 72 10.08 28.32-15.36 56.16-34.56 86.4-44.16 22.56-7.2 31.68-20.16 31.2-42.24 0-36.96-2.4-73.44-4.8-109.92-1.92-30.72-4.32-60.96 5.28-90.72 2.4 3.36 3.36 6.72 3.84 10.08 4.8 36.48 9.12 72.96 14.4 109.44 5.76 41.28 4.8 81.6-7.68 120.96-1.92 6.24-7.68 14.4-12.96 15.36-36 5.76-66.24 25.92-96.96 44.64-50.4 30.24-77.28 24.48-116.64-21.6-8.64-10.08-12.96-19.68-7.68-32.64 9.12-24.96 2.4-46.08-12.48-66.24-7.2-9.6-12.96-19.68-19.2-29.76-11.04-18.24-12.96-37.44-3.36-57.12 12-24.96 24-49.92 38.4-73.44 13.92-22.56 30.72-42.72 46.56-63.84-19.68 0.96-37.92 4.32-55.2 10.56C179.84 324.8 109.76 433.76 113.6 547.52c2.4 60.48 19.68 116.64 48.96 166.08z m510.24-172.32c-0.48 3.84 0 8.64 0.48 14.4-2.4-2.88-4.8-5.76-7.68-8.64 2.88-1.92 5.28-3.84 7.2-5.76 0.96-14.4 8.16-19.68 22.08-19.68-5.28 4.8-13.44 12-22.08 19.68z m23.52-241.92c0 18.24 13.92 33.6 29.76 34.08-23.04 17.28-46.08 34.08-69.12 50.88a8.608 8.608 0 0 0-3.36-2.4c7.68-9.6 15.36-19.2 23.04-29.28-12.48-12.96-16.8-11.04-24 9.12-3.84-4.32-6.72-8.16-10.56-12.48-3.84 1.92-8.16 3.84-12 5.76-0.96-1.92-1.92-3.36-1.92-3.84 21.12-38.4 36.48-49.92 68.16-51.84z m-58.08-61.92c-9.6 10.08-17.76 16.8-24 25.92-5.76 8.64-10.08 19.68-15.36 30.72-6.72-29.28 7.2-49.44 39.36-56.64zM435.68 305.6v-37.92c-0.96 0-2.4-0.96-3.36-1.44l-38.88 84.48c-0.96-0.48-2.4-0.96-3.36-1.92 8.16-24.96 15.84-50.88 24.96-75.36 8.16-22.08 24-33.12 46.08-33.6 12.96 0 26.4-2.4 40.8-1.44-34.08 7.68-55.2 30.24-66.24 67.2z" fill="#FFEC00" p-id="4779"></path><path d="M61.76 447.2c4.32 12 7.68 24.48 23.04 24 14.4-0.96 24.96-5.28 26.88-25.44-8.16 3.84-14.4 9.12-21.6 10.08-5.28 0.96-12.96-1.44-16.32-5.76-3.36-5.28-5.28-14.4-3.84-20.64 4.32-23.04 10.56-45.6 16.8-72-36 28.32-40.32 42.72-26.4 82.56l1.44 7.2z" fill="#FFE6E6" p-id="4780"></path><path d="M989.6 359.36c-0.48-6.24-1.44-12-2.4-18.24v111.84c5.28-30.72 5.76-62.4 2.4-93.6zM33.44 409.76c0.48 5.76 1.92 11.52 3.36 17.28v-38.88c-2.88 7.68-4.32 14.88-3.36 21.6z" fill="#000000" p-id="4781"></path><path d="M96.8 499.04c0 26.88-0.96 58.08 0.48 88.8 0.96 22.08-4.8 40.32-17.28 56.64-7.68 9.6-17.76 17.28-24 27.84-5.28 8.16-9.6 19.2-9.12 28.8 1.92 31.68 16.32 57.12 38.88 74.4 18.24 14.4 39.84 24 60.96 36-0.96 2.88-3.84 9.6-5.76 16.32-5.76 20.64-1.92 36.48 16.32 45.6 35.04 17.28 72 29.28 110.4 27.36 20.64-0.96 28.8-9.6 33.12-32.16 2.88-14.88 3.84-30.72 8.16-45.12 5.76-19.68 14.4-38.88 22.56-59.52h43.68c-20.64 16.32-21.12 36.48-12 55.2 12.96 26.4 26.88 53.28 44.64 75.84 25.44 32.16 64.8 24 87.36-10.56 11.04-17.28 28.32-30.24 42.72-44.64 1.44-1.44 4.32-1.92 6.24-1.44 27.36 1.92 54.72 5.76 82.56 6.24 34.08 0.96 48.48-19.68 42.24-57.12-3.36-19.68-4.32-39.36-6.72-59.04-1.92-13.92-3.84-28.32-7.2-41.76-4.32-16.8-10.08-33.12-15.36-49.92 12.48 7.68 21.6 17.28 30.72 26.4 40.32 42.24 100.8 6.24 111.84-36 5.76-22.56 14.4-24.48 32.64-22.56 67.68 7.68 128.64-24 157.92-98.4 6.72-17.28 11.52-35.04 14.88-53.28v-111.84c-4.32-30.24-11.04-60-18.24-89.76-5.28-21.6-19.68-34.56-39.84-38.4-19.68-3.84-26.88 12.96-36.96 26.4-8.64 11.52-19.2 21.12-26.4 29.28-20.64-25.92-35.52-48.96-53.76-67.68-23.52-24-49.92-43.68-74.88-64.8-25.44-23.04-52.32-45.6-84.96-49.44-84-11.52-155.52 16.32-210.72 89.28-4.8 6.24-10.08 15.36-15.84 16.32-23.04 3.84-38.4 20.64-53.28 37.92-11.52 12.96-24 19.68-40.32 23.04-88.32 16.32-162.24 58.08-208.32 149.76-7.2 13.92-21.6 23.52-33.12 35.04-0.96-1.44-2.4-2.88-3.36-4.32 2.88-10.08 5.76-19.68 9.12-30.72l11.04 11.04c1.92-0.48 3.36-0.96 5.28-1.44-1.92-27.84-4.32-55.68-6.24-83.52-29.28 7.2-60 33.12-70.08 59.52v38.88c4.32 17.28 12.48 34.56 21.12 48.96 6.72 10.56 23.52 13.92 38.88 22.56z m543.36 227.52c2.88 21.12 3.84 42.24 6.24 63.36 2.4 19.2-4.32 29.76-21.6 30.24-20.64 0.48-41.28 0-60 0 22.08-50.4 43.2-97.92 65.28-147.36 3.36 17.76 7.68 35.52 10.08 53.76zM279.2 292.16c17.28-5.76 35.52-9.6 55.2-10.56-15.84 21.12-32.64 41.28-46.56 63.84-14.4 23.04-26.4 48.48-38.4 73.44-9.6 19.68-7.2 38.88 3.36 57.12 6.24 10.08 12 20.64 19.2 29.76 14.88 19.68 21.6 40.8 12.48 66.24-4.8 13.44-0.48 23.04 7.68 32.64 39.36 46.08 66.72 52.32 116.64 21.6 30.72-18.72 60.96-38.88 96.96-44.64 4.8-0.96 10.56-9.12 12.96-15.36 12.96-39.36 13.92-79.68 7.68-120.96-5.28-36.48-9.6-72.96-14.4-109.44a21.92 21.92 0 0 0-3.84-10.08c-9.12 29.76-7.2 60-5.28 90.72 2.4 36.48 4.8 73.44 4.8 109.92 0 22.08-8.64 35.04-31.2 42.24-29.76 9.6-57.6 28.8-86.4 44.16-26.4 14.4-51.36 11.04-72-10.08-16.8-17.28-19.68-29.28-9.6-53.28s22.08-46.56 33.6-70.08c1.92-3.84 3.84-7.68 2.4-14.4-12.96 17.76-26.4 35.04-39.84 53.28-12-18.72-25.92-36-35.52-56.16-4.8-10.08-5.76-27.84-1.44-37.92 13.44-29.28 28.32-57.6 46.56-83.04 25.92-36.48 55.2-69.6 83.04-104.64 12.48-15.84 27.84-24 46.56-26.4 18.24-2.4 36-6.72 54.24-13.44h-40.8c31.68-64.32 137.76-107.52 205.44-84.96 33.6 11.04 101.76 71.52 100.8 89.28 36 9.6 53.76 26.88 70.08 67.2-7.68 0.96-15.36 0.96-22.56 2.88-7.68 2.4-14.88 6.72-22.56 10.56 2.88 6.24 4.8 11.04 5.76 13.44 8.16 1.92 15.36 2.88 22.08 4.32 0 1.92-0.48 4.32-0.48 6.24-4.8 2.4-10.08 4.8-15.36 7.68 11.04 8.64 29.28-5.76 35.52 12.96-14.4 3.36-30.72 2.4-42.24 10.08-11.04 7.68-16.8 24.96-24.96 37.92 1.92 0.96 3.36 2.4 5.28 3.84 4.8-8.16 9.12-17.28 15.36-24 5.76-6.24 14.4-10.08 20.16-13.92-4.32 19.68-8.64 38.88-13.44 58.56 1.92 0.96 3.36 1.44 5.28 1.92 11.04-19.2 7.68-51.84 41.28-54.72-1.44 28.32-2.88 55.2-4.32 82.08 12.96-32.16 20.64-64.8 15.84-100.32-4.32-29.76-2.88-29.28 19.68-43.2 13.92-8.64 26.4-22.56 37.44-36 13.92-16.8 24.96-18.24 33.12 2.4 9.12 22.56 14.88 47.52 18.72 72 9.12 56.16 10.08 112.32-9.6 166.56-24.48 67.68-78.72 103.2-142.56 90.24-37.44-7.68-74.4-20.16-110.88-30.72-2.88 19.68-8.16 44.64-10.08 70.08-1.92 27.36 20.16 40.32 44.64 24.48-7.68-1.92-13.44-2.88-18.72-3.84 34.08 8.16 40.8-24 52.32-48.96-1.92 48.48-35.52 79.2-68.64 65.28-11.04-4.32-21.6-12.96-29.28-23.04-24.96-31.68-61.92-38.4-90.72-60.48-1.44 1.92-2.4 3.84-3.84 5.76 11.04 9.6 20.64 20.16 32.64 27.36 9.12 5.76 12.48 12 10.08 23.04-12.96 57.6-30.24 113.28-64.32 159.36-15.84 21.6-38.4 36.96-57.6 55.68-8.16 8.16-16.32 16.32-23.04 25.92-14.88 20.16-36 24-50.4 4.32-14.4-19.2-25.44-41.28-36.96-62.88-6.24-12-3.84-23.52 8.64-30.72 8.64-4.8 16.32-12 25.44-16.8 5.28-2.4 11.04-2.88 18.24-4.32 0-17.28 0-35.52-0.48-54.72-1.92 0.96-3.36 1.44-3.36 1.92-4.8 27.84-23.52 31.2-43.68 31.2H339.2c-15.36 0-25.92-4.8-25.92-24.96 0-2.4-1.92-5.28-3.36-8.16-1.44 0-3.36 0.48-4.8 0.48 0 16.32 1.44 32.64-0.48 48.96s-5.76 32.16-10.08 48c-4.8 17.28-12.48 34.08-15.36 52.32-2.4 14.4-8.16 22.08-20.16 20.16-26.4-5.28-53.28-11.04-79.68-18.24-12.96-3.84-18.24-15.36-12.48-30.72 1.92-4.8 2.88-10.08 4.32-14.88 10.56-33.6 10.56-63.84-9.12-96.48-29.76-49.44-46.56-105.6-48.96-166.08-3.36-114.24 66.72-223.2 166.08-255.84z m-121.44 456c1.92 4.8 1.92 13.92-0.96 17.28-3.84 5.28-11.04 10.08-17.28 10.08-25.92-0.48-66.24-42.72-68.64-72.96-0.48-6.72 2.4-15.36 6.72-20.16 11.52-12.48 24.96-23.04 35.04-32.16 12.96 27.84 29.76 62.88 45.12 97.92zM86.72 357.44c-6.72 26.4-12.48 48.96-16.8 72-1.44 6.24 0.48 15.36 4.32 20.64 3.36 4.32 11.04 6.72 16.32 5.76 6.72-0.96 13.44-6.24 21.6-10.08-1.92 20.16-12.48 24.96-26.88 25.44-15.36 0.48-18.72-12-23.04-24a40 40 0 0 1-1.92-7.2c-13.92-39.84-9.6-54.24 26.4-82.56z" fill="#000000" p-id="4782"></path><path d="M461.12 239.84c-22.08 0.48-37.92 11.52-46.08 33.6-9.12 24.96-16.8 50.4-24.96 75.36 0.96 0.48 2.4 0.96 3.36 1.92l38.88-84.48c0.96 0.48 2.4 0.96 3.36 1.44v37.92c11.04-36.96 32.16-59.52 66.72-67.2-14.88-0.96-28.32 0.96-41.28 1.44z m168.96 115.2c3.84-1.92 8.16-3.84 12-5.76 3.36 4.32 6.72 8.16 10.56 12.48 7.2-20.16 11.52-21.6 24-9.12-7.68 9.6-15.36 19.2-23.04 29.28 0.96 0.96 1.92 1.92 3.36 2.4 23.04-16.8 45.6-33.6 69.12-50.88-16.32-0.96-29.76-16.32-29.76-34.08-31.2 1.92-46.56 13.44-67.68 51.84-0.48 0.48 0.96 2.4 1.44 3.84z m43.68 200.64c-0.96-5.76-0.96-10.56-0.48-14.4-2.4 1.92-4.32 3.84-6.72 6.24 2.4 2.4 4.8 5.28 7.2 8.16z m-59.52-292.8c6.24-8.64 14.4-15.36 24-25.92-32.16 7.2-46.08 27.36-39.36 56.16 5.76-10.56 9.6-21.12 15.36-30.24z m58.56 278.4c8.64-7.68 16.8-14.88 22.08-19.68-13.44 0-21.12 5.28-22.08 19.68z" fill="#000000" p-id="4783"></path></svg>