<?xml version="1.0" standalone="no"?><!DOCTYPE svg PUBLIC "-//W3C//DTD SVG 1.1//EN" "http://www.w3.org/Graphics/SVG/1.1/DTD/svg11.dtd"><svg t="1704786000207" class="icon" viewBox="0 0 2048 1024" version="1.1" xmlns="http://www.w3.org/2000/svg" p-id="2008" xmlns:xlink="http://www.w3.org/1999/xlink" width="400" height="200"><path d="M1501.28666666 598.22a54 54 0 0 1-20.52 9.72c-6.03 2.34-14.49 1.17-15.75 8.46s7.29 9.63 13.32 13.23a156.78 156.78 0 0 0 90.45 21.69 114.48 114.48 0 0 0 73.62-27c13.23-10.8 12.06-15.66-3.6-21.69s-33.84-13.23-50.67-19.26c-32.58-14.04-60.39-8.37-86.85 14.85z" p-id="2009"></path><path d="M1839.05666666 634.49c-6.03-3.69-6.03-10.89-7.2-16.92a445.32 445.32 0 0 0-38.61-95.31c-42.3-71.19-106.2-108.54-185.85-124.29-41.04-7.2-48.24-18-45.81-59.13 0-16.83 8.46-33.75 6.03-51.84h-15.66a89.46 89.46 0 0 0-31.41 41.04c-4.86 15.66-8.46 31.32-13.23 45.81s-2.43 30.15-14.49 38.61c-31.41 21.69-59.13 48.24-92.88 66.33a107.01 107.01 0 0 0-4.86-20.52c-1.17-3.6-3.6-7.2-8.46-6.03-20.52 3.69-43.38 50.67-33.75 71.19-27.81 33.84-55.53 67.59-61.56 113.4-4.77 36 9.63 53.1 45.9 43.47a657 657 0 0 1 81.99-15.3 160.65 160.65 0 0 0 47.07-13.32c6.03-2.43 14.49-3.6 15.66-9.63s-8.46-8.46-13.23-12.06-10.89-6.03-9.72-13.23a12.78 12.78 0 0 1 12.06-10.89 77.58 77.58 0 0 0 38.61-19.35c25.38-20.43 51.93-18 78.48-2.34 21.69 4.77 38.61-8.46 60.3-13.32 43.47-14.49 83.25-12.06 119.43 19.35 10.89 9.63 25.38 20.43 26.55 34.92 0 6.03-20.52 13.32-32.58 19.35-3.6 2.43-6.03 3.6-9.63 6.03a34.11 34.11 0 0 0-14.49 23.49c0 4.86-1.17 12.06 3.6 15.66s6.03-6.03 9.63-6.03a77.22 77.22 0 0 1 27.81-2.43 23.76 23.76 0 0 0 25.29-6.03c0.63 14.49 12.24 15.84 22.77 19.35a42.3 42.3 0 0 1 31.5 42.48h3.69c19.26-41.04 15.66-76.05-22.95-102.51z m-371.61 9.63c-51.84 15.66-103.77 19.26-153 33.75a295.47 295.47 0 0 1 81.81-30.87 91.26 91.26 0 0 0 21.78-10.89c25.29-16.11 25.29-16.11 49.41 8.01z m-9.63-57.96c-12.06 20.52-33.75 20.52-53.1 24.12-9.63 1.26-8.46-7.2-6.03-13.23 4.86-18 26.55-32.58 48.24-32.58 6.03 0 14.49-1.17 18 6.03s-4.68 10.89-7.11 15.66zM1752.20666666 548c-10.89-4.77-21.69-12.06-38.61-6.03 19.26 12.06 41.04 15.75 50.67 35.01-27-13.23-53.1-27-84.51-24.12s-56.7 18-84.42 26.55a51.21 51.21 0 0 1-1.17-6.03c15.66-13.32 30.15-27 45.81-39.78 45.9-36 114.66-20.52 143.55 33.75-12.06-7.74-21.69-14.94-31.32-19.35z m42.21 121.86a28.26 28.26 0 0 1-24.12 1.26 33.21 33.21 0 0 0-24.12 0c7.2-18 25.29-24.12 39.78-32.58 7.29-3.6 8.46 9.63 12.06 15.66s3.6 11.61-3.6 15.21z m65.16 36c-14.22-19.98-38.7-15.93-54.45-30.42 28.35-6.3 5.04-26.37 8.55-39.51 31.41 9.36 48.33 34.74 45.99 69.66z" p-id="2010"></path><path d="M344.06666666 525.86v-42.57h-43.65v69.21H166.40666666v-69.21H122.66666666v179.37h43.74v-66.42h134.01v65.43h43.65v-65.43h0.18V552.5h-0.18v-26.64zM578.96666666 588.32a30.24 30.24 0 0 0-17.46-15.84c8.19-3.51 9.99-8.46 14.13-14.85a43.02 43.02 0 0 0 6.03-23.76 45 45 0 0 0-13.68-34.83 54 54 0 0 0-36.99-15.75H361.25666666V661.4h176.58a36.9 36.9 0 0 0 30.78-10.98 48.24 48.24 0 0 0 15.66-37.08 53.37 53.37 0 0 0-5.31-25.29zM401.66666666 526.4h135a5.04 5.04 0 0 1 3.6 4.59v7.74a37.53 37.53 0 0 1-0.72 10.26c-0.9 3.87-4.77 3.78-6.75 3.78H401.66666666z m139.5 94.23a2.7 2.7 0 0 1-2.88 1.08L401.66666666 621.89V593h133.83a9 9 0 0 1 4.32 0.9 6.03 6.03 0 0 1 2.34 3.06v20.97c-0.09 1.17 0.18 1.08-0.99 2.7zM773.45666666 485H645.20666666a43.83 43.83 0 0 0-43.74 43.74v133.2h39.87v-58.41h136.98v58.14h38.88v-133.2A43.83 43.83 0 0 0 773.45666666 485z m4.86 79.38H641.33666666v-28.26a11.7 11.7 0 0 1 11.7-11.7h113.67a11.7 11.7 0 0 1 11.61 11.7zM995.66666666 550.43H881.00666666c-3.51-2.34-3.15-6.39-3.15-10.35 0-7.02-0.99-14.4 13.23-14.4h150.39v-42.3H891.08666666a54.99 54.99 0 0 0 0 109.98h110.52c7.56 1.98 6.93 8.01 6.93 13.77S1009.52666666 620 995.66666666 620H844.91666666v40.5h157.68c30.24 0 47.7-24.66 47.7-54.99A53.01 53.01 0 0 0 995.66666666 550.43zM1256.93666666 525.86v-42.48H1066.76666666v42.48l0.09 26.01h-0.09v42.48h0.09v24.57h-0.09v42.48h190.17v-42.48h-147.6v-24.57h137.79v-42.48h-137.79l-0.09-26.01h147.69z" fill="#BA160C" p-id="2011"></path><path d="M792.35666666 463.22h63v-19.08h-63c-5.13 0-7.65-2.25-7.65-6.84v-29.97c0-4.59 2.52-6.84 7.65-6.84h63v-19.08h-63a26.46 26.46 0 0 0-18.99 7.38 24.66 24.66 0 0 0-7.74 18.54v29.97a24.66 24.66 0 0 0 7.74 18.54 26.46 26.46 0 0 0 18.99 7.38zM1256.57666666 444.14h-68.13V431.9h63.81v-19.17h-63.81v-12.24h68.31v-19.08h-87.48v81.81h87.3v-19.08zM432.89666666 427.85a29.34 29.34 0 0 0 6.03-18.72 30.33 30.33 0 0 0-6.03-18.99 20.34 20.34 0 0 0-17.19-9h-79.29v81.81h19.08v-26.28h60.21a20.43 20.43 0 0 0 17.19-8.82z m-77.4-27h60.21c2.79 0 4.14 2.88 4.14 9s-1.35 8.37-4.14 8.37h-60.21zM1037.15666666 412.73h-49.23v-31.32h-19.08v81.81h19.08V431.9h49.23v31.32h19.08v-81.81h-19.08v31.32zM571.13666666 437.3h62.28v25.92h19.08V406.7a27 27 0 0 0-6.39-18 20.97 20.97 0 0 0-16.83-7.47h-54a20.88 20.88 0 0 0-16.65 7.47 27 27 0 0 0-6.39 18v56.52h19.08z m3.96-36.81h54c2.79 0 4.14 2.07 4.14 6.21v11.43h-62.1V406.7c0-4.14 1.53-6.21 3.96-6.21zM141.92666666 437.3h62.28v25.92h19.08V406.7a27 27 0 0 0-6.39-18 20.97 20.97 0 0 0-16.83-7.47h-54a20.88 20.88 0 0 0-16.65 7.47 27 27 0 0 0-6.39 18v56.52h18.9z m3.96-36.81h54c2.79 0 4.14 2.07 4.14 6.21v11.43h-62.1V406.7c0-4.14 1.35-6.21 3.96-6.21z" fill="#666666" p-id="2012"></path></svg>