<?xml version="1.0" standalone="no"?><!DOCTYPE svg PUBLIC "-//W3C//DTD SVG 1.1//EN" "http://www.w3.org/Graphics/SVG/1.1/DTD/svg11.dtd"><svg t="1704785992022" class="icon" viewBox="0 0 1024 1024" version="1.1" xmlns="http://www.w3.org/2000/svg" p-id="1707" xmlns:xlink="http://www.w3.org/1999/xlink" width="200" height="200"><path d="M591.65 719.9V876.5h38.25v-72h8.1v72h38.7v-156.6H638v58.05h-8.1v-58.05h-38.25z m133.2 0H687.5V876.5h37.35v-156.6z m5.85 0l29.7 156.6h44.55l29.7-156.6h-39.6l-9.9 67.05c-0.9 2.7-3.6 2.7-4.05 0l-9.9-67.05h-40.5z m186.3 0h-74.25V876.5H917v-40.95l-41.4-0.45v-17.55h19.8v-40.95h-19.8v-15.75h41.4v-40.95z" p-id="1708"></path><path d="M515.6 244.7c-6.3-17.1-221.85-100.8-224.55-91.8-39.6 10.35-55.8 55.8-82.8 84.6l-60.3-3.6c-26.55 34.2-40.5 69.3-31.05 105.3C151.1 386 190.7 425.6 215 483.65c1.8 27.45 118.35 2.7 143.55-2.7-34.2 24.3-63.9 62.1-50.85 171.45 11.7 51.3 19.8 108.45 122.85 166.05 13.5 7.65 41.85 16.65 58.95 22.95 16.65 7.65 36 10.8 90.9-5.85 31.95-13.5 66.15-22.05 97.2-35.55l-37.35 1.8c-51.3 0.9-91.35 4.95-103.5-9.45L489.5 710l27.45-53.55c38.25 4.05 50.85 35.1 84.6 46.8l39.6-29.25c115.2 67.95 161.1-43.2 174.15-129.6-1.35-35.1-76.5 11.25-71.55-5.4 1.8-37.8-29.25-87.3-49.05-126l22.95-89.55c10.35-9.45-48.6-108.9-96.75-121.05-41.85-11.25-105.3 42.3-105.3 42.3z" fill="#FDEE21" p-id="1709"></path><path d="M705.05 434.6c0.45 9.45 0.45 21.15 1.35 28.35 0 5.4-4.5 5.85-7.65 6.75l22.5 8.1c4.5 7.65 8.1 14.85 11.7 22.5 4.05 18.45 0.9 18.9-1.8 20.25-8.1 0-16.2 0-23.85-1.35 3.6 1.8 4.05 3.15 4.5 5.4 0.45 4.05-2.25 9.9-6.75 15.75 6.75 3.6 18.9 7.2 27.9 10.8l10.35-22.95c-4.95-33.3-18.9-63.9-38.25-93.6z m41.85 112.5c12.6 5.4 29.7 3.6 53.55-8.55 3.6-2.7 6.75-0.9 0.45 3.15-31.5 27.9-46.35 13.95-54 5.4z" fill="#C8C037" p-id="1710"></path><path d="M802.7 534.95c3.6 7.2 1.35 12.6 0 18.9-4.05 30.6-13.5 54.45-31.95 79.65-60.3 97.2-121.5 36.45-170.1-3.15l-20.25 50.4c-0.9 4.5-5.4 7.65 26.1 21.6l31.95-22.5c122.4 92.7 208.8-130.5 164.25-144.9zM615.5 621.8c-8.1 0.45-32.85 9-33.75 13.95l11.25-16.65 22.5 2.7z m-16.2-103.05c1.35 0 8.55 1.8 8.1 1.35-0.9-0.45 0 10.35 2.25 15.75l-9 19.35c17.1-19.35 43.65-18.45 68.4-20.7l-11.7-7.2c2.25-6.75-0.45-12.15-1.35-18l-56.7 9.45z m41.85-58.05c-18 5.4-35.55 14.85-47.25 34.2 9-31.95 10.8-30.6 13.5-32.4 12.6-5.85 22.95-2.25 33.75-1.8z" fill="#C8C037" p-id="1711"></path><path d="M543.95 835.55c-22.05 24.3-71.1-1.8-111.6-15.3-103.5-65.7-123.75-127.8-125.1-188.55-5.4-87.3 21.6-137.7 55.35-149.85-22.5 43.2-32.85 120.6-22.5 178.2 8.55 31.95 8.55 85.95 62.1 115.2 26.1 14.85 19.35 26.1 36.9 40.05 19.35 15.3 73.8 29.7 104.85 20.25z m32.85-402.3c-37.35-52.65-89.55-72.45-148.5-74.7 11.7-4.05 23.85-5.85 35.55-11.7 2.7-3.15 1.8-8.55 0.9-13.95-56.7-14.85-92.7-33.3-138.15-50.4L449 312.2c82.8 3.15 75.6 23.85 127.8 121.05z" fill="#FCF6A0" p-id="1712"></path><path d="M616.85 407.6c-27.45-39.15-54-86.85-90.45-117.45C439.1 251 352.25 221.75 251 195.2l32.4-41.4C390.95 178.55 491.75 219.5 582.2 287c15.75 38.7 25.65 77.4 34.65 120.6z m55.35-69.3s-15.3-34.65-22.95-47.7c-17.55-19.35-26.1-55.35-62.1-72.45 11.25 3.15 18.9-0.45 41.85 20.25l36.45 68.85 6.75 31.05z" fill="#FCF6A0" p-id="1713"></path><path d="M691.55 398.15c3.6-30.15 10.35-77.85 2.7-97.2-21.6-28.8-43.2-58.95-64.8-86.4-3.6-3.15-6.3-8.1-9-11.25 30.6 8.1 62.55 29.25 105.3 112.95l-34.2 81.9z" fill="#FCF6A0" p-id="1714"></path><path d="M562.85 401.75c-12.15-9.45-22.95-43.2-41.4-50.4-17.1-1.35-23.4-6.75-45.9-2.25 8.1-4.05 15.75-9.45 24.3-12.15 5.85-1.35 11.25 0 17.1 0.9 1.35-0.45 2.25-1.35 1.8-2.7-22.5-13.95-68.85-13.95-100.35-22.05 36.45 1.35 76.5-0.9 103.95 8.1 22.05 19.35 29.25 56.25 40.5 80.55z m66.6-163.35c4.95 0.45 31.95 43.2 33.3 50.4 2.25 15.75 7.65 32.85 9.45 49.5-4.5-15.75-9.45-31.5-15.3-46.8-1.8-4.5-6.3-13.95-18.9-27.9-5.85-9.9-7.2-17.55-8.55-25.2z m91.8 233.55h-11.7l12.6 3.15-0.9-3.15z m-79.2-11.25c-11.7-1.35-23.4-1.8-35.1 0.9-4.95 6.3-4.95 13.05-7.2 18.9 13.95-15.75 19.8-16.65 42.3-19.8z m159.3 80.55c-6.3 4.95-7.2 9.9-26.55 15.75-13.95 3.15-22.05-2.25-28.35-9.9 9.9 2.7 11.7 10.35 38.25 1.8l16.65-7.65z m-58.05 3.15c-4.5 13.05-9.9 25.65-14.85 37.8-12.15 14.4-6.75 6.3-25.2 27.9 5.85-9 13.5-17.55 17.1-27 2.7-6.3 6.3-12.6 7.65-18-4.95-2.25-14.4-2.7-15.75-1.8-16.2 9.45-18.9 19.35-28.35 29.25 6.75-10.8 12.6-22.95 20.7-32.85 0.9-1.35 6.75-1.35 10.35-2.25-5.85-0.9-16.2-3.15-17.1-2.7-10.35 2.7-16.2 11.7-24.3 17.55 5.85-8.1 10.8-16.65 18-23.85 0.9-0.9 20.25 0.9 30.15 4.95v4.05l5.85 2.25 4.5-10.8 11.25-4.5z m-127.35 77.4c-2.7-0.9-25.65-4.05-25.65-3.15-9 6.3-9.9 12.15-9.9 17.55 14.4-14.4 13.95-14.4 35.55-14.4z m-17.55-103.5s16.65-2.25 16.2-0.9c-1.35 5.85 2.25 19.8 2.25 17.55l-9.45 7.65c19.35-9.9 40.05-7.65 60.75-9.45 0 0-17.55-4.95-16.2-4.95 4.05-0.45-0.9-18-2.25-18.45 3.15-0.9 6.75-1.8 9.9-2.7-25.2-6.3-39.6-2.7-61.2 11.25z" p-id="1715"></path><path d="M741.05 530.9l-3.6 1.8c-0.45-10.8-12.15-9.9-21.6-9.9l-8.1-1.8c2.25 2.25 9.9 2.25 6.75 6.75-2.7 1.35-3.6 7.2-4.95 12.15h-4.5c7.65 3.15 14.85 5.4 22.95 9l4.95 0.9 11.7-6.3-3.6-12.6z" p-id="1716"></path><path d="M631.7 523.25c-1.8-3.6-11.25-3.15-13.05-0.9-1.8 1.8 0 14.4 1.8 12.15 3.15-2.7 7.2-3.6 11.7-3.6 0.9-2.25 0.45-4.95-0.45-7.65z m89.55 18.45c0.9-0.45 2.7-6.75 2.25-8.55-1.35-4.5-9.9-3.6-9.9-3.6-2.25 1.35-4.05 8.1-3.15 10.35 0.45 2.25 9.45 2.7 10.8 1.8z" fill="#FFFFFF" p-id="1717"></path><path d="M350 756.35l5.4 0.45c32.4 15.75 85.95 39.6 163.8 27l12.15 19.35c-34.2 16.65-71.1 12.6-105.3 13.95L350 756.35z m-46.8-126.45l16.2 68.4c43.65 27.45 118.35 58.5 180.45 55.8l-13.95-31.5c-129.6-27-140.4-62.1-182.7-92.7z m40.5-139.95c8.1 53.1 18.45 93.15 64.8 126.9 28.35 20.25 56.25 40.5 90.45 57.15 0 0-3.15 15.75-5.4 15.3-101.7-11.25-175.95-95.4-184.95-134.1 8.55-29.25 21.15-47.7 35.1-65.25z m48.6-30.15c13.5 58.95 45.9 118.35 77.85 172.35 11.7 14.85 14.85 21.6 32.85 30.6 24.3 7.65 41.85 5.85 59.4 4.5-4.95-9-9-18.45-14.85-27-39.6-31.5-21.6-60.3-10.8-78.3-22.05-5.4-51.3-17.55-55.35-33.3-6.3-50.4-2.7-66.15 3.6-92.25-29.7 6.3-60.3 12.6-92.7 23.4z" p-id="1718"></path><path d="M282.5 147.5c-9.9 6.3-19.35 15.75-29.7 26.1-17.1 17.55-28.35 34.65-45.45 47.25-3.6 3.15-13.05 7.65-25.2 8.55-5.85 0.45-9.45 1.35-19.8 0-9.45-4.95-18-1.8-26.55 8.55-9.45 13.5-21.6 39.15-26.55 55.8C98.9 334.7 125 368.9 150.2 395c22.5 21.6 35.1 35.55 44.1 55.35 6.75 13.05 12.15 30.6 17.55 43.2 1.8 4.05 1.8 4.05 7.2 4.95 11.7 2.7 27.9 2.7 42.3 3.6 6.3 0 14.85 0 22.95-0.9 11.25-2.25 24.3-4.05 35.1-8.1 10.8-2.7 20.25-6.3 28.8-9.45-0.9 3.6-9.45 7.2-12.6 12.15-29.25 41.85-37.35 79.2-31.95 137.7 2.7 26.1 9 47.7 18 72.45 4.05 11.25 13.05 29.25 21.15 40.95 25.2 35.55 81 80.55 158.85 98.1 13.5 1.8 28.8 0.9 43.65-3.15 38.25-11.7 117-39.15 117-39.15s-69.75 5.85-101.25 2.7c-7.2-1.35-15.3-1.35-20.7-6.75-0.9-0.9-4.05-7.2-1.8-7.65 2.7 0 10.8-3.15 22.95-4.5-26.1-2.7-25.65-2.7-27.45-7.65-3.6-9-7.65-17.55-12.15-26.1 11.25 0.9 36.9 2.25 45.45-6.3 0 0-14.85 1.8-28.35 0-4.5-0.45-12.15-3.15-14.4-4.05-5.85-2.25-10.8-3.15-12.15-4.5-2.25-5.4-3.6-7.2-5.85-13.95-3.6-9.45-3.6-19.8-4.5-29.25 8.55 10.8 19.8 19.8 34.2 24.3 0-0.45 18.9 8.1 32.85 3.6l2.7-0.9c0 0.45-9 0.9-12.6-0.9-27.9-11.7-31.95-22.05-36.45-27.45l-12.15-18c3.6-7.2 5.85-7.65 10.35-7.65 14.4 1.8 21.15 2.7 29.7 0.9 5.85 12.6 7.65 24.75 21.15 33.75 45.45 13.5 55.35-4.05 66.6-19.35 32.85 24.3 86.4 31.5 123.3 0.45 47.25-54.45 62.1-140.4 58.05-145.35-5.85-9.9-13.5-20.25-20.25-18.9-23.85 6.3-32.4 18.45-55.8 15.75 2.7 0 7.65 0 7.65-0.45 1.8-19.8 0-29.25-0.9-31.05-7.2-15.75-16.65-32.4-22.95-44.55-1.8-2.7-6.75-22.05-14.85-29.7-3.6-3.15-12.15-10.8-12.15-10.8l-0.9 8.55s3.6 0.45 4.5 5.85c4.95 19.8 29.7 67.05 31.5 69.3 9 14.4 0.9 31.95 7.65 41.85 0.45 1.35 13.5 0 23.85 0.45 16.65-3.6 15.75-10.8 30.15-12.15 9.9-0.9 10.8 17.55 10.35 18.9-1.8 20.25-8.1 43.2-17.1 64.8-19.35 37.35-40.95 71.1-72 75.6-37.8 6.75-57.15-9.9-77.4-20.25l-7.65 6.75c-26.55 26.55-58.05 23.85-70.65-10.35-6.3-13.5-14.85-21.6-22.05-32.85l-37.8 27.45c-3.15 6.3-7.2 16.65-11.7 27.9-3.15 8.1-5.85 21.6-5.85 32.85-4.95 8.1 16.65 41.85 30.6 62.1 4.05 5.85 11.7 16.65 11.7 17.1 2.7 7.2 8.55 13.5 9 13.95 25.65 33.3-31.95 25.65-44.1 23.4-23.4-3.6-46.35-13.5-67.95-26.55-1.35-0.9-2.7-1.35-3.6-2.25-25.65-16.2-49.05-36.9-69.3-57.15-12.15-13.5-23.4-41.4-31.95-60.75-12.6-47.25-30.6-129.15 18.45-191.25 3.15-3.6 6.3-9.45 9.45-10.8 14.4-9.9 30.6-16.65 47.25-20.25l-1.8-10.8c-8.55 1.8-36.9 12.6-45 16.65-18.45 5.4-33.75 10.8-57.15 16.65-7.65 0.9-14.85 0.9-22.5 0-16.65-2.25-45.45-0.45-47.25-1.8-11.25-15.75-14.4-44.55-24.75-59.85-6.3-8.1-13.05-14.85-20.25-21.6-24.75-24.75-46.35-48.6-52.2-74.25-1.35-7.65-5.4-15.3-3.15-37.35 5.85-20.7 15.75-37.8 32.4-54.45 17.1 0.45 34.2 0.45 47.7 3.15 6.3 0.9 18.9 2.7 31.95 7.65 33.3 12.15 76.95 32.85 76.95 32.85-32.85-18-69.75-41.4-92.7-46.35-3.6-0.45-5.4-2.25-6.75-4.95 35.1-20.7 41.4-44.55 64.35-66.15 10.35-4.5 14.4-6.75 23.4-7.65 82.35 13.05 134.55 45.9 175.5 67.95 16.65 9 31.95 15.75 46.35 24.3 12.6 4.05 50.85 32.85 62.1 48.6 11.25 23.85 19.8 49.95 27.45 75.15 5.4 25.65 10.35 36 10.35 36s-4.5-21.15-4.05-25.2c4.95 1.8 16.2 5.4 20.7 4.95 0 0-21.15-10.8-23.85-20.25-9-30.6-17.55-78.75-20.25-81-6.75-8.55-34.65-29.7-51.75-39.6-6.3-3.6-9.9-6.3-10.35-7.65 5.4-5.4 12.15-13.05 18.45-17.55 5.85-4.5 11.25-9.45 19.35-12.6 35.55-16.2 56.25 6.3 60.75 1.8 0 0-7.65-9-4.05-7.2 3.6 1.8 14.85 4.05 16.2 5.4 13.05 10.35 47.25 47.25 67.5 86.85 4.95 9.45 6.75 15.75 4.5 27.45-2.25 11.7-4.05 18-6.75 25.65-2.25 4.95-14.85 40.5-14.85 45.45-2.7 19.35 8.55 43.65 8.55 43.65 0-6.75-0.45-10.35 0-14.85l0.9-8.55s-0.45-2.25-0.45-3.15c0.45-5.85 1.8-10.8 2.25-13.95 4.05-25.2 11.25-43.65 19.35-66.15 2.25-5.4 5.4-8.55 5.4-13.05 0-7.65-6.75-17.55-11.7-27.9-5.4-11.25-11.7-22.5-18.45-33.3-17.55-25.65-32.85-45.45-60.3-58.05-7.65-3.6-38.25-6.75-48.6-4.95-12.6 2.7-23.85 5.4-32.4 10.8-13.95 9-24.75 22.5-37.35 30.6-27.9-13.95-41.4-24.75-44.1-26.1-16.65-9-36.9-19.35-58.05-29.25C405.35 175.4 341.45 152 282.5 147.5z m359.1 523.8c-17.1-13.5-31.95-27.45-41.4-41.85-3.15 16.65-14.4 28.8-23.4 40.5-1.8 2.7-3.15 6.75 5.4 18.45 2.25 3.15 10.8 3.6 16.2 3.6-5.85-4.5-14.4-9-15.75-13.05 10.35 6.75 19.35 9 27.9 7.65 1.8 0 4.5-2.25 6.3-5.4 3.6-8.1 6.75-9.9 9.9-12.15l6.75 8.55 8.1-6.3z" p-id="1719"></path></svg>