<?xml version="1.0" standalone="no"?><!DOCTYPE svg PUBLIC "-//W3C//DTD SVG 1.1//EN" "http://www.w3.org/Graphics/SVG/1.1/DTD/svg11.dtd"><svg t="1702965029090" class="icon" viewBox="0 0 1024 1024" version="1.1" xmlns="http://www.w3.org/2000/svg" p-id="1777" xmlns:xlink="http://www.w3.org/1999/xlink" width="200" height="200"><path d="M122.01875 122.01875v779.9625h779.9625V122.01875H122.01875zM112.00625 62H911.9375c27.61875 0 50.00625 22.3875 50.00625 50.00625V911.9375c0 27.61875-22.3875 50.00625-50.00625 50.00625H112.0625A50.00625 50.00625 0 0 1 62 911.99375V112.0625C62 84.3875 84.3875 62 112.00625 62zM474.875 599.975l-46.575-46.575a56.25 56.25 0 0 1 0-79.59375l46.575-46.575-72.675-72.73125L243.125 513.575l159.075 159.13125 72.73125-72.73125z m39.76875-39.76875l46.63125-46.63125-46.63125-46.575-46.575 46.575 46.575 46.63125z m0-172.74375l72.73125-72.73125a56.25 56.25 0 0 1 79.59375 0l159.075 159.075a56.25 56.25 0 0 1 0 79.59375L666.96875 712.475a56.25 56.25 0 0 1-79.59375 0l-72.73125-72.73125-72.675 72.73125a56.25 56.25 0 0 1-79.59375 0L203.35625 553.4a56.25 56.25 0 0 1 0-79.59375L362.375 314.73125a56.25 56.25 0 0 1 79.59375 0l72.675 72.73125z m39.825 39.76875l46.575 46.575a56.25 56.25 0 0 1 0 79.59375l-46.575 46.575 72.675 72.73125 159.13125-159.13125L627.2 354.5l-72.675 72.73125z" p-id="1778"></path></svg>