<?xml version="1.0" standalone="no"?><!DOCTYPE svg PUBLIC "-//W3C//DTD SVG 1.1//EN" "http://www.w3.org/Graphics/SVG/1.1/DTD/svg11.dtd"><svg t="1710667913808" class="icon" viewBox="0 0 1024 1024" version="1.1" xmlns="http://www.w3.org/2000/svg" p-id="3648" xmlns:xlink="http://www.w3.org/1999/xlink" width="200" height="200"><path d="M331.4 673.7c0.5 0.4 1 0.8 1.6 1-1.3-0.9-1.9-1.3-1.6-1z m628.1 92.5s-17.9-37.8-52.8-63.6c-27.4-20.2-10.8-304.4-387.5-358.3 0 0-54.8 5.8-23.5-161.8h-5.9s-65.6-17.3-99.8 179.2c0 0-294.5 166.6-322.9 346.8 0 0-36.2 106.9 135 46.2 0 0 127.2-16.4 164.4-40.5 0 0-66.5-29.9-35.2-46.2 0 0 19.6-6.7 41.1-17.3 0 0 35.2-21.2 64.6-40.5 0 0 78.3-9.6 105.7 17.3 0 0 162.4-78 252.4 0 0 0 40.1 30.8 52.8 57.8 12.7 27 19.6 45.3 23.5 57.8l-5.9 5.8s-15.7-38.5-23.5-57.8c0 0-12.7 2.9-29.4 17.3 0 0-83.2 28.9-52.8 75.1 0 0 46-19.3 76.3-11.6 0 0 21.5-5.8 23.5-11.6 0 0 0 9.6 5.9 17.3 0 0 66.5 16.4 76.3 63.6 0.1 0.1 21.6 12.6 17.7-75z m-722.1-92.5l5.9 5.8-5.9 11.6h-11.7s-4.6-3.4-5.9-5.8c-1.2-2.4 17.6-11.6 17.6-11.6z m105.7 40.5c-4.9 4.9-58.7 23.1-58.7 23.1-29.5-1.6-117.4 17.3-117.4 17.3-66.1 25.6-78.2 4-70.4 5.8 7.8 1.8 41.1-5.8 41.1-5.8 14.8-22.4 70.4-28.9 70.4-28.9 44.5-2.6 93.9-46.2 93.9-46.2l41.1 34.7z m-105.7-52c15.7-86.6 105.7-57.8 105.7-57.8-18.7 72.9-105.7 57.8-105.7 57.8z m493.2-98.3s49.6 22 76.3 57.8c0 0-92.3-68.4-193.7-28.9 0 0-64.9 39.8-76.3 17.3 0 0 94.6-87.4 146.8-86.7 52.2 0.7 118.6 9.4 152.6 86.7-0.1 0-79.5-70.4-105.7-46.2z m105.6 196.5c-13-0.2-32.5-2.7-41.1-5.8-8.6-3.1-23.5 5.8-23.5 5.8-11.7-15.3 58.7-52 58.7-52 13.1-5.4 22.3 30.6 23.5 34.7 1.2 4-17.6 17.3-17.6 17.3zM947.8 824c-15.3-27.9-64.6-46.2-64.6-46.2-29.5-3.7-11.7-17.3-11.7-17.3 4.7 0.5 11.7-5.8 11.7-5.8-7.1-13.4-11.7-52-11.7-52 88.1 22 76.3 121.3 76.3 121.3zM466.4 615.9c-45.2 5.8-115.6 66.8-133.4 58.8 11.1 7.6 74.1 51.6 109.9 51 0 0 82.1-3.3 99.8 0 0 0 72.4-24.1 82.2-63.6 0 0.1-130.8-47.2-158.5-46.2z m-229-156l-17.6-34.7c-60.7 23.6-58.7 104-58.7 104 7.4-16.4 76.3-69.3 76.3-69.3z" p-id="3649"></path></svg>