<?xml version="1.0" standalone="no"?><!DOCTYPE svg PUBLIC "-//W3C//DTD SVG 1.1//EN" "http://www.w3.org/Graphics/SVG/1.1/DTD/svg11.dtd"><svg t="1710667910502" class="icon" viewBox="0 0 1344 1024" version="1.1" xmlns="http://www.w3.org/2000/svg" p-id="3509" xmlns:xlink="http://www.w3.org/1999/xlink" width="262.5" height="200"><path d="M325.72216574 699.6483092C353.49837372 639.8793927 430.29141727 581.6916637 454.00924131 572.67889099c23.71782404-9.80336728 58.82020368-31.940003 138.09044365-49.96555005 80.11353928-18.81614081 156.11598907-45.01115964 202.70833704-105.67608343 47.38294171-59.76891733 98.87697373-167.92219555 98.87697373-167.92219474S947.60351617 145.91617413 1014.6458988 128.73392801c66.9896771-18.02554624 102.93535684-15.54835144 120.11760297-23.71782404 17.92013351-8.22217896 17.12953976-9.85607363 36.78898068-13.96716312 19.60673456-4.11108948 25.29901236 19.65944092 25.29901236 19.65944092s2.4771948 36.05109247-6.53557791 59.82162369c-8.96006717 23.71782404-36.78898069 55.65782703-63.77459409 78.58505731-27.72350078 22.97993664-64.51248147 62.29881848-72.73466043 130.28991394-8.11676623 67.99109629-26.88020068 135.98219174-26.88020068 135.98219175l-33.57389768 140.88387578s-20.39732913 106.46667719 40.90007016 141.67447038c-19.60673456 30.3061083-117.69311453 43.42997131-147.94651731-18.81614081-54.76182055 21.2933356-57.97690357 86.01664252-93.13198955 108.94387198-35.99838611 22.92723028-93.18469592 50.7561438-150.37100491 45.063866 51.44132566-74.57938056 67.8329772-123.70162967 67.8329772-123.70162968s-200.28384861-38.47558173-259.89464685-26.24772518c-59.66350461 12.33326843-65.35578241 17.23495249-119.32700922 58.187729-53.91852044 41.79607663-87.43971176 64.72330691-151.16159949 64.72330691-63.77459408 0-70.310172-9.01277353-72.73466043-23.77053039-2.4771948-14.75775686 39.21346912-43.42997131 39.21346912-43.42997213s-35.15508599 2.4771948-43.32455859-6.53557792C95.23762155 823.34993969 90.3359375 818.44825564 90.3359375 818.44825564s24.50841861-39.31888184 80.11353928-42.5866712c57.97690357-3.32049573 95.60918436-8.22217896 95.60918518-8.22217895s31.8345911-8.16947259 59.66350378-67.99109629zM1009.69150922 204.94720325s15.54835144 20.50274103 39.26617547 2.47719479c24.50841861-17.18224612 13.8617504-38.47558173 13.8617504-38.4755809s-18.76343445-2.4771948-35.10237964 7.37887803c-15.54835144 8.96006717-18.02554624 28.61950808-18.02554623 28.61950808zM1126.59402917 141.0144909c-20.45003467 26.19501883-28.61950808 39.31888184-41.6906639 71.25888483-4.11108948 14.75775686 1.63389468 6.53557791 4.11108947 2.4771948 6.53557791-22.92723028 28.56680173-55.71053338 41.63795756-72.89277951 8.16947259-8.22217896 1.63389468-8.22217896-4.05838313-0.84330012z m5.69227781 6.53557792c-20.39732913 26.24772519-28.56680173 49.96554922-34.25907953 67.99109628 0 11.48996832 1.58118833 6.58828428 4.05838312 3.26778854 1.58118833-18.81614081 19.60673456-51.5994439 33.46848577-68.78169003 7.37887884-7.37887884 2.4771948-9.01277353-3.26778936-2.47719479z m4.90168405 5.79769052c-19.60673456 32.67789121-20.39732913 51.54673755-22.87452393 67.14779535 0 11.43726196 2.4771948 4.05838312 4.90168323 0.79059457 0.84330011-18.02554624 8.96006717-45.063866 21.24062924-64.72330692 7.37887884-7.37887884 2.4771948-9.80336728-3.26778854-3.26778936z m5.74498416 4.84897686c-17.18224612 36.05109247-13.07115665 49.17495547-15.54835144 64.72330692 2.4771948 5.74498416 2.4771948 1.63389468 4.90168323-1.58118833 0.84330011-18.07825259 1.63389468-39.37158819 13.91445675-59.03102828 4.90168405-6.53557791 2.42448843-11.43726196-3.26778854-4.11109031z" p-id="3510"></path></svg>