<?xml version="1.0" standalone="no"?><!DOCTYPE svg PUBLIC "-//W3C//DTD SVG 1.1//EN" "http://www.w3.org/Graphics/SVG/1.1/DTD/svg11.dtd"><svg t="1710667892975" class="icon" viewBox="0 0 1434 1024" version="1.1" xmlns="http://www.w3.org/2000/svg" p-id="2948" xmlns:xlink="http://www.w3.org/1999/xlink" width="280.078125" height="200"><path d="M112.21770833 353.0375h333.1125l39.99375-73.9125c17.296875-30.20625 30.88125-52.14375 40.753125-65.8125a555.1875 555.1875 0 0 1 59.0625-67.5C604.03958333 128.009375 658.37708333 90.125 728.07083333 90.125c69.609375 0 107.83125 36.028125 131.625 55.6875 23.625 19.659375 44.296875 48.9375 59.23125 67.5 15.01875 18.5625 53.915625 84.7125 64.4625 103.78125 7.0875 12.65625 14.5125 26.15625 22.359375 40.584375H1293.46770833v69.01875h-171.534375c-37.209375 0-78.13125 8.690625-70.03125 25.396875 7.93125 16.70625 9.45 17.2125 33.328125 65.8125 15.946875 32.484375 30.290625 62.26875 43.03125 89.353125 13.246875 16.70625 28.771875 25.059375 46.74375 25.059375h111.965625v76.190625a3843.028125 3843.028125 0 0 0-274.471875 2.86875c-119.1375 6.159375-155.840625 10.29375-239.625 25.565625-83.53125 15.1875-156.178125 47.25-203.175 67.8375-46.9125 20.671875-120.825 58.89375-159.46875 75.346875-38.8125 16.5375-69.1875 25.14375-110.19375 35.775-27.3375 7.0875-89.94375 10.546875-187.81875 10.29375v-79.3125c60.75 1.096875 104.2875 0 130.78125-3.20625 39.740625-4.809375 90.28125-23.203125 143.1-53.578125 52.81875-30.375 163.18125-84.965625 208.40625-100.575 45.309375-15.525 101.25-33.75 138.459375-43.03125 37.209375-9.28125 89.184375-17.465625 120.4875-20.840625 20.840625-2.3625 77.625-6.91875 170.60625-13.8375-59.0625-122.428125-96.01875-197.353125-110.953125-224.60625-22.44375-40.921875-55.096875-94.584375-82.35-130.359375-27.16875-35.690625-57.54375-70.36875-102.684375-70.36875s-79.3125 26.83125-103.696875 57.796875c-24.3 30.965625-125.55 211.190625-139.05 233.465625-13.584375 22.190625-69.69375 107.915625-116.26875 142.7625-46.575 34.93125-80.409375 50.9625-95.090625 55.096875-14.68125 4.21875-37.125 10.546875-56.7 13.921875-12.99375 2.278125-48.09375 3.796875-105.046875 4.471875v-77.709375c42.1875 0 71.71875-1.51875 88.846875-4.471875 25.734375-4.3875 95.85-44.8875 123.1875-74.671875 27.3375-29.784375 53.49375-71.38125 58.05-80.409375 4.640625-8.94375-6.496875-20.5875-28.6875-24.46875-22.10625-3.965625-63.1125-5.56875-90.1125-5.56875H112.21770833v-73.659375z" fill="#188FFF" p-id="2949"></path></svg>