<?xml version="1.0" standalone="no"?><!DOCTYPE svg PUBLIC "-//W3C//DTD SVG 1.1//EN" "http://www.w3.org/Graphics/SVG/1.1/DTD/svg11.dtd"><svg t="1710667905928" class="icon" viewBox="0 0 1100 1024" version="1.1" xmlns="http://www.w3.org/2000/svg" p-id="3369" xmlns:xlink="http://www.w3.org/1999/xlink" width="214.84375" height="200"><path d="M684.14765117 521.06040283c-18.12080567 6.04026826-36.24161045 12.08053652-48.32214785 24.16107393v-30.20134218c-24.16107393 6.04026826-42.28187959 6.04026826-54.36241611 12.08053651 0 0-6.04026826 0-12.08053653 6.04026826 6.04026826 24.16107393 6.04026826 48.32214786 6.04026826 78.52349005 0-6.04026826 6.04026826-6.04026826 12.08053653-12.08053653V653.94630898c-6.04026826 6.04026826-12.08053652 12.08053652-24.16107393 12.08053652-6.04026826 18.12080567-6.04026826 42.28187959-12.08053652 60.40268439-12.08053652 36.24161045-30.20134219 84.5637583-60.40268437 144.96644355h60.40268437c12.08053652 0 24.16107393-6.04026826 36.24161045-12.0805374V913.67785214c-12.08053652 6.04026826-24.16107393 6.04026826-36.24161045 6.04026827-24.16107393 0-54.36241612 0-78.52349004-6.04026827v6.04026827l-12.08053652-6.04026827C267.36912792 901.59731563 62 835.15436211 62 744.55033555c0-30.20134219 24.16107393-54.36241612 60.40268437-84.56375831 42.28187959-30.20134219 108.72483222-60.40268437 193.28859053-90.60402656 90.60402656-163.08724834 90.60402656-277.85234883 0-350.3355706-42.28187959-6.04026826-66.44295263-18.12080567-78.52349003-48.32214786-12.08053652-36.24161045 36.24161045-60.40268437 114.76510136-84.56375829C418.37583887 62 478.77852324 55.95973174 502.93959717 68.04026826c24.16107393 12.08053652 48.32214786 60.40268437 96.6442957 144.96644356H605.62416113c259.73154404 54.36241612 434.89932891 120.80536875 422.8187915 187.24832138-6.04026826 30.20134219-36.24161045 42.28187959-108.72483222 54.36241612 0 0-114.76510049 18.12080567-151.00671094 24.16107392-30.20134219 6.04026826-60.40268437 12.08053652-84.5637583 18.12080567v24.16107392z m-241.61073838 350.33557061c30.20134219-72.48322177 54.36241612-120.80536875 60.40268438-151.00671182 0-6.04026826 6.04026826-18.12080567 6.04026825-24.16107392-42.28187959 18.12080567-78.52349003 30.20134219-120.80536874 42.28187959-18.12080567 36.24161045-42.28187959 72.48322177-72.48322178 114.76510048l126.84563789 18.12080567z m-175.16778486-36.24161133c18.12080567-24.16107393 36.24161045-54.36241612 54.36241611-84.5637583-54.36241612 12.08053652-108.72483222 30.20134219-163.08724834 42.28187958 24.16107393 18.12080567 60.40268437 30.20134219 108.72483223 42.28187872zM116.36241612 750.59060381c90.60402656-18.12080567 175.16778487-42.28187959 241.61073838-60.40268438 18.12080567-36.24161045 30.20134219-72.48322177 36.24161044-102.68456396-18.12080567 12.08053652-36.24161045 18.12080567-54.36241611 24.16107393-78.52349003 30.20134219-144.96644268 60.40268437-187.24832227 90.60402656-30.20134219 18.12080567-42.28187959 36.24161045-42.2818787 48.32214785 0-6.04026826 0 0 6.04026826 0z m326.17449667-175.16778487c0 30.20134219-12.08053652 60.40268437-24.16107392 96.64429483 36.24161045-12.08053652 66.44295263-24.16107393 102.68456396-36.24161045V551.26174502c-6.04026826 0-18.12080567 6.04026826-24.16107392 6.04026826l-54.36241612 18.12080566zM472.73825498 110.32214786c6.04026826 0 0 0 0 0-12.08053652 0-18.12080567 0-30.20134219 6.04026826-24.16107393 0-48.32214786 6.04026826-72.48322177 12.08053651-30.20134219 6.04026826-54.36241612 18.12080567-66.44295264 24.16107393-6.04026826 0-6.04026826 6.04026826-12.08053741 6.04026914 6.04026826 6.04026826 30.20134219 12.08053652 66.44295352 18.12080479 12.08053652 0 84.5637583 12.08053652 102.68456397 12.0805374 24.16107393 6.04026826 48.32214786 12.08053652 78.52348916 18.12080479C502.93959717 146.5637583 484.81879239 116.36241612 472.73825498 110.32214786z m144.96644268 277.85234882c-24.16107393-6.04026826-54.36241612-12.08053652-78.52349004-18.12080566-18.12080567 54.36241612-36.24161045 102.68456396-54.36241523 138.92617441 18.12080567-6.04026826 48.32214786-12.08053652 66.44295263-18.12080478 24.16107393-36.24161045 48.32214786-66.44295263 66.44295264-102.68456397z m24.16107392-42.28187959c12.08053652-24.16107393 24.16107393-42.28187959 36.24161133-66.44295264l-108.72483223-18.12080566c-6.04026826 18.12080567-12.08053652 42.28187959-18.12080566 66.44295352l90.60402656 18.12080478z m-205.36912705 24.16107393c0 54.36241612-18.12080567 108.72483222-48.32214786 175.16778574 6.04026826 0 18.12080567-6.04026826 24.16107393-12.08053741 30.20134219-36.24161045 54.36241612-90.60402656 72.48322178-163.08724833-12.08053652-6.04026826-30.20134219 0-48.32214785 0z m0-48.32214698c24.16107393 0 42.28187959-6.04026826 66.44295264 0l18.12080566-72.48322177c-24.16107393-6.04026826-48.32214786-6.04026826-66.44295351-12.0805374-12.08053652 0-30.20134219 0-54.36241612-6.04026826 18.12080567 30.20134219 30.20134219 60.40268437 36.24161133 90.60402743z m422.81879151 96.64429483c18.12080567 0 36.24161045-6.04026826 54.3624161-6.04026827 42.28187959-6.04026826 60.40268437-12.08053652 66.44295352-18.12080566 0-6.04026826-6.04026826-6.04026826-18.12080566-12.08053652-18.12080567-12.08053652-48.32214786-24.16107393-84.5637583-36.24161133-42.28187959-18.12080567-90.60402656-30.20134219-151.00671182-48.32214697-12.08053652 24.16107393-18.12080567 42.28187959-30.20134219 66.44295264 48.32214786 12.08053652 102.68456396 30.20134219 163.08724835 54.36241611z m-96.64429483 12.0805374c-30.20134219-12.08053652-60.40268437-24.16107393-96.64429571-30.20134307-12.08053652 24.16107393-24.16107393 42.28187959-36.24161044 66.44295352 42.28187959-12.08053652 90.60402656-24.16107393 132.88590615-36.24161045z m0 0" fill="#4ABC99" p-id="3370"></path><path d="M829.11409385 545.22147676c-108.72483222 0-199.32885879 30.20134219-199.32885879 66.44295264v54.36241611c0 36.24161045 90.60402656 66.44295263 199.32885879 66.44295352 108.72483222 0 199.32885879-30.20134219 199.32885878-66.44295352v-54.36241611c0-36.24161045-90.60402656-66.44295263-199.32885878-66.44295264z m0 223.48993272c-108.72483222 0-199.32885879-30.20134219-199.32885879-66.44295352v78.52349003c0 36.24161045 90.60402656 66.44295263 199.32885879 66.44295352 108.72483222 0 199.32885879-30.20134219 199.32885878-66.44295352v-78.52349003c0 36.24161045-90.60402656 66.44295263-199.32885878 66.44295351z m0 114.76510048c-108.72483222 0-199.32885879-30.20134219-199.32885879-66.44295264v78.52349005c0 36.24161045 90.60402656 66.44295263 199.32885879 66.44295263 108.72483222 0 199.32885879-30.20134219 199.32885878-66.44295263v-78.52349005c0 36.24161045-90.60402656 66.44295263-199.32885878 66.44295264z m0 0" fill="#4ABC99" p-id="3371"></path></svg>