<?xml version="1.0" standalone="no"?><!DOCTYPE svg PUBLIC "-//W3C//DTD SVG 1.1//EN" "http://www.w3.org/Graphics/SVG/1.1/DTD/svg11.dtd"><svg t="1710667927627" class="icon" viewBox="0 0 1314 1024" version="1.1" xmlns="http://www.w3.org/2000/svg" p-id="4216" xmlns:xlink="http://www.w3.org/1999/xlink" width="256.640625" height="200"><path d="M598.76486654 301.32293281H244.60236217v0.56939344h637.15087125c70.03535063 0 133.23798375-31.88601281 175.37307281-81.99260531-87.68653594-114.44801156-226.04905781-187.89972094-380.92397906-187.89972094-87.68653594 0-170.24853469 23.91451031-241.42267126 64.9108125 70.60474312 52.95355781 126.97465969 123.55830094 163.98521062 204.41212031z" fill="#EFBF1B" p-id="4217"></path><path d="M1058.26509216 802.388855c-42.13508906-49.53719906-104.19893625-80.85381938-174.23428687-80.85381938H244.03296967v0.56939251h362.70339936c-34.16358563 83.70078469-89.39471531 156.01370719-158.29127905 212.38362374-83.13139125-44.41266094-151.4585625-113.30922562-196.44061687-197.01001031 80.85381938 151.4585625 240.28388531 254.51871281 424.19785406 254.51871281 156.01370719 0.56939344 294.37622906-74.02110187 382.06276499-189.60789937z" fill="#40BEB0" p-id="4218"></path><path d="M616.98544528 646.94454031h210.10605094c74.59049531 0 134.94616312-60.35566781 135.51555656-134.94616312 0-74.02110187-60.35566781-134.94616312-134.94616312-134.94616313H615.84665936c10.24907531 40.42690969 16.51239938 85.40896406 16.51239937 134.94616313s-5.69393063 94.51925344-15.37361345 134.94616312z" fill="#0AA5DE" p-id="4219"></path><path d="M632.35905873 511.99837719c0-50.1065925-6.26332406-94.51925344-16.51239937-134.94616313H214.99392122a480.16919531 480.16919531 0 0 0 0 269.89232625h401.99152406c9.67968281-40.42690969 15.37361344-85.40896406 15.37361345-134.94616312z" fill="#231F20" p-id="4220"></path><path d="M434.77965591 96.9108125c-81.99260531 47.82901969-148.61159719 119.00315625-190.74668624 204.41212031H598.76486654c-37.01055094-80.85381938-93.3804675-151.4585625-163.98521063-204.41212031z" fill="#D7A229" p-id="4221"></path><path d="M449.01448247 934.48805187c68.89656469-55.80052312 124.12769438-128.68283906 158.29128001-212.38362374H244.60236217c2.27757281 5.12453812 5.12453812 10.24907531 7.97150344 15.37361343 44.41266094 83.70078469 112.73983219 152.59734844 196.44061687 197.01001032z" fill="#009B8F" p-id="4222"></path></svg>