<?xml version="1.0" standalone="no"?><!DOCTYPE svg PUBLIC "-//W3C//DTD SVG 1.1//EN" "http://www.w3.org/Graphics/SVG/1.1/DTD/svg11.dtd"><svg t="1710667888201" class="icon" viewBox="0 0 1024 1024" version="1.1" xmlns="http://www.w3.org/2000/svg" p-id="2795" xmlns:xlink="http://www.w3.org/1999/xlink" width="200" height="200"><path d="M541.43 213.905c-7.56-20.52-266.175-120.93-269.4-110.145-47.52 12.42-66.96 66.96-99.36 101.505l-72.345-4.32C68.48 242 51.725 284.09 63.08 327.29c41.025 56.145 88.545 103.65 117.69 173.31 2.16 32.94 142.005 3.24 172.23-3.24-41.025 29.16-76.65 74.505-61.005 205.71 14.04 61.545 23.76 130.11 147.39 199.23 16.2 9.165 50.22 19.965 70.74 27.525 19.965 9.18 43.2 12.96 109.05-7.02 38.34-16.2 79.365-26.445 116.625-42.645l-44.805 2.16c-61.56 1.08-109.605 5.94-124.185-11.34l-56.7-98.805 32.94-64.245c45.9 4.86 61.02 42.105 101.505 56.145l47.52-35.1c138.21 81.54 193.275-51.825 208.95-155.49-1.635-42.105-91.8 13.5-85.86-6.48 2.16-45.345-35.1-104.745-58.845-151.17l27.54-107.445c12.405-11.34-58.32-130.65-116.1-145.23-50.205-13.5-126.33 50.745-126.33 50.745z" fill="#FDEE21" p-id="2796"></path><path d="M768.755 441.74c0.54 11.34 0.54 25.38 1.62 34.02 0 6.48-5.4 7.02-9.18 8.1l27 9.72c5.4 9.18 9.72 17.82 14.04 27 4.86 22.125 1.08 22.665-2.16 24.3-9.72 0-19.44 0-28.62-1.635 4.32 2.16 4.86 3.78 5.4 6.48 0.54 4.86-2.7 11.88-8.1 18.9 8.1 4.32 22.68 8.64 33.48 12.96l12.42-27.54c-5.94-39.945-22.68-76.665-45.9-112.305z m50.22 134.985c15.105 6.48 35.625 4.32 64.245-10.26 4.32-3.24 8.1-1.08 0.54 3.78-37.8 33.48-55.605 16.74-64.8 6.48z" fill="#C8C037" p-id="2797"></path><path d="M885.905 562.145c4.32 8.64 1.62 15.12 0 22.665-4.86 36.72-16.2 65.34-38.34 95.565-72.345 116.625-145.77 43.74-204.075-3.78l-24.3 60.48c-1.08 5.4-6.48 9.18 31.305 25.905l38.34-27c146.85 111.24 250.515-156.555 197.07-173.85zM661.295 666.35c-9.72 0.54-39.405 10.8-40.5 16.725l13.5-19.965 27 3.24z m-19.425-123.645c1.62 0 10.26 2.16 9.72 1.62-1.08-0.54 0 12.42 2.7 18.9l-10.8 23.205c20.505-23.205 52.365-22.125 82.05-24.825l-14.025-8.64c2.7-8.1-0.54-14.58-1.62-21.6l-68.025 11.34z m50.205-69.645c-21.6 6.48-42.66 17.82-56.7 41.025 10.8-38.325 12.96-36.705 16.2-38.865 15.12-7.02 27.54-2.7 40.5-2.16z" fill="#C8C037" p-id="2798"></path><path d="M575.45 922.805c-26.445 29.16-85.305-2.16-133.89-18.36-124.185-78.825-148.485-153.33-150.105-226.215-6.465-104.745 25.92-165.21 66.42-179.79-27 51.825-39.42 144.69-27 213.795 10.26 38.34 10.26 103.125 74.505 138.225 31.32 17.82 23.22 31.305 44.28 48.045 23.205 18.36 88.545 35.64 125.79 24.3z m39.42-482.685c-44.82-63.15-107.445-86.925-178.17-89.625 14.04-4.86 28.605-7.02 42.645-14.04 3.24-3.765 2.16-10.245 1.08-16.725-68.025-17.82-111.21-39.96-165.75-60.48l146.85 35.64c99.345 3.78 90.705 28.62 153.345 145.23z" fill="#FCF6A0" p-id="2799"></path><path d="M662.93 409.34c-32.94-46.965-64.8-104.205-108.525-140.91-104.745-46.98-208.95-82.065-330.42-113.925l38.865-49.68c129.045 29.7 249.99 78.84 358.5 159.825 18.9 46.425 30.78 92.85 41.58 144.69z m66.405-83.145s-18.36-41.565-27.525-57.225c-21.06-23.22-31.32-66.42-74.52-86.925 13.5 3.78 22.68-0.54 50.22 24.3l43.725 82.59 8.1 37.26z" fill="#FCF6A0" p-id="2800"></path><path d="M752.57 398c4.32-36.18 12.42-93.405 3.24-116.625-25.92-34.545-51.84-70.725-77.745-103.65-4.32-3.795-7.575-9.735-10.8-13.5 36.705 9.705 75.045 35.1 126.33 135.51l-41.025 98.25z" fill="#FCF6A0" p-id="2801"></path><path d="M598.13 402.335c-14.565-11.34-27.525-51.84-49.65-60.48-20.535-1.605-28.095-8.1-55.08-2.7 9.72-4.845 18.9-11.325 29.145-14.565 7.02-1.62 13.5 0 20.52 1.08 1.62-0.54 2.7-1.62 2.16-3.24-27-16.74-82.605-16.74-120.405-26.46 43.74 1.62 91.8-1.08 124.725 9.72 26.46 23.22 35.1 67.5 48.6 96.645z m79.92-195.99c5.94 0.54 38.325 51.84 39.945 60.465 2.7 18.9 9.18 39.42 11.34 59.4-5.4-18.9-11.34-37.8-18.36-56.16-2.16-5.4-7.56-16.725-22.665-33.465-7.02-11.88-8.64-21.06-10.26-30.24z m110.13 280.2h-14.025l15.105 3.795-1.08-3.78z m-95.01-13.485c-14.04-1.62-28.08-2.16-42.12 1.08-5.94 7.56-5.94 15.66-8.64 22.68 16.74-18.9 23.76-19.98 50.745-23.76z m191.115 96.645c-7.56 5.94-8.64 11.88-31.845 18.9-16.74 3.78-26.46-2.7-34.02-11.88 11.88 3.24 14.04 12.42 45.9 2.16l19.965-9.18z m-69.645 3.78c-5.4 15.66-11.88 30.78-17.82 45.36-14.565 17.265-8.1 7.545-30.225 33.465 7.02-10.8 16.2-21.06 20.505-32.4 3.24-7.56 7.56-15.105 9.18-21.6-5.94-2.7-17.265-3.225-18.9-2.145-19.425 11.34-22.665 23.205-34.005 35.1 8.1-12.96 15.12-27.54 24.84-39.42 1.08-1.62 8.1-1.62 12.405-2.7-7.005-1.08-19.425-3.78-20.505-3.24-12.42 3.24-19.44 14.04-29.16 21.06 7.02-9.72 12.96-19.98 21.6-28.62 1.08-1.08 24.3 1.08 36.165 5.94v4.86l7.02 2.7 5.4-12.96 13.5-5.4z m-152.79 92.85c-3.24-1.065-30.78-4.845-30.78-3.765-10.8 7.56-11.88 14.58-11.88 21.06 17.28-17.28 16.74-17.28 42.66-17.28z m-21.06-124.17s19.98-2.7 19.44-1.08c-1.62 7.02 2.7 23.76 2.7 21.06l-11.34 9.18c23.22-11.88 48.045-9.18 72.9-11.34 0 0-21.075-5.94-19.455-5.94 4.86-0.54-1.08-21.6-2.7-22.14 3.78-1.08 8.1-2.145 11.88-3.225-30.225-7.575-47.505-3.255-73.425 13.5z" fill="#000000" p-id="2802"></path><path d="M811.94 557.27l-4.32 2.16c-0.54-12.96-14.58-11.865-25.92-11.865l-9.72-2.16c2.7 2.7 11.88 2.7 8.1 8.1-3.24 1.605-4.32 8.625-5.94 14.565h-5.4c9.18 3.78 17.82 6.48 27.54 10.8l5.94 1.08 14.04-7.56-4.32-15.12z" fill="#000000" p-id="2803"></path><path d="M680.735 548.105c-2.16-4.32-13.5-3.78-15.66-1.08-2.16 2.16 0 17.28 2.16 14.58 3.78-3.24 8.64-4.32 14.04-4.32 1.08-2.7 0.54-5.94-0.54-9.18z m107.445 22.14c1.08-0.54 3.24-8.1 2.7-10.26-1.62-5.4-11.88-4.32-11.88-4.32-2.7 1.62-4.86 9.72-3.78 12.42 0.54 2.7 11.34 3.24 12.96 2.16z" fill="#FFFFFF" p-id="2804"></path><path d="M342.755 827.75l6.48 0.555c38.865 18.9 103.125 47.505 196.53 32.4l14.58 23.205c-41.04 19.98-85.32 15.12-126.345 16.74l-91.245-72.9z m-56.145-151.71l19.425 82.065c52.38 32.94 142.005 70.2 216.51 66.96l-16.74-37.8c-155.49-32.4-168.45-74.505-219.195-111.225z m48.6-167.91c9.705 63.72 22.125 111.765 77.73 152.25 34.02 24.3 67.5 48.6 108.525 68.58 0 0-3.78 18.9-6.48 18.36-122.025-13.5-211.11-114.465-221.895-160.905 10.245-35.1 25.365-57.225 42.105-78.285z m58.29-36.165c16.2 70.725 55.08 141.99 93.405 206.775 14.04 17.82 17.82 25.92 39.42 36.72 29.16 9.18 50.205 7.02 71.265 5.4-5.94-10.8-10.8-22.14-17.82-32.4-47.505-37.8-25.905-72.345-12.96-93.945-26.445-6.48-61.545-21.045-66.405-39.945-7.56-60.48-3.24-79.365 4.32-110.685-35.625 7.56-72.345 15.12-111.225 28.08z" fill="#000000" p-id="2805"></path><path d="M261.77 97.28c-11.88 7.545-23.22 18.9-35.625 31.305-20.52 21.06-34.02 41.58-54.54 56.7-4.32 3.78-15.66 9.18-30.24 10.26-7.02 0.525-11.325 1.605-23.745 0-11.34-5.94-21.6-2.175-31.86 10.245-11.34 16.2-25.92 46.98-31.86 66.96-12.405 49.125 18.9 90.15 49.14 121.47 27 25.92 42.105 42.66 52.905 66.42 8.1 15.645 14.58 36.705 21.06 51.825 2.16 4.86 2.16 4.86 8.64 5.94 14.04 3.24 33.48 3.24 50.745 4.32 7.56 0 17.82 0 27.54-1.08 13.5-2.7 29.16-4.86 42.12-9.72 12.945-3.24 24.3-7.56 34.545-11.34-1.08 4.32-11.34 8.64-15.12 14.58-35.1 50.205-44.805 95.025-38.325 165.21 3.24 31.32 10.8 57.225 21.6 86.925 4.845 13.5 15.645 35.1 25.365 49.14 30.24 42.645 97.2 96.645 190.59 117.69a134.685 134.685 0 0 0 52.38-3.78c45.885-14.04 140.37-46.965 140.37-46.965s-83.7 7.02-121.485 3.24c-8.64-1.62-18.36-1.62-24.825-8.1-1.08-1.08-4.86-8.64-2.16-9.18 3.24 0 12.96-3.78 27.525-5.4-31.305-3.24-30.765-3.24-32.925-9.18a329.7 329.7 0 0 0-14.58-31.305c13.5 1.08 44.265 2.7 54.525-7.56 0 0-17.82 2.16-34.005 0-5.4-0.54-14.58-3.78-17.28-4.86-7.02-2.7-12.96-3.78-14.58-5.4-2.7-6.48-4.32-8.64-7.02-16.74-4.32-11.34-4.32-23.76-5.4-35.1 10.26 12.96 23.76 23.76 41.04 29.16 0-0.54 22.665 9.72 39.405 4.32l3.24-1.08c0 0.54-10.8 1.08-15.12-1.08-33.465-14.04-38.325-26.46-43.725-32.94l-14.58-21.6c4.32-8.625 7.02-9.165 12.42-9.165 17.28 2.16 25.38 3.24 35.625 1.08 7.02 15.105 9.18 29.7 25.38 40.5 54.54 16.185 66.405-4.875 79.905-23.235 39.42 29.16 103.665 37.8 147.945 0.54 56.685-65.325 74.505-168.45 69.645-174.39-7.02-11.865-16.2-24.3-24.3-22.665-28.605 7.56-38.865 22.125-66.945 18.9 3.24 0 9.18 0 9.18-0.555 2.16-23.745 0-35.1-1.08-37.245-8.64-18.9-19.98-38.88-27.54-53.46-2.16-3.24-8.1-26.445-17.82-35.625-4.32-3.78-14.565-12.96-14.565-12.96l-1.08 10.26s4.305 0.54 5.4 7.02c5.925 23.76 35.625 80.445 37.785 83.145 10.8 17.28 1.08 38.325 9.18 50.205 0.54 1.62 16.2 0 28.62 0.54 19.965-4.32 18.9-12.96 36.165-14.58 11.88-1.08 12.96 21.06 12.42 22.68-2.16 24.3-9.72 51.84-20.52 77.745-23.205 44.82-49.125 85.305-86.385 90.705-45.345 8.1-68.565-11.88-92.85-24.3l-9.195 8.1c-31.845 31.86-69.645 28.62-84.75-12.405-7.575-16.2-17.835-25.92-26.46-39.42l-45.36 32.94c-3.78 7.56-8.64 19.965-14.04 33.465-3.78 9.72-7.02 25.92-7.02 39.42-5.94 9.72 19.98 50.205 36.72 74.505 4.86 7.02 14.04 19.98 14.04 20.52 3.24 8.64 10.26 16.2 10.8 16.74 30.765 39.945-38.34 30.765-52.92 28.065-28.065-4.32-55.605-16.2-81.525-31.845-1.62-1.08-3.24-1.62-4.32-2.7-30.765-19.44-58.845-44.28-83.145-68.565-14.58-16.2-28.08-49.68-38.325-72.9-15.12-56.7-36.72-154.95 22.125-229.455 3.78-4.32 7.56-11.34 11.34-12.96a159.795 159.795 0 0 1 56.7-24.3l-2.16-12.96c-10.26 2.16-44.28 15.12-54 19.98-22.14 6.48-40.5 12.96-68.565 19.98a112.875 112.875 0 0 1-27 0c-19.98-2.7-54.525-0.54-56.7-2.16-13.485-18.9-17.25-53.445-29.685-71.805-7.56-9.72-15.66-17.82-24.3-25.92-29.7-29.7-55.605-58.305-62.625-89.085-1.62-9.18-6.48-18.36-3.78-44.805 7.02-24.84 18.9-45.36 38.88-65.34 20.52 0.54 41.025 0.54 57.225 3.78 7.56 1.08 22.68 3.24 38.34 9.18 39.945 14.58 92.325 39.42 92.325 39.42-39.42-21.6-83.7-49.68-111.225-55.62-4.32-0.54-6.48-2.7-8.1-5.94 42.12-24.825 49.68-53.445 77.205-79.35 12.42-5.4 17.28-8.1 28.08-9.195 98.805 15.66 161.43 55.08 210.57 81.54 19.965 10.8 38.325 18.9 55.605 29.145 15.12 4.86 61.005 39.42 74.505 58.305 13.5 28.62 23.76 59.94 32.94 90.18 6.48 30.765 12.42 43.185 12.42 43.185s-5.4-25.38-4.86-30.24c5.925 2.16 19.425 6.48 24.825 5.94 0 0-25.365-12.96-28.605-24.3-10.8-36.705-21.06-94.47-24.3-97.17-8.1-10.26-41.58-35.64-62.1-47.52-7.545-4.32-11.865-7.56-12.405-9.18 6.48-6.48 14.58-15.66 22.125-21.06 7.02-5.4 13.5-11.325 23.22-15.105 42.66-19.44 67.5 7.56 72.9 2.16 0 0-9.18-10.8-4.875-8.64 4.32 2.16 17.82 4.86 19.44 6.48 15.66 12.405 56.7 56.685 81 104.19 5.925 11.34 8.1 18.9 5.4 32.94-2.7 14.04-4.875 21.6-8.1 30.78-2.7 5.94-17.82 48.6-17.82 54.525-3.24 23.22 10.26 52.38 10.26 52.38 0-8.1-0.54-12.42 0-17.82l1.08-10.26s-0.54-2.7-0.54-3.78c0.525-7.02 2.16-12.96 2.7-16.74 4.845-30.225 13.5-52.365 23.205-79.365 2.7-6.48 6.48-10.26 6.48-15.66 0-9.18-8.1-21.06-14.04-33.465-6.48-13.5-14.04-27-22.125-39.96-21.06-30.78-39.42-54.525-72.36-69.645-9.18-4.32-45.9-8.1-58.305-5.94-15.12 3.24-28.62 6.48-38.88 12.96-16.725 10.8-29.7 27-44.805 36.705-33.48-16.74-49.68-29.7-52.92-31.305a1380.72 1380.72 0 0 0-69.645-35.1c-13.5-13.5-90.15-41.565-160.89-46.965z m430.845 628.455c-20.505-16.2-38.325-32.94-49.665-50.22-3.78 19.98-17.28 34.56-28.08 48.6-2.16 3.225-3.78 8.1 6.48 22.125 2.7 3.78 12.96 4.32 19.44 4.32-7.02-5.4-17.28-10.8-18.9-15.66 12.42 8.1 23.22 10.8 33.48 9.18 2.16 0 5.4-2.7 7.56-6.48 4.32-9.72 8.1-11.865 11.865-14.565l8.1 10.245 9.72-7.545z" fill="#000000" p-id="2806"></path></svg>