<?xml version="1.0" standalone="no"?><!DOCTYPE svg PUBLIC "-//W3C//DTD SVG 1.1//EN" "http://www.w3.org/Graphics/SVG/1.1/DTD/svg11.dtd"><svg t="1709790329036" class="icon" viewBox="0 0 1024 1024" version="1.1" xmlns="http://www.w3.org/2000/svg" p-id="2366" xmlns:xlink="http://www.w3.org/1999/xlink" width="200" height="200"><path d="M303.104 101.546667c55.881143-50.054095 146.480762-50.054095 202.264381 0l106.325333 95.524571c57.246476 51.492571 57.246476 134.92419 0 186.343619l-98.547809 88.527238-210.041905-188.68419c-55.808-50.078476-55.808-131.437714 0-181.613715v-0.097523z m149.162667 426.910476L203.093333 744.521143a21.455238 21.455238 0 0 1-35.498666-16.286476V296.155429a21.455238 21.455238 0 0 1 35.498666-16.091429L452.266667 495.908571a21.455238 21.455238 0 0 1 0 32.475429v0.073143z m41.472 396.604952a137.167238 137.167238 0 0 1-184.807619-202.727619l366.787047-334.896762c28.452571-25.575619 40.423619-60.342857 35.766857-93.622857l3.047619-2.681905 111.689143 100.254477c68.315429 61.342476 68.681143 168.20419 0.804572 230.083047l-333.287619 303.591619z" p-id="2367"></path></svg>