<?xml version="1.0" standalone="no"?><!DOCTYPE svg PUBLIC "-//W3C//DTD SVG 1.1//EN" "http://www.w3.org/Graphics/SVG/1.1/DTD/svg11.dtd"><svg t="1710667920566" class="icon" viewBox="0 0 1024 1024" version="1.1" xmlns="http://www.w3.org/2000/svg" p-id="3930" xmlns:xlink="http://www.w3.org/1999/xlink" width="200" height="200"><path d="M770.98566729 597.83241464c-50.60639443 0-93.77067217 30.76074932-112.12789395 74.42116876L448.99007715 569.55237031c6.44983506-17.86108008 10.41896338-37.21058438 10.41896337-57.55237031 0-3.9691292 0-7.9382584-0.49614081-11.90738672l214.82910703-105.18191807c22.32635097 29.27232597 57.55237031 48.12568945 96.74751972 48.12568946 66.97905205 0 121.55457568-54.57552363 121.55457569-121.55457569s-54.57552363-121.55457568-121.55457569-121.55457568-121.55457568 54.57552363-121.55457568 121.55457568c0 15.87651592 2.97684668 30.76074932 8.43439922 44.65270108L452.95920635 466.85115722C435.09812539 402.84895273 379.03417842 354.72326328 311.06284473 348.2734291L311.06284473 243.09151016C350.25799326 235.15325263 379.53032012 200.91951494 379.53032012 159.73980136c0-46.63726612-38.2028669-84.84013213-84.84013213-84.84013212s-84.84013213 38.2028669-84.84013213 84.84013212c0 41.17971357 29.27232597 75.41345127 68.46747539 83.3517088l0 105.18191806c-83.35170879 8.43439922-148.34619668 78.39029795-148.34619668 163.7265709 0 85.33627383 64.99448701 155.78831338 148.34619668 163.7265709L278.31753037 781.40463067c-39.19514854 7.4421167-68.46747539 42.17199521-68.46747539 83.35170878 0 46.63726612 38.2028669 84.84013213 84.84013213 84.84013213S379.53032012 911.39360557 379.53032012 864.75633945c0-41.17971357-29.27232597-75.41345127-68.4674754-83.35170879l0-105.67805976c52.09481777-4.96141084 97.24366055-34.72987852 123.53913986-77.39801543l215.82138954 105.67805976c-0.49614083 4.96141084-0.99228252 9.92282256-0.99228252 14.8842334 0 66.97905205 54.57552363 121.55457568 121.55457569 121.55457569s121.55457568-54.57552363 121.55457568-121.55457569C892.54024297 652.40793828 837.96471846 597.83241464 770.98566729 597.83241464z" fill="#5D5D5D" p-id="3931"></path></svg>