<?xml version="1.0" standalone="no"?><!DOCTYPE svg PUBLIC "-//W3C//DTD SVG 1.1//EN" "http://www.w3.org/Graphics/SVG/1.1/DTD/svg11.dtd"><svg t="1709790317018" class="icon" viewBox="0 0 1216 1024" version="1.1" xmlns="http://www.w3.org/2000/svg" p-id="1940" xmlns:xlink="http://www.w3.org/1999/xlink" width="237.5" height="200"><path d="M253.49923 510.244926l19.710583-21.246473 10.815223 26.110124c56.123966 135.478262 180.659015 229.487506 182.002918 230.511432a1131.438678 1131.438678 0 0 0 130.870594 82.746052c83.19402 7.551457 153.588961 31.229755 201.713502 47.612578 40.829065 13.950997 88.249657 19.518597 135.09429 20.03056a546.200742 546.200742 0 0 1-121.399274-120.631329l-9.727301-13.887002 15.038919-9.023352c29.757861-17.598735 94.777188-28.79793 142.453761-34.941488-105.592411-94.969174-235.183096-126.710893-236.527-127.222856l-5.759586-1.471894-3.711733-4.415683c-1.53589-1.919862-37.885277-45.116757-104.312502-195.569943-63.419442-143.989651-199.345672-243.438503-200.62558-244.654416l-0.831941-0.703949C304.823541 60.485253 173.440984 57.541464 172.097081 57.541464l-7.359471 0.447968-5.311619-5.119632C125.188452 19.464201 59.657162-1.334304 19.596042 0.13759 6.732966 0.713549 1.67733 3.33736 0.909385 4.297291-0.946482 6.985098 0.14144 15.048518 8.588833 28.487552c8.639379 14.142983 21.822432 29.757861 33.66158 43.196896 7.93543 9.535315 15.038919 17.342753 19.774579 24.190261 18.686657 26.878068 22.910353 45.884702 23.422317 47.868559l0.255981 0.70395c8.447393 51.260316 65.851267 151.157136 79.802264 161.652381 22.39839 16.382822 20.542524 40.957056 15.806864 53.244173-28.413958 80.570209-32.381673 152.309053-11.327186 213.104683 11.583167 33.469594 28.157976 57.403874 42.684932 73.274734 13.695016-103.032595 37.885277-132.342488 40.829066-135.478263z" p-id="1941"></path><path d="M1042.178544 968.132016c-75.002609 15.16691-186.098624 25.662156-269.100659-8.319403-69.243023-28.157976-186.866569-75.706559-322.600813-48.636504A1912.822516 1912.822516 0 0 0 192.127641 983.874884s176.115342-45.308743 243.886471-48.636504c67.835124-3.327761 169.651806 7.487462 247.662199 44.79678 103.09659 49.724426 261.29322 64.059396 375.205032 7.167485C1172.985142 930.246739 1216.054046 896.009199 1216.054046 896.009199s-98.680907 56.955906-173.875502 72.122817z" p-id="1942"></path></svg>