<?xml version="1.0" standalone="no"?><!DOCTYPE svg PUBLIC "-//W3C//DTD SVG 1.1//EN" "http://www.w3.org/Graphics/SVG/1.1/DTD/svg11.dtd"><svg t="1710667924646" class="icon" viewBox="0 0 1024 1024" version="1.1" xmlns="http://www.w3.org/2000/svg" p-id="4073" xmlns:xlink="http://www.w3.org/1999/xlink" width="200" height="200"><path d="M842.19999969 586.14000031l57.40000031 26.29999969L516.99999969 951.99999969 132.00000031 612.44l57.39999938-26.29999969 327.6 291.72 325.2-291.72zM445.28 330.26v361.08h-55.00000031V330.26h55.00000031z m98.04 0v361.08h-55.00000031V330.26h55.00000031z m95.65999969 0v361.08h-54.99999938V330.26h54.99999938z m100.44 205.66000031v107.59999969h-54.99999938v-107.59999969h54.99999938z m-389.79999938-143.48000062v251.08000031h-55.00000031V392.43999969h55.00000031z m389.79999938 0v107.60000062h-54.99999938v-107.60000062h54.99999938zM516.99999969 72.00000031l382.60000031 337.17999938-57.40000031 28.68L516.99999969 146.13999969 189.39999969 437.85999969 132.00000031 409.20000031 516.99999969 72.00000031z" fill="#FF6A00" p-id="4074"></path></svg>