<?xml version="1.0" standalone="no"?><!DOCTYPE svg PUBLIC "-//W3C//DTD SVG 1.1//EN" "http://www.w3.org/Graphics/SVG/1.1/DTD/svg11.dtd"><svg t="1710667917141" class="icon" viewBox="0 0 1024 1024" version="1.1" xmlns="http://www.w3.org/2000/svg" p-id="3787" xmlns:xlink="http://www.w3.org/1999/xlink" width="200" height="200"><path d="M706.24999971 418.92499971c-47.3625-208.50000029-159.075-277.01250029-171.07499971-303.22499942C521.97499971 97.2125 507.68749971 62 507.68749971 62l-0.18749971 1.83750029v0.48749942h-0.03750029a21.52500029 21.52500029 0 0 0-0.14999942 1.4625v0.5625h-0.07500058l-0.07499971 0.97500058v0.97499971h-0.1125c-0.03750029 0.29999971-0.03750029 0.675-0.1125 0.93750029v0.7875h-0.07499971c0 0.26250029 0 0.5625-0.07500058 0.7875v0.74999971h-0.07499971l-0.07499971 1.19999971v0.07500058l-0.3375 1.87499971v0.29999971h-0.07500058l-0.1125 0.45v0.63750058h-0.1125v0.82499942h-0.18749971v0.675h-0.18749971v0.7875h-0.15000029v0.71250029h-0.15000029v0.63749971h-0.225v0.52500058h-0.14999942v0.675h-0.15000029v0.52499971h-0.18749971v0.48750029H504.50000029v0.5625h-0.15000029l-0.03750029 0.14999942v0.37500029h-0.1125l-0.03749942 0.225v0.225h-0.07500058a1.64999971 1.64999971 0 0 0-0.07499971 0.37500029l-0.37500029 0.7875v0.07499971a1.125 1.125 0 0 0-0.18749971 0.26250029v0.29999971h-0.15000029v0.29999971h-0.18749971v0.30000058h-0.1125v0.37499942h-0.225v0.52500058h-0.15000029v0.14999942h-0.14999942v0.30000058h-0.15000029v0.41249971h-0.15000029v0.29999971h-0.225v0.41250058h-0.14999942v0.29999971h-0.18750058v0.29999971h-0.1125v0.37500029h-0.18749971v0.29999971h-0.15000029v0.225h-0.14999942v0.30000058h-0.225V90.50000029h-0.15000029v0.225h-0.18749971v0.29999971h-0.15000029v0.41249971h-0.18749971v0.15000029h-0.1125v0.29999971h-0.225v0.15000029h-0.15000029v0.37500029h-0.15000029v0.14999942h-0.14999942v0.30000058h-0.18750058v0.225h-0.1125l-0.07499971 0.14999942v0.15000029h-0.07499971l-0.07500058 0.15000029v0.03749942h-0.03749942a0.60000029 0.60000029 0 0 1-0.15000029 0.26250029v0.1125h-0.03750029L498.12499971 94.625v0.03750029c-0.07499971 0.07499971-0.26250029 0.225-0.3375 0.37499942v0.07500058h-0.03749942l-0.1125 0.1125v0.1125h-0.07500058l-0.1125 0.1125v0.03749942h-0.03749942l-0.1125 0.15000029v0.15000029h-0.1125l-0.07500058 0.07499971v0.07499971h-0.07499971c0 0.07499971-0.07499971 0.07499971-0.07499971 0.1125v0.1125h-0.15000029l-0.07499971 0.1125V96.49999971h-0.1125v0.15000029h-0.15000029V96.875h-0.15000029v0.29999971h-0.18749971V96.875h-0.18749971v0.15000029h-0.15000029V97.25000029h-0.18749971v0.29999971h-0.18750058v0.15000029h-0.14999942v0.225h-0.15000029v0.14999942h-0.15000029V98.37500029h-0.225v0.14999942h-0.14999942V98.74999971h-0.18750058v0.15000029h-0.14999942v0.18749971h-0.18750058v0.37500029h-0.07499971v0.15000029h-0.225v0.18749971h-0.15000029v0.07499971h-0.14999942v0.15000029h-0.18750058v0.37500029h-0.14999942v0.14999942h-0.18750058v0.15000029h-0.14999942v0.225h-0.18750058v0.15000029h-0.18749971v0.14999942h-0.15000029v0.15000029h-0.14999942v0.37500029h-0.15000029v0.18749971h-0.225v0.15000029h-0.15000029v0.14999942h-0.18749971v0.225h-0.15000029v0.15000029h-0.18749971v0.26250029h-0.15000029v0.14999942h-0.225V103.24999971h-0.07499971v0.15000029h-0.15000029v0.15000029h-0.18749971v0.14999942h-0.15000029v0.225h-0.18749971v0.15000029h-0.1125l-0.03750029 0.07499971v0.07500058h-0.07499971l-0.15000029 0.14999942-0.14999942 0.1125v0.225h-0.15000029v0.18750058h-0.15000029v0.14999942h-0.14999942v0.15000029h-0.1125l-0.1125 0.1125v0.1125h-0.07500058l-0.07499971 0.07499971v0.1125h-0.07499971c-0.18749971 0.225-0.26250029 0.37500029-0.52500058 0.60000029a13.725 13.725 0 0 0-1.9125 1.575l-0.82499942 0.63749971v0.03750029h-0.03750029a105.78750029 105.78750029 0 0 1-1.83750029 1.4625v0.03750029l-2.77499971 2.32499971V112.24999971h-0.07499971c-2.1375 1.76249971-4.3875 3.75000029-6.975 5.9625V118.25h-0.03750029c-6.33750029 5.55000029-13.87500029 12.67499971-22.31250029 21.30000029l-0.5625 0.5625-0.14999942 0.14999942C399.5 193.02499971 319.13749971 302.975 310.66250029 480.65000029c-0.74999971 14.69999971-0.60000029 28.98749971 0.225 42.89999942v0.3375c4.08750029 70.01250029 26.06249971 129.78749971 53.55 178.35000029v0.03750029c10.95000029 19.35 22.76250029 36.93750029 34.72499971 52.68749942v0.03750029c41.32500029 54.5625 83.51250029 86.88750029 94.275 94.725 16.5375 38.3625 15.00000029 104.21250029 15.00000029 104.21250029l24.14999971 8.06249971s-4.91249971-63.7875 1.98749971-94.57499971c2.1375-9.63749971 7.2-17.84999971 13.08750029-24.82500058a314.25000029 314.25000029 0 0 0 29.88749971-24.1875c0.675-0.71250029 1.05000029-1.35 1.65000058-2.025 57.0375-53.17499971 163.575-184.12499971 127.04999942-397.4625z" fill="" p-id="3788"></path></svg>