<?xml version="1.0" standalone="no"?><!DOCTYPE svg PUBLIC "-//W3C//DTD SVG 1.1//EN" "http://www.w3.org/Graphics/SVG/1.1/DTD/svg11.dtd"><svg t="1710667897606" class="icon" viewBox="0 0 1024 1024" version="1.1" xmlns="http://www.w3.org/2000/svg" p-id="3087" xmlns:xlink="http://www.w3.org/1999/xlink" width="200" height="200"><path d="M72.00000031 184.20000031h171.6V159.99999969H72.00000031v24.20000062zM267.8 159.99999969v24.20000062H512s-24.19999969-24.19999969-57.19999969-24.20000062H267.8z m292.60000031 0v24.20000062h147.39999938l-8.79999938-24.20000062H560.40000031z m252.99999938 0l-8.79999938 24.20000062H951.99999969V159.99999969h-138.6zM72.00000031 230.40000031h171.6v-24.20000062H72.00000031v24.20000062z m195.79999969-24.20000062v24.20000062h272.80000031s-2.20000031-17.59999969-8.80000031-24.20000062h-264z m292.60000031 0v24.20000062h162.79999969l-8.80000031-24.20000062h-153.99999938z m235.39999969 0l-8.80000031 24.20000062h162.80000062v-24.20000062h-154.00000031zM120.39999969 278.79999969h74.80000031v-24.19999969H120.39999969v24.19999969z m195.80000062 0h74.79999938v-24.19999969h-74.79999938v24.19999969z m147.39999938-24.19999969v24.19999969h74.80000031s4.39999969-13.2 4.39999969-24.19999969h-79.2z m145.2 0v24.19999969h132l-8.79999938-24.19999969h-123.20000062z m171.6 0l-8.79999938 24.19999969h132v-24.19999969h-123.20000062z m-660 70.39999969h74.80000031V300.8H120.39999969v24.19999969z m195.80000062-24.19999969v24.19999969h189.19999969s15.40000031-13.2 22.00000031-24.19999969h-211.2z m292.59999938 0v24.19999969h74.80000031v-13.2l4.39999969 13.2h136.40000062l4.39999969-13.2v13.2h74.80000031V300.8h-138.6l-6.6 19.8-6.6-19.8H608.79999969zM120.39999969 371.19999969h74.80000031v-24.19999969H120.39999969v24.19999969z m195.80000062-24.19999969v24.19999969h211.2c-4.39999969-10.99999969-22.00000031-24.19999969-22.00000031-24.19999969h-189.19999969z m292.59999938 24.19999969h74.80000031v-24.19999969h-74.80000031v24.19999969z m88.00000031-24.19999969l8.80000031 24.19999969h101.19999938l8.80000031-24.19999969h-118.8z m132 24.19999969h74.80000031v-24.19999969h-74.80000031v24.19999969zM120.39999969 417.39999969h74.80000031V393.2H120.39999969v24.19999969z m195.80000062 0h74.79999938V393.2h-74.79999938v24.19999969z m147.39999938-24.19999969v24.19999969h79.2c0-10.99999969-4.39999969-24.19999969-4.39999969-24.19999969h-74.80000031z m145.2 24.19999969h74.80000031V393.2h-74.80000031v24.19999969z m103.40000062-24.19999969l8.79999938 24.19999969h68.20000031l8.80000031-24.19999969h-85.8z m116.59999969 24.19999969h74.80000031V393.2h-74.80000031v24.19999969z m-754.60000031 48.40000031h171.6v-24.19999969h-171.6v24.19999969z m193.60000031-24.19999969v24.19999969h264c6.6-4.39999969 8.80000031-24.19999969 8.80000031-24.19999969h-272.80000031z m292.60000031 24.19999969h120.99999938v-24.19999969H560.40000031v24.19999969z m169.39999969-24.19999969l8.80000031 24.19999969h35.19999938l8.80000031-24.19999969h-52.8z m99 24.19999969H951.99999969v-24.19999969h-123.19999969v24.19999969zM74.19999969 512h171.6v-24.19999969h-171.6V512z m193.60000031-24.19999969V512h187.00000031c33 0 57.19999969-24.19999969 57.19999969-24.19999969H267.8zM560.40000031 512h120.99999938v-24.19999969H560.40000031V512z m186.99999938-24.19999969l8.80000031 24.19999969h2.20000031l8.79999938-24.19999969h-19.8zM828.8 512H951.99999969v-24.19999969h-123.19999969V512zM159.99999969 562.59999969c24.19999969-4.39999969 57.19999969-6.6 90.20000062-6.6 55.00000031 0 92.4 10.99999969 120.99999938 35.20000031 28.60000031 24.19999969 48.40000031 59.4 48.40000031 109.99999969 0 57.19999969-19.8 94.60000031-46.2 121.00000031-30.79999969 28.60000031-79.2 41.80000031-136.39999969 41.80000031-35.20000031 0-59.4-2.20000031-77.00000062-4.40000062v-297z m63.80000062 244.2c6.6 2.20000031 15.40000031 2.20000031 24.19999969 2.20000031 63.79999969 0 105.6-35.20000031 105.6-103.39999969 0-63.79999969-37.39999969-94.60000031-96.79999969-94.60000031-15.40000031 0-26.4 2.20000031-33 2.20000031v193.59999938z m217.8-244.2c15.40000031-4.39999969 50.59999969-6.6 83.59999969-6.6 39.6 0 61.60000031 4.39999969 81.40000031 15.40000031 19.8 10.99999969 35.20000031 30.79999969 35.19999938 61.60000031 0 26.4-13.2 50.59999969-46.2 63.79999969 30.79999969 8.80000031 55.00000031 35.20000031 55.00000031 74.80000031 0 28.60000031-13.2 50.59999969-30.79999969 66-19.8 17.59999969-55.00000031 26.4-110.00000062 26.4-33 0-57.19999969-2.20000031-70.39999969-4.40000062v-297h2.20000031z m63.79999969 114.40000031h22.00000031c35.20000031 0 52.8-13.2 52.8-35.20000031 0-24.19999969-17.59999969-33-46.2-33-15.40000031 0-24.19999969 0-28.60000031 2.20000031v66z m0 134.20000031c6.6 2.20000031 15.40000031 2.20000031 26.4 2.19999938 28.60000031 0 55.00000031-10.99999969 55.00000031-43.99999969 0-30.79999969-26.4-41.80000031-59.4-41.80000031h-24.20000062v83.60000062h2.20000031z m162.79999969 48.39999938v-41.79999938l35.20000031-33c63.79999969-59.4 90.19999969-90.19999969 92.4-121.00000031 0-24.19999969-13.2-43.99999969-43.99999969-43.99999969-24.19999969 0-46.2 13.2-59.4 26.4l-19.8-50.60000062c22.00000031-19.8 55.00000031-33 92.4-33 59.4 0 94.60000031 37.39999969 94.59999938 94.60000031 0 46.2-30.79999969 85.8-70.39999969 121.00000031l-26.4 21.99999938h101.20000031v57.20000062h-195.80000062v2.19999938z" fill="#297AFF" p-id="3088"></path></svg>