<?xml version="1.0" standalone="no"?><!DOCTYPE svg PUBLIC "-//W3C//DTD SVG 1.1//EN" "http://www.w3.org/Graphics/SVG/1.1/DTD/svg11.dtd"><svg t="1710668952927" class="icon" viewBox="0 0 1024 1024" version="1.1" xmlns="http://www.w3.org/2000/svg" p-id="2538" xmlns:xlink="http://www.w3.org/1999/xlink" width="200" height="200"><path d="M689.67441687 92.90430687c-14.49577219 2.35999969-28.99538156 4.71999937-43.49019374 7.08 0.6744225 0.33673125 1.34884594 0.6744225 2.02326843 1.01115469 16.23986906 12.37560937 36.42458438 19.51412906 52.59346125 31.35346219 46.36440469 33.95042156 95.65002938 94.84321594 109.23250032 159.80269406 5.96331656 28.52050312-4.624065 72.43185094-9.10230844 97.09576875-7.31695875 40.29747844 14.36338125 74.25653438 7.08 117.323655-3.06991875 18.1528125-20.58860062 61.20650156-15.17115375 65.7413475 0-0.6744225 0-1.34884594 0-2.02326844 12.73152844-12.63943031 18.98169-32.58718594 28.31904-48.54788437 37.45492594-64.02123375 64.32342844-139.09801125 82.93576969-221.49942375 7.03682906-31.15295812 13.41074719-84.47840344 1.01115468-114.28923188-6.29525156-15.13661719-22.12356-28.74211312-34.38788531-38.43346218C823.98431469 110.59183438 776.47444625 92.36898969 689.67441687 92.90430687z" p-id="2539"></path><path d="M524.81403219 102.00661531c-7.75346344 0.6744225-15.508845 1.34884594-23.26230844 2.02326844-14.49577219 4.04557688-28.99538156 8.09211375-43.49019375 12.13673156-65.48807906 28.23845437-104.27841938 108.25684219-108.22134562 197.22500157 14.93131688-7.43016281 31.07716969-15.464715 48.54788437-20.22788532 88.42420875-24.10845469 100.60506937 32.44999875 112.26692344 100.12923282 4.42164187 25.66356 5.22845531 62.02194937-1.01115469 86.98134656-5.28505687 21.14118656-13.47118687 39.88687687-21.23999906 57.65019281-6.74230875 19.2148125-13.48653656 38.43538125-20.22788531 57.65019281 0.33673125 0 0.6744225 0 1.01115468 0 8.37224344-2.23624406 17.09273156 0.63892688 23.26230844 3.03442313 36.48406406 14.16575531 32.37708844 49.78352719 32.36557594 99.11807812-0.022065 88.94417625-10.86847125 209.83565156 58.66230656 229.5905775 20.81980406 5.91534937 45.45781969-1.05240656 61.69577063-6.06884531 88.18724906-27.24360844 70.77697312-132.4890525 87.99250124-227.56730906 4.47536531-24.71380406-0.83271562-58.44837187 10.11442219-76.86692438 7.61819531-12.81882844 19.23016219-14.88238969 31.35346219-23.26230844-36.86492531-57.44585156-77.84929781-118.90754062-99.11807812-191.15711531-25.60503938-86.97846844 19.60334906-121.81628812 105.18692343-116.31250031C741.78340719 185.05846625 663.43044969 102.83261563 524.81403219 102.00661531z" p-id="2540"></path><path d="M264.88210625 104.02892469c-14.83250344 1.68557719-29.66980406 3.37115438-44.5023075 5.05673156-41.93700656 10.44443906-76.05531469 34.54138125-92.03807812 70.79903812-49.67991656 112.69959 20.81788594 322.48343625 58.66230656 410.63327063 12.88310531 30.00845437 37.55757562 88.43380219 69.78692437 96.083655 16.60921875 3.94196719 26.65073063-8.35305656 33.37673063-15.17115375 24.94596656-28.31712094 49.89864844-56.64191719 74.844615-84.95807813-23.46952781-27.588975-55.15300594-60.92253469-45.51346219-120.35807718 1.68557719-17.19250313 3.37115438-34.38980344 5.05673156-51.5823075-0.6744225-31.35058406-1.34884594-62.7107625-2.02326844-94.06134657 14.98695844-97.39124906 25.93313719-130.48689 73.83346125-193.17942468 0-0.33673125 0-0.6744225 0-1.01115469C355.1089325 119.19144406 316.76660844 104.62084344 264.88210625 104.02892469z" p-id="2541"></path><path d="M824.19249312 630.97469562c-14.4573975-2.71495969-24.42504-11.26468219-37.42230749-13.14788531-17.22895875 9.204-25.06876313 10.93178813-24.27346219 38.43346219 43.06328344 21.05004844 125.34093844-7.98562594 144.63153937-31.35346219C882.20532125 627.56132937 853.11592344 636.40653219 824.19249312 630.97469562z" p-id="2542"></path><path d="M473.23268469 620.8602725c-13.82134875 14.83250344-27.64653562 29.66980406-41.46788438 44.5023075-17.81416219 11.5812675-47.19232406 15.45703969-69.78692437 21.23999906 0.33673125 0.6744225 0.6744225 1.34884594 1.01115468 2.02326844 47.34486 16.56604781 86.87293969 12.79292625 120.35807719-15.17115375C499.96975625 659.57098719 507.88343094 622.01628875 473.23268469 620.8602725z" p-id="2543"></path><path d="M774.632495 393.29296344c3.03346312-26.96827594 6.06884531-53.94422625 9.10230844-80.91250125-33.46403156-1.29128438-68.03611125-2.79650438-81.924615 18.20557687-9.93982125 15.03204844-6.40269938 47.19807937-1.01115469 64.73019282 13.39060125 43.54583625 34.55385281 81.29528156 55.62788438 117.32365499 4.71904031 9.77577188 9.43999969 19.55538187 14.15999906 29.33115376 0.6744225-0.33673125 1.34884594-0.6744225 2.02326844-1.01115469 4.07819531-21.6035925 13.56712125-44.98581937 9.10230843-73.83250125C779.35345437 442.51718938 776.99249469 417.90123875 774.632495 393.29296344zM734.59404125 359.38283469c-11.73956062-3.20134969-16.42310531-5.6304225-23.26230844-13.14788532 0.61782094-5.83188562 1.64240625-5.69278031 4.04557688-9.10230843 5.47884562-2.10097594 8.74543031-6.040065 23.26230843-7.08 10.11154406 1.66926844 13.4174625 3.32222719 18.20557688 10.11442218C750.65451219 351.55646094 745.86447969 352.05724156 734.59404125 359.38283469z" p-id="2544"></path><path d="M461.09595313 322.49392531c-8.96608125-6.50630906-22.81621031-7.28146313-38.43346219-7.08-12.810195 3.37115438-25.62326719 6.74326781-38.43346219 10.11442219-11.79904031 6.4046175-23.60095875 12.81211312-35.39903906 19.21673062 0.6744225 25.28269875 1.34884594 50.57307187 2.02326843 75.85576969-3.56686125 24.3473325-9.61651969 53.97300656-5.05673156 78.89019281 8.82121875 48.20539687 41.03809594 89.47853344 97.09576875 90.01576969 5.05673156-15.84365813 10.11442219-31.6921125 15.17115375-47.53672969 8.51038969-20.71331625 19.22344688-40.7627625 25.28557594-64.73019281C493.8913175 435.54463719 485.63707438 340.30329031 461.09595313 322.49392531zM460.50211531 356.34841156c-9.37092656 22.09765781-46.4488275 12.91956094-47.53672969-11.12557687 0.33673125-0.6744225 0.6744225-1.34884594 1.01115469-2.02326844 3.03442312-1.68557719 6.06884531-3.37115438 9.10230844-5.05673156 19.01910469-0.61686188 28.36317 2.66219531 38.43346219 10.11442219C461.17557875 350.95398875 460.8388475 353.65168062 460.50211531 356.34841156z" p-id="2545"></path></svg>