<?xml version="1.0" standalone="no"?><!DOCTYPE svg PUBLIC "-//W3C//DTD SVG 1.1//EN" "http://www.w3.org/Graphics/SVG/1.1/DTD/svg11.dtd"><svg t="1704786089697" class="icon" viewBox="0 0 1417 1024" version="1.1" xmlns="http://www.w3.org/2000/svg" p-id="1852" xmlns:xlink="http://www.w3.org/1999/xlink" width="276.7578125" height="200"><path d="M391.85 503c0 90.45-73.35 164.25-164.25 164.25C139.85 667.25 66.5 593.45 66.5 505.7s70.65-164.25 161.1-164.25c90.45-2.7 164.25 71.1 164.25 161.55z" fill="#CBF1F4" p-id="1853"></path><path d="M408.95 539.9c-19.8 0-36.9 8.55-50.85 22.5l-31.05-22.5c2.7-8.55 5.85-19.8 5.85-28.35 0-11.25-2.7-19.8-5.85-28.35l31.05-22.5c11.25 13.95 31.05 22.5 50.85 22.5 36.9 0 67.95-31.05 67.95-67.95s-31.05-67.95-67.95-67.95S341 378.35 341 415.25c0 5.85 0 13.95 2.7 19.8l-31.05 19.8c-13.95-17.1-33.75-28.35-53.55-31.05v-36.9c31.05-5.85 53.55-33.75 53.55-65.25 0-36.9-31.05-67.95-67.95-67.95s-65.25 31.05-65.25 67.95c0 31.05 22.5 59.4 50.85 65.25V426.5c-42.3 8.55-70.65 42.3-70.65 85.05s31.05 79.2 73.35 85.05v39.6c-31.05 5.85-53.55 33.75-53.55 65.25 0 36.9 31.05 67.95 67.95 67.95s67.95-31.05 67.95-67.95c0-31.05-22.5-59.4-53.55-65.25v-39.6c19.8-2.7 39.6-13.95 53.55-31.05l31.05 22.5c-2.7 5.85-2.7 11.25-2.7 19.8 0 36.9 31.05 67.95 67.95 67.95s67.95-31.05 67.95-67.95c-3.15-39.6-34.2-67.95-70.65-67.95z m0-158.4c17.1 0 33.75 13.95 33.75 33.75 0 17.1-13.95 33.75-33.75 33.75-17.1 0-33.75-13.95-33.75-33.75 2.25-19.8 16.65-33.75 33.75-33.75zM213.65 322.1c0-17.1 13.95-33.75 33.75-33.75s31.05 13.95 31.05 33.75-13.95 33.75-33.75 33.75-31.05-17.1-31.05-33.75zM278.45 701c0 17.1-13.95 33.75-33.75 33.75S210.5 720.8 210.5 701s13.95-33.75 33.75-33.75 34.2 17.1 34.2 33.75z m-31.05-144c-25.65 0-45.45-19.8-45.45-45.45 0-25.65 19.8-45.45 45.45-45.45s45.45 19.8 45.45 45.45c0 22.5-22.95 45.45-45.45 45.45z m161.55 81.9c-17.1 0-31.05-13.95-33.75-33.75 0-17.1 13.95-33.75 33.75-33.75 17.1 0 33.75 13.95 33.75 33.75s-13.95 33.75-33.75 33.75z m121.5-243.45h31.05v153l56.7-65.25h39.6l-62.1 70.65 62.1 81.9h-36.9L558.8 557v79.2h-31.05V395.45h2.7z m274.5 87.75h31.05v149.85h-31.05V602c-13.95 22.5-33.75 33.75-53.55 33.75s-33.75-8.55-48.15-22.5c-13.95-17.1-19.8-33.75-19.8-56.7 0-19.8 5.85-39.6 19.8-56.7 13.95-17.1 28.35-22.5 48.15-22.5 11.25 0 22.5 2.7 31.05 8.55 8.55 5.85 17.1 13.95 22.5 25.65v-28.35z m2.7 76.5c0-13.95-5.85-25.65-13.95-33.75-8.55-8.55-19.8-13.95-33.75-13.95-11.25 0-22.5 5.85-33.75 13.95-8.55 8.55-13.95 19.8-13.95 33.75s5.85 25.65 13.95 36.9c8.55 11.25 19.8 13.95 33.75 13.95 13.95 0 25.65-5.85 33.75-13.95 11.25-11.25 13.95-22.95 13.95-36.9z m158.4-161.55v31.05c-8.55-5.85-17.1-8.55-22.5-8.55-5.85 0-8.55 2.7-11.25 5.85-2.7 2.7-5.85 11.25-5.85 17.1v39.6h39.6v28.35h-39.6v121.5h-31.05v-121.5h-25.65v-28.35h25.65v-36.9c0-17.1 2.7-31.05 11.25-42.3s19.8-13.95 33.75-13.95c9 0 17.1 2.7 25.65 8.1z m28.35-2.7h31.05v153l59.4-65.25h39.6l-62.1 70.65 62.1 81.9H1088L1025.45 557v79.2h-31.05V395.45z m277.2 87.75h31.05v149.85h-31.05V602c-13.95 22.5-33.75 33.75-53.55 33.75s-33.75-8.55-48.15-22.5c-13.95-17.1-19.8-33.75-19.8-56.7 0-19.8 5.85-39.6 19.8-56.7 13.95-17.1 28.35-22.5 48.15-22.5 11.25 0 22.5 2.7 31.05 8.55s17.1 13.95 22.5 25.65v-28.35z m3.15 76.5c0-13.95-5.85-25.65-13.95-33.75-8.55-8.55-19.8-13.95-33.75-13.95-11.25 0-22.5 5.85-33.75 13.95-8.55 8.55-13.95 19.8-13.95 33.75s5.85 25.65 13.95 36.9c8.55 11.25 19.8 13.95 33.75 13.95 13.95 0 25.65-5.85 33.75-13.95 8.1-11.25 13.95-22.95 13.95-36.9z" p-id="1854"></path></svg>