<?xml version="1.0" standalone="no"?><!DOCTYPE svg PUBLIC "-//W3C//DTD SVG 1.1//EN" "http://www.w3.org/Graphics/SVG/1.1/DTD/svg11.dtd"><svg t="1705748087613" class="icon" viewBox="0 0 1024 1024" version="1.1" xmlns="http://www.w3.org/2000/svg" p-id="1690" xmlns:xlink="http://www.w3.org/1999/xlink" width="200" height="200"><path d="M926 236l-132-60-132-60H644c-6 0-12 0-18 6L374 230l-114-54-132-60c-12-6-24-6-36 0-12 12-18 24-18 36v600c0 18 12 30 24 36l132 60 132 60h18c6 0 12 0 18-6L662 788 776 842l132 60c6 0 12 6 18 6 6 0 12 0 24-6s18-18 18-36V272c-18-18-24-30-42-36z m-516 60L614 212v510l-204 90V296zM152 212l72 36L332 296V812l-72-36L152 728V212z m720 600l-72-36L692 728V212l72 36L872 296V812z" p-id="1691"></path></svg>