<?xml version="1.0" standalone="no"?><!DOCTYPE svg PUBLIC "-//W3C//DTD SVG 1.1//EN" "http://www.w3.org/Graphics/SVG/1.1/DTD/svg11.dtd"><svg t="1704786086466" class="icon" viewBox="0 0 1024 1024" version="1.1" xmlns="http://www.w3.org/2000/svg" p-id="1710" xmlns:xlink="http://www.w3.org/1999/xlink" width="200" height="200"><path d="M765.843125 516.231875c12.075 0 21.8775 5.15625 29.40375 15.46875v-13.516875h9.3375v73.99875h-9.3375v-12.680625c-8.45625 10.125-18.11625 15.189375-28.9875 15.189375-10.869375 0-20.06625-3.855-27.5925-11.566875-7.4325-7.80375-11.14875-17.0475-11.14875-27.73125 0-10.7775 3.763125-19.974375 11.2875-27.594375 7.52625-7.71 16.5375-11.566875 27.0375-11.566875z m-168.53625 0c12.076875 0 21.879375 5.15625 29.40375 15.46875v-13.516875h9.3375v73.99875h-9.3375v-12.680625c-8.454375 10.125-18.11625 15.189375-28.9875 15.189375-10.869375 0-20.06625-3.855-27.5925-11.566875-7.4325-7.80375-11.14875-17.0475-11.14875-27.73125 0-10.7775 3.763125-19.974375 11.2875-27.594375 7.52625-7.71 16.5375-11.566875 27.0375-11.566875zM846.629375 492.125c14.214375 0 24.61875 1.06875 31.216875 3.20625 6.688125 2.04375 12.45 5.341875 17.28 9.894375 4.831875 4.45875 8.548125 9.94125 11.14875 16.44375 2.600625 6.504375 3.901875 14.1225 3.901875 22.85625 0 8.638125-2.04375 16.815-6.13125 24.525-3.99375 7.62-9.47625 13.38-16.44375 17.281875-6.875625 3.9-16.81875 5.851875-29.82375 5.851875h-31.9125V492.125h20.76375z m-137.101875 26.060625v73.99875h-9.616875V518.18375h9.616875zM447.54875 492.123125l40.69125 82.081875L528.65375 492.125h1.53375l14.355 100.059375h-9.894375l-9.755625-71.62875-35.398125 71.62875h-2.50875l-35.814375-72.1875-9.755625 72.1875h-9.615l14.214375-100.059375h1.53375zM677.675 516.231875c3.065625 0 6.13125 0.83625 9.19875 2.50875l-5.0175 8.083125c-1.393125-0.83625-2.833125-1.254375-4.32-1.254375-2.88 0-5.62125 1.486875-8.221875 4.460625-2.50875 2.971875-4.366875 6.82875-5.574375 11.566875-1.2075 4.644375-1.81125 13.14375-1.81125 25.5v25.0875h-9.755625V518.181875h9.755625v10.730625c2.600625-4.366875 5.109375-7.57125 7.524375-9.615 2.50875-2.04375 5.25-3.0675 8.221875-3.0675zM950.8325 492.125c10.498125 0 18.440625 2.1375 23.83125 6.4125 5.480625 4.179375 8.22 10.21875 8.22 18.114375a23.1375 23.1375 0 0 1-3.343125 12.125625c-2.1375 3.6225-5.296875 6.549375-9.47625 8.77875 6.87375 2.23125 12.076875 5.574375 15.6075 10.033125 3.6225 4.460625 5.435625 9.755625 5.435625 15.886875 0 8.26875-3.01875 15.144375-9.058125 20.625-6.039375 5.38875-13.843125 8.083125-23.413125 8.083125H931.04375V492.125h19.78875zM766.4 525.430625c-8.175 0-15.0975 3.01875-20.765625 9.058125-5.66625 5.945625-8.499375 13.006875-8.499375 21.181875s2.88 15.283125 8.64 21.3225c5.76 5.945625 12.63375 8.919375 20.625 8.919375 8.08125 0 15.00375-2.88 20.76375-8.64 5.76-5.76 8.64-13.006875 8.64-21.740625 0-8.454375-2.833125-15.5625-8.50125-21.3225-5.66625-5.851875-12.63375-8.77875-20.9025-8.77875z m-168.53625 0c-8.175 0-15.0975 3.01875-20.76375 9.058125-5.668125 5.945625-8.50125 13.006875-8.50125 21.181875s2.88 15.283125 8.64 21.3225c5.76 5.945625 12.635625 8.919375 20.625 8.919375 8.08125 0 15.00375-2.88 20.76375-8.64 5.76-5.76 8.641875-13.006875 8.641875-21.740625 0-8.454375-2.835-15.5625-8.50125-21.3225-5.668125-5.851875-12.635625-8.77875-20.904375-8.77875z m244.725-23.551875h-7.108125v80.8275h11.566875c12.076875 0 20.810625-0.60375 26.199375-1.81125 5.480625-1.2075 10.265625-3.5775 14.353125-7.10625 4.0875-3.624375 7.2-7.99125 9.3375-13.100625 2.1375-5.109375 3.20625-10.963125 3.20625-17.559375s-1.25625-12.680625-3.763125-18.255c-2.415-5.574375-5.900625-10.17375-10.45125-13.798125-4.5525-3.6225-9.94125-6.0375-16.16625-7.245-6.13125-1.30125-15.19125-1.951875-27.174375-1.951875z m103.92375 42.08625h-5.574375v38.46375h12.403125c7.153125 0 12.403125-0.6975 15.74625-2.090625 3.43875-1.486875 6.225-3.71625 8.3625-6.69 2.1375-3.065625 3.20625-6.178125 3.20625-9.3375 0-3.1575-0.605625-5.94375-1.813125-8.360625-1.2075-2.415-3.01875-4.5525-5.435625-6.410625-2.32125-1.85625-5.15625-3.25125-8.499375-4.18125-3.253125-0.928125-9.384375-1.393125-18.395625-1.393125z m5.9925-42.08625h-11.56875v32.053125h5.715c8.73375 0 15.23625-1.395 19.51125-4.18125 4.273125-2.788125 6.40875-7.153125 6.40875-13.100625 0-9.8475-6.688125-14.77125-20.06625-14.77125z m-247.85625-12.2625c2.23125 0 4.0875 0.7875 5.574375 2.368125 1.57875 1.486875 2.37 3.345 2.37 5.574375 0 2.1375-0.79125 3.99375-2.37 5.574375-1.486875 1.486875-3.345 2.23125-5.574375 2.23125-2.1375 0-3.99375-0.79125-5.574375-2.37-1.486875-1.580625-2.229375-3.391875-2.229375-5.4375 0-2.135625 0.7425-3.99375 2.23125-5.5725 1.57875-1.57875 3.436875-2.37 5.5725-2.37z" fill="#A57242" p-id="1711"></path><path d="M448.8875 370.445c-6.586875 0.21-4.501875 2.109375-18.736875 5.611875-14.37375 3.53625-31.93125 2.4525-47.409375 8.94375-46.205625 19.378125-55.4775 85.60875-97.48125 109.333125-31.39875 17.735625-63.075 19.149375-91.55625 28.074375-18.71625 5.86875-39.19125 17.90625-56.14875 32.518125-13.1625 11.3475-13.505625 21.324375-27.25875 35.555625-14.71125 15.223125-58.46625 0.256875-78.29625 23.555625 6.388125 6.459375 9.1875 8.26875 21.778125 6.5925-2.60625 4.940625-17.97 9.103125-14.9625 16.36875 3.163125 7.65 40.306875 12.8325 74.07375-7.554375 15.72375-9.493125 28.24875-23.176875 52.74-26.443125 31.69125-4.224375 68.20125 2.709375 104.8875 7.99875-5.4375 16.220625-16.36125 27.0075-25.11 39.92625-2.709375 2.9175 5.443125 3.24375 14.74125 1.48125 16.726875-4.13625 28.78125-7.46625 41.4075-14.814375 15.51-9.028125 17.859375-32.175 36.88875-37.185 10.603125 16.295625 39.43875 20.145 57.33375 7.11-15.70125-4.44375-20.041875-37.86375-14.74125-52.591875 5.02125-13.940625 9.980625-36.24 15.0375-54.665625 5.428125-19.790625 7.430625-44.735625 14.000625-54.815625 9.88125-15.166875 20.803125-20.375625 30.285-28.9275s18.159375-16.876875 17.874375-36.448125c-0.09-6.301875-3.350625-9.815625-9.345-9.624375z" fill="#002B64" p-id="1712"></path><path d="M435.963125 382.07375c1.584375 5.398125 4.06125 7.875 14.769375 8.865-1.56375 13.576875-10.621875 21.00375-20.775 28.12875-8.93625 6.268125-18.7275 12.301875-25.018125 22.093125-6.444375 10.0275-10.5375 44.35125-20.529375 78.2475-8.638125 29.2875-21.6825 58.246875-44.461875 70.935-2.379375-5.98875 0.30375-17.04375-4.42875-20.6775-3.06375 8.73375-6.525 17.068125-10.5825 24.81375-13.365 25.54875-33.155625 44.6775-66.226875 50.518125 15.691875-21.234375 30.695625-43.1625 31.02-79.760625-11.04375 2.38875-10.809375 28.475625-22.155 35.44875-7.275 0.79125-14.64375 0.7875-22.06125 0.34125-30.459375-1.824375-61.70625-10.98-90.200625-1.8375-19.400625 6.226875-35.26875 20.9175-51.6975 28.0425-19.30875 8.37375-33.931875 11.818125-57.975 8.37375-3.05625-4.111875 17.596875-9.42 16.36125-18.34875-9.410625-1.040625-14.874375 1.239375-23.055-2.476875 0.90375-1.663125 2.23125-3.050625 3.901875-4.205625 14.9925-10.37625 57.579375-2.450625 68.975625-13.640625 7.035-6.901875 11.65125-14.128125 16.42875-21.15 4.635-6.815625 9.425625-13.441875 16.725-19.411875 2.694375-2.205 5.625-4.38375 8.73375-6.51 12.436875-8.5125 27.823125-16.231875 42.965625-21.553125 20.625-7.250625 41.5275-7.84875 63.51375-16.24875 13.5825-5.191875 28.35-11.6025 40.39125-20.574375a80.62875 80.62875 0 0 0 8.0625-6.84375c34.378125-33.511875 41.19375-92.626875 94.828125-98.135625 6.485625-0.665625 11.79375-0.45 16.6275-0.598125 5.56875-0.165 10.5-0.811875 15.8625-3.834375z m-65.385 189.200625c0.64125 10.245 6.586875 30.57 11.83875 35.510625-10.2825 2.50125-27.9975-1.63125-32.540625-8.88375 2.334375-10.47375 14.484375-20.0475 20.701875-26.626875z" fill="#C49A6C" p-id="1713"></path><path d="M438.575 393.359375c-2.019375 4.2375-5.885625 9.6975-5.885625 20.480625-0.016875 1.850625-1.40625 3.118125-1.42875 0.264375 0.103125-10.5375 2.893125-15.09375 5.8575-21.080625 1.37625-2.454375 2.206875-1.44375 1.456875 0.335625z m-2.034375-1.59375c-2.38125 4.040625-8.11875 11.41125-9.065625 22.155-0.17625 1.84125-1.674375 2.98125-1.445625 0.135 1.03125-10.486875 5.6175-17.05125 9.0975-22.756875 1.57875-2.319375 2.319375-1.2375 1.41375 0.465z m-1.8525-2.115c-2.715 3.825-11.544375 12.67875-13.39125 23.30625-0.331875 1.816875-1.92 2.83125-1.453125 0.013125 1.9125-10.366875 9.523125-18.51375 13.47-23.900625 1.768125-2.1825 2.415-1.0425 1.374375 0.58125z m-1.655625-2.35875l-0.8925 0.94875c-3.946875 4.23375-13.119375 14.5575-16.175625 24.005625-0.58875 1.755-2.3025 2.536875-1.441875-0.189375 3.346875-9.99375 12.56625-20.75625 17.23125-25.5375 2.05875-1.9125 2.53875-0.69 1.27875 0.7725z m-47.390625 21.39375c2.045625-8.78625 8.88-12.789375 20.6775-11.8125 2.84625 13.11375-13.085625 18.405-20.6775 11.8125z" fill="#002B64" p-id="1714"></path></svg>