<?xml version="1.0" standalone="no"?><!DOCTYPE svg PUBLIC "-//W3C//DTD SVG 1.1//EN" "http://www.w3.org/Graphics/SVG/1.1/DTD/svg11.dtd"><svg t="1704785965834" class="icon" viewBox="0 0 1968 1024" version="1.1" xmlns="http://www.w3.org/2000/svg" p-id="1280" xmlns:xlink="http://www.w3.org/1999/xlink" width="384.375" height="200"><path d="M959.935625 664.563125c-1.6846875-3.7246875-2.52-10.8675-2.52-21.3553125v-70.78125c0-14.9653125-1.3340625-26.0775-3.984375-33.301875-3.85875-10.378125-9.0525-17.84625-15.5653125-22.35375-6.5184375-4.5309375-14.2996875-6.7875-23.3428125-6.7875-17.625 0-36.163125 11.7075-55.5890625 35.1121875V509.984375h-7.7709375l-49.96875 20.265 2.7028125 6.51375c4.7184375-1.809375 8.75625-2.7075 12.135-2.7075 3.1340625 0 5.64 0.778125 7.5065625 2.3475 1.8721875 1.5796875 3.2503125 4.5215625 4.1671875 8.870625 0.91125 4.3434375 1.363125 16.4925 1.363125 36.39375v61.545c0 12.0721875-1.4878125 20.251875-4.44 24.523125-2.953125 4.30125-8.6503125 6.4321875-17.1028125 6.4321875h-3.6234375v6.5184375h82.0078125v-6.5184375c-9.0628125 0-15.0675-0.80625-18.01875-2.4571875-2.9625-1.618125-5.2903125-4.1859375-6.9703125-7.6846875-1.3246875-2.64-1.9875-9.6-1.9875-20.818125v-87.43125c14.2321875-15.6871875 28.5365625-23.525625 42.8934375-23.525625 9.2925 0 15.8971875 3.403125 19.828125 10.2290625 3.9121875 6.815625 5.885625 17.769375 5.885625 32.84625v67.88625c0 9.5428125-0.2503125 15.2015625-0.72 17.030625-1.215 4.5796875-3.346875 8.0540625-6.4228125 10.396875-3.0815625 2.3521875-8.48625 3.5325-16.209375 3.5325h-3.436875v6.5184375h81.9984375v-6.5184375c-7.95375 0-13.425-0.84375-16.3734375-2.529375a14.83125 14.83125 0 0 1-6.440625-7.08zM1160.159375 522.0125c-0.849375-0.301875-3.8690625-0.4509375-9.0628125-0.4509375h-35.101875c-11.6015625-7.723125-25.30125-11.5921875-41.0925-11.5921875-19.310625 0-35.146875 5.9184375-47.5153125 17.7459375-12.3796875 11.836875-18.553125 25.9434375-18.553125 42.36 0 10.741875 2.7178125 20.5490625 8.14125 29.4140625 5.443125 8.88 13.209375 15.7875 23.3625 20.72625-12.4321875 10.3875-20.371875 18.418125-23.80875 24.0871875-3.440625 5.668125-5.1646875 10.6078125-5.1646875 14.8359375 0 3.7396875 1.28625 7.0903125 3.883125 10.0565625 2.6015625 2.9615625 7.04625 6.3075 13.310625 10.040625-11.4675 11.9484375-17.6353125 18.485625-18.4753125 19.5609375-6.37875 7.9584375-10.6171875 14.17875-12.676875 18.6478125a20.7075 20.7075 0 0 0-1.9875 8.6784375c0 6.51375 4.5271875 12.7921875 13.565625 18.849375 16.065 10.4934375 35.7215625 15.735 59.015625 15.735 30.3028125 0 54.8540625-8.8125 73.6753125-26.424375 12.7921875-11.9521875 19.2-24.744375 19.2-38.3859375 0-9.901875-3.3459375-18.225-10.0509375-24.988125-6.6965625-6.7490625-15.658125-10.92-26.885625-12.48-7.3771875-1.0903125-23.4909375-1.935-48.335625-2.5303125-13.5121875-0.3740625-21.969375-0.79125-25.3490625-1.28625-5.803125-0.84-9.6909375-2.221875-11.6634375-4.15125-1.996875-1.935-2.9859375-3.9225-2.9859375-5.971875 0-2.4140625 0.9309375-5.3371875 2.7984375-8.784375 1.876875-3.44625 5.4721875-7.45875 10.775625-12.046875 8.5734375 2.428125 16.95 3.628125 25.171875 3.628125 19.9003125 0 35.769375-5.4909375 47.596875-16.47375 11.836875-10.978125 17.745-24.19125 17.745-39.6375 0-13.5121875-3.388125-24.6196875-10.1371875-33.3075h21.5371875c5.19375 0 8.236875-0.1921875 9.1490625-0.5475 0.9028125-0.3553125 1.535625-0.84 1.90125-1.4446875 0.6-1.2046875 0.91125-3.3796875 0.91125-6.5184375 0-2.775-0.36-4.7090625-1.089375-5.784375a3.0628125 3.0628125 0 0 0-1.8046875-1.56z m-121.655625 158.67375c14.596875 2.055 35.4815625 3.4321875 62.625 4.16625 18.5859375 0.4846875 31.021875 2.04 37.2965625 4.704375 6.1528125 2.649375 9.24375 7.104375 9.24375 13.3875 0 8.6971875-5.169375 16.8665625-15.48375 24.5278125-10.3059375 7.665-26.338125 11.495625-48.058125 11.495625-22.809375 0-40.2525-3.7340625-52.310625-11.221875-7.0078125-4.335-10.5065625-9.403125-10.5065625-15.2015625 0-4.4784375 1.4540625-9.35625 4.35375-14.6596875 2.8846875-5.323125 7.175625-11.0446875 12.84-17.1984375z m60.643125-72.6c-5.91375 6.8878125-13.464375 10.3246875-22.6321875 10.3246875-9.658125 0-17.615625-3.988125-23.889375-11.956875-8.20875-10.4971875-12.3075-25.2815625-12.3075-44.341875 0-14.7075 3.009375-25.6509375 9.043125-32.775 6.028125-7.1184375 13.5121875-10.6696875 22.44-10.6696875 9.6628125 0 17.563125 3.984375 23.7215625 11.9465625 8.323125 10.8534375 12.4996875 25.8815625 12.4996875 45.0675 0.009375 14.7309375-2.9625 25.52625-8.8753125 32.4046875z m-392.821875-98.1075c-13.7578125 0-26.79 3.5859375-39.106875 10.7625-12.2971875 7.1803125-22.2328125 18.283125-29.7740625 33.31125-7.5459375 15.024375-11.31375 30.1303125-11.31375 45.3459375 0 20.8753125 6.211875 39.7003125 18.643125 56.476875 14.72625 19.910625 34.5796875 29.8659375 59.563125 29.8659375 15.3215625 0 29.2228125-3.855 41.7215625-11.578125 12.495-7.7184375 22.3059375-19.190625 29.409375-34.3921875 7.1240625-15.20625 10.6903125-30.24 10.6903125-45.0815625 0-21.1246875-6.46125-39.834375-19.36875-56.1121875-15.215625-19.0603125-35.3559375-28.5984375-60.465-28.5984375z m34.7559375 148.430625c-7.6078125 9.6675-17.26125 14.4815625-28.96875 14.4815625-15.69 0-28.3284375-8.7309375-37.914375-26.24625-9.6-17.4909375-14.3953125-38.3090625-14.3953125-62.4375 0-14.971875 1.9875-27.2259375 5.971875-36.759375 3.9834375-9.5278125 9.200625-16.1953125 15.6525-20.0109375 6.465-3.796875 12.8728125-5.698125 19.2815625-5.698125 13.276875 0 24.2015625 5.79375 32.7740625 17.38125 12.6815625 16.8909375 19.0078125 40.070625 19.0078125 69.5184375-0.0046875 23.5246875-3.8015625 40.1184375-11.409375 49.771875z m521.3521875-148.430625c-13.756875 0-26.7890625 3.5859375-39.10125 10.7625-12.3065625 7.1803125-22.2525 18.283125-29.784375 33.31125-7.535625 15.024375-11.29875 30.1303125-11.29875 45.3459375 0 20.8753125 6.2109375 39.7003125 18.6384375 56.476875 14.7121875 19.910625 34.569375 29.8659375 59.55375 29.8659375 15.3215625 0 29.236875-3.855 41.7121875-11.578125 12.49875-7.7184375 22.310625-19.190625 29.43375-34.3921875 7.1034375-15.20625 10.6696875-30.24 10.6696875-45.0815625 0-21.1246875-6.440625-39.834375-19.363125-56.1121875-15.2015625-19.0603125-35.3615625-28.5984375-60.4603125-28.5984375z m34.76625 148.430625c-7.6078125 9.6675-17.2753125 14.4815625-28.963125 14.4815625-15.70125 0-28.3396875-8.7309375-37.929375-26.24625-9.6-17.4909375-14.3953125-38.3090625-14.3953125-62.4375 0-14.971875 2.0015625-27.2259375 5.975625-36.759375 3.975-9.5278125 9.2015625-16.1953125 15.658125-20.0109375 6.455625-3.796875 12.8878125-5.698125 19.295625-5.698125 13.2628125 0 24.1921875 5.79375 32.7553125 17.38125 12.676875 16.8909375 19.003125 40.070625 19.003125 69.5184375-0.0046875 23.5246875-3.8015625 40.1184375-11.4 49.771875z m-707.8125 6.15375c-1.565625-3.849375-2.353125-10.9725-2.353125-21.3553125v-71.3184375c0-14.96625-1.32375-25.9434375-3.9928125-32.9521875-3.984375-10.2571875-9.384375-17.64-16.2-22.16625-6.82125-4.5309375-14.625-6.7875-23.4525-6.7875-9.0384375 0-17.8659375 2.2659375-26.424375 6.7875-8.56875 4.52625-19.0659375 14.011875-31.4971875 28.5028125-2.535-11.4628125-7.5459375-20.2125-15.0290625-26.24625-7.4784375-6.024375-16.415625-9.043125-26.784375-9.043125-6.1584375 0-12.37875 1.27125-18.6525 3.8015625a64.9246875 64.9246875 0 0 0-17.563125 10.68c-2.16 1.809375-9.2925 8.7496875-21.3553125 20.821875V509.984375h-7.771875L328.34375 530.25875l2.701875 6.51375c4.7184375-1.81875 8.7553125-2.7065625 12.1340625-2.7065625 3.135 0 5.60625 0.763125 7.411875 2.265 1.8046875 1.5121875 3.13875 4.2534375 3.99375 8.2275 1.0940625 5.31375 1.6265625 17.0784375 1.6265625 35.3090625v63.3553125c0 10.2525-0.7875 17.1646875-2.341875 20.7309375-1.575 3.571875-3.8690625 6.1490625-6.8784375 7.775625-3.024375 1.651875-8.323125 2.4534375-15.931875 2.4534375v6.5128125h81.99375v-6.5128125c-9.043125 0-15.0571875-0.8015625-18.009375-2.4534375-2.9521875-1.6265625-5.19375-4.065-6.695625-7.32-1.5028125-3.25875-2.251875-10.310625-2.251875-21.1875v-88.8909375c5.424375-6.643125 13.1475-12.6 23.165625-17.91375 6.3975-3.49875 12.853125-5.255625 19.3725-5.255625 9.5325 0 16.95375 3.8690625 22.2721875 11.5921875 3.984375 5.9184375 5.9709375 15.6234375 5.9709375 29.145v71.3184375c0 9.8934375-0.3028125 15.8690625-0.9028125 17.9090625-1.3340625 4.359375-3.7153125 7.6078125-7.15125 9.778125-3.436875 2.1740625-9.75 3.25875-18.9121875 3.25875v6.5184375h83.8078125v-6.5184375c-8.4571875 0-14.41875-0.9309375-17.9184375-2.8125-3.49875-1.8675-5.88-4.190625-7.1521875-6.965625-1.261875-2.77875-1.895625-9.825-1.895625-21.1865625v-79.1184375l-0.369375-7.78125 0.369375-1.99125c9.178125-8.68875 16.9875-14.6259375 23.4525-17.8275 6.4415625-3.196875 12.87375-4.7953125 19.2815625-4.7953125 10.3828125 0 17.9184375 3.864375 22.6275 11.5828125 3.25875 5.53875 4.8909375 15.0909375 4.8909375 28.603125v71.3184375c0 9.661875-0.230625 15.5034375-0.7246875 17.563125-1.2046875 4.2234375-3.196875 7.3003125-5.975625 9.234375-3.9890625 2.7796875-9.5428125 4.1578125-16.6565625 4.1578125h-3.436875v6.5184375h81.82125v-6.5184375c-7.359375 0-12.6675-0.931875-15.9309375-2.8125-3.2690625-1.858125-5.5153125-4.095-6.7153125-6.76875z" fill="#422E25" p-id="1281"></path><path d="M235.750625 328.3428125c-27.3890625-34.7859375-52.651875-53.41875-67.5984375-89.765625-8.4046875 31.84875-31.32 36.485625-52.2815625 63.931875-33.504375 43.8571875-73.68 131.855625-63.015 214.4296875 6.470625 50.165625 24.7828125 88.9828125 49.5984375 122.55 15 20.2884375 29.2321875 34.17 44.5246875 46.434375 19.0996875 15.3309375 20.62125 21.9028125 21.16875 70.7859375l13.4015625 3.99375h1.3434375c-0.196875-18.52875-4.7709375-41.88 1.344375-58.6228125 6.901875-18.8971875 34.704375-31.2815625 46.92-46.621875 16.8675-21.16875 33.350625-45.946875 42.8971875-73.2440625 33.8015625-96.5128125 6.418125-176.341875-32.04375-243.3740625-2.0259375-3.5325-3.735-7.2909375-6.2596875-10.4971875z" fill="#2AA515" p-id="1282"></path><path d="M1546.4046875 453.089375c-17.8603125-7.9678125-41.4571875-11.9615625-70.790625-11.9615625h-109.88625v6.710625h8.150625c6.8925 0 12.350625 1.16625 16.3828125 3.5278125 4.040625 2.3428125 6.7246875 5.1028125 8.05875 8.221875 1.329375 3.144375 1.996875 10.9828125 1.996875 23.5303125v161.4675c0 12.67125-0.5428125 20.28-1.63125 22.809375a20.409375 20.409375 0 0 1-8.424375 9.13875c-3.796875 2.2415625-9.2596875 3.350625-16.3828125 3.350625h-8.150625v6.6965625h109.88625c15.82125 0 27.3890625-0.710625 34.771875-2.165625 16.64625-3.129375 30.7340625-7.5740625 42.25875-13.3096875a105.144375 105.144375 0 0 0 30.4996875-22.8046875c8.8078125-9.46125 15.988125-21.4903125 21.5465625-36.0290625 5.5490625-14.535 8.3184375-30.436875 8.3184375-47.6934375 0-24.99375-5.634375-47.375625-16.92-67.1615625-11.270625-19.7709375-27.84-34.554375-49.6846875-44.3278125z m-20.461875 199.483125c-10.618125 13.76625-26.011875 20.64-46.153125 20.64-6.148125 0-10.861875-0.9065625-14.11125-2.716875a10.228125 10.228125 0 0 1-4.88625-5.24625c-0.969375-2.2940625-1.449375-8.505-1.449375-18.6375v-191.540625c20.1403125-0.114375 34.569375 1.6996875 43.2571875 5.4440625 12.3075 5.29875 22.3921875 15.32625 30.234375 30.0375 9.898125 18.83625 14.8471875 43.9875 14.8471875 75.4996875-0.0140625 39.0965625-7.2525 67.9396875-21.73875 86.52z" fill="#8E704E" p-id="1283"></path><path d="M1502.590625 460.5153125c-8.6784375-3.7396875-23.1028125-5.5490625-43.258125-5.443125v191.53875c0 10.1278125 0.4846875 16.344375 1.44 18.6384375 0.96 2.295 2.596875 4.0415625 4.88625 5.24625 3.264375 1.809375 7.96875 2.716875 14.131875 2.716875 20.135625 0 35.5340625-6.87375 46.1465625-20.64 14.4815625-18.58125 21.72-47.4234375 21.72-86.5096875 0-31.516875-4.9434375-56.67375-14.84625-75.4996875-7.8375-14.7215625-17.9034375-24.7490625-30.2203125-30.0478125z" fill="#FFFFFF" p-id="1284"></path><path d="M1842.56 576.18125c-9.3984375-7.7184375-25.78125-14.2996875-49.0753125-19.72875 21.609375-5.41875 36.70125-12.7584375 45.27375-21.99375 8.5584375-9.225 12.849375-19.75125 12.849375-31.588125 0-11.221875-3.384375-21.8015625-10.1184375-31.76625-6.7678125-9.95625-16.0078125-17.4290625-27.7003125-22.44-11.7028125-5.011875-31.621875-7.516875-59.7365625-7.516875H1636.38125v6.7153125c11.221875 0 18.8878125 1.0078125 22.9875 3.0571875 4.09875 2.05875 6.9834375 4.8 8.600625 8.24625 1.6415625 3.436875 2.4478125 11.7984375 2.4478125 25.0509375v159.3121875c0 13.2675-0.80625 21.6-2.446875 24.984375-1.6228125 3.37875-4.4690625 6.12-8.5115625 8.2275-4.04625 2.11125-11.7309375 3.1725-23.0925 3.1725v6.6909375h124.7184375c34.771875 0 61.2478125-7.28625 79.4690625-21.8971875 14.855625-12.0675 22.276875-27.331875 22.276875-45.8015625 0.0140625-17.4965625-6.7734375-31.7428125-20.270625-42.7246875z m-114.9309375-121.2871875c17.6109375-0.1246875 30.384375 1.6275 38.356875 5.2471875 7.9678125 3.6234375 14.0925 8.9034375 18.37875 15.84375 4.28625 6.946875 6.418125 15.845625 6.418125 26.7028125 0 10.8628125-2.16 19.790625-6.51375 26.7890625-4.3303125 7.0078125-10.575 12.43125-18.72 16.295625-8.16 3.8690625-20.79375 5.803125-37.9153125 5.803125h-0.01875 0.01875V454.8940625h-0.0046875z m64.981875 193.23375c-4.3584375 8.15625-10.59375 14.3765625-18.7434375 18.658125-8.15625 4.276875-17.0446875 6.4265625-26.6934375 6.4265625-6.5278125 0-11.443125-1.6696875-14.7553125-4.978125-3.3215625-3.3253125-4.981875-8.23125-4.981875-14.76375l0.1921875-9.043125v-78.7396875c18.455625-0.12 32.3325 1.6275 41.64 5.2509375 9.27375 3.624375 16.575 9.9703125 21.8971875 19.085625 5.31375 9.1096875 7.963125 19.4109375 7.963125 30.868125-0.0046875 10.0125-2.184375 19.0996875-6.5184375 27.2353125z" fill="#8E704E" p-id="1285"></path><path d="M1769.249375 570.9340625c-9.2971875-3.6328125-23.1646875-5.3709375-41.64-5.25v78.73875l-0.181875 9.043125c0 6.5325 1.6603125 11.4375 4.981875 14.7646875 3.3028125 3.3065625 8.236875 4.978125 14.750625 4.978125 9.6478125 0 18.5371875-2.1515625 26.6878125-6.4275a44.0015625 44.0015625 0 0 0 18.744375-18.658125c4.35375-8.135625 6.5184375-17.221875 6.5184375-27.2446875 0-11.4571875-2.655-21.75375-7.963125-30.8690625-5.323125-9.105-12.6290625-15.4509375-21.898125-19.0753125z m15.015-41.461875c4.3434375-6.9984375 6.5128125-15.92625 6.5128125-26.7890625 0-10.8571875-2.1403125-19.7521875-6.4265625-26.701875-4.30125-6.9365625-10.415625-12.215625-18.384375-15.845625-7.9584375-3.628125-20.750625-5.3709375-38.3615625-5.24625V551.5625c17.1309375 0 29.769375-1.9340625 37.9153125-5.803125 8.1553125-3.8596875 14.4046875-9.2784375 18.744375-16.28625z m-56.6353125 22.0940625h-0.01875z" fill="#FFFFFF" p-id="1286"></path></svg>