<?xml version="1.0" standalone="no"?><!DOCTYPE svg PUBLIC "-//W3C//DTD SVG 1.1//EN" "http://www.w3.org/Graphics/SVG/1.1/DTD/svg11.dtd"><svg t="1704785971163" class="icon" viewBox="0 0 1972 1024" version="1.1" xmlns="http://www.w3.org/2000/svg" p-id="1424" xmlns:xlink="http://www.w3.org/1999/xlink" width="385.15625" height="200"><path d="M175.45833332 858.79426056h53.62910019v-212.4495585l83.73971804 185.23251782c9.5074714 22.25662042 23.12686945 30.45871829 49.51717274 30.45871829s39.16120852-8.26736655 49.10380444-30.45871829l83.32634976-185.23251782v212.4495585h54.04246848v-212.4495585c0-20.6249035-8.24561032-30.45871829-25.58532294-35.89777469-40.8364379-12.37929319-68.05347858-1.65347315-80.49804044 25.97693582l-82.02097623 183.18743178-79.21442312-183.18743178c-11.96592489-27.60865192-39.61808926-38.33447196-80.86789626-25.97693582C183.72569987 615.79895968 175.45833332 625.71979938 175.45833332 646.34470205v212.44955851z m417.91536695-172.85322464h54.04246764v116.76567096c-0.41336828 6.5268685 2.06684143 21.45164007 31.35072354 21.75622723 15.22935874 0.41336828 116.33054646 0 117.15728303 0v-139.34863477H849.90137428v191.01967383c0 47.01520679-58.17615134 57.32765854-85.41494824 57.74102683h-169.87262092v-35.87601846H765.0520879c34.65766983-3.72031458 30.45871829-21.03827179 30.4587183-26.8254278v-14.03276714h-114.26370503c-53.23748813-0.41336828-87.46003262-23.9318498-87.8734009-50.73552137 0-2.48020972 1.24010486-119.65924897 0-120.46422931z m1159.23704946-135.32373304c-32.98244046-0.82673657-58.58951962 2.48020972-80.04115969 11.57431285-6.17876889 2.48020972-16.07785153 2.48020972-16.90458894 10.31245175 3.30694629 3.28519006 3.69855835 8.70249106 6.5268685 13.20602975 4.96041943 8.26736655 13.64115427 19.38479865 21.45164009 25.15019842 8.70249106 6.5268685 17.40498129 13.20602976 26.4120595 18.99318658 16.07785153 9.87732724 34.22254532 15.66448325 49.90878479 25.58532295 9.07234689 5.76539978 18.14469379 13.18427353 27.21704068 19.38479864 4.52529492 3.30694629 7.44062997 8.70249106 13.20602976 10.72582004v-1.26186109c-2.87182177-3.67680213-3.69855835-9.05059067-6.52686851-13.18427353-4.13368286-4.11192664-8.24561032-7.85399827-12.37929317-11.96592488a195.34916355 195.34916355 0 0 0-42.92503638-41.6631753c-13.20602976-9.07234689-42.07654358-21.45164007-47.42857508-36.72451127l-0.80498034-0.82673657c9.05059067-0.82673657 19.77641071-4.13368286 28.45714553-6.52686849 14.03276633-3.69855835 26.80367157-2.87182177 41.33683108-6.52686768 6.5268685-1.67522937 13.20602976-3.7420708 19.81992317-5.78715683v-3.85085193c-7.41887375-7.41887375-12.79266147-17.40498129-20.62490351-24.32346186a550.01917777 550.01917777 0 0 0-68.07523479-50.7572784c-12.77090525-8.24561032-29.28388128-13.61939804-42.88152312-20.60314645-4.98217566-2.48020972-13.20602976-3.72031458-16.09960858-7.85399827-7.44062997-9.07234689-11.55255661-21.03827179-16.92634432-31.76409183-11.94416867-22.69174493-23.49672528-47.86369958-33.80917704-71.79554938-7.41887375-16.09960776-11.96592489-32.17746011-21.03827178-47.03696302C1517.81754672 232.99814331 1471.67258896 190.48647605 1400.70377617 148.8668132c-15.22935874-8.70249106-33.39580874-12.37929319-52.80236363-16.9045881-10.31245176-0.41336828-20.6249035-1.24010486-30.93735525-1.65347397-6.5268685-2.893578-13.20602976-10.72582004-18.97142954-14.44613461C1274.47414624 101.00311362 1213.81778519 68.78214105 1196.47807175 111.29380915c-11.13918832 26.80367157 16.51297605 53.19397568 25.99869123 66.81337371 7.02726169 9.48571518 16.07785153 20.21153522 21.03827178 30.93735444 2.893578 7.02726169 3.72031458 14.44613462 6.52686851 21.75622723 6.5268685 18.16645 12.79266147 38.37798441 21.45164008 55.28257333a196.74156199 196.74156199 0 0 0 15.22935873 25.60707916c3.30694629 4.52529492 9.07234689 6.5268685 10.31245174 14.01101011-5.78715601 8.26736655-6.17876889 20.6249035-9.48571517 30.95911147-14.8595029 46.6018385-9.07234689 104.42989023 11.9659249 138.6089231 6.5268685 10.31245176 22.27837665 33.00419668 43.31664844 24.32346186 18.57981831-7.41887375 14.44613462-30.93735525 19.79816611-51.56225877 1.26186109-4.93866321 0.41336828-8.24561032 2.89357882-11.55255661v0.82673657c5.76539978 11.55255661 11.55255661 22.69174493 16.9045881 34.24430156 12.79266147 20.21153522 35.09279434 41.33683191 53.65085642 55.28257333 9.89908347 7.41887375 17.73132549 20.21153522 30.11061786 24.75858636v-1.26186108h-0.82673657c-2.48020972-3.69855835-6.20052512-5.35203149-9.48571518-8.24561033a200.1572894 200.1572894 0 0 1-21.45164008-24.75858636 532.22258359 532.22258359 0 0 1-46.21022645-75.08073944c-6.5268685-12.77090525-12.37929319-26.80367157-17.70956844-39.59633387-2.50196594-4.96041943-2.50196594-12.37929319-6.52686851-14.83774667-6.20052512 9.07234689-15.22935874 16.90458811-19.81992233 28.04377726-7.83224204 17.73132549-8.70249106 39.59633303-11.55255661 62.28807796-1.65347315 0.41336828-0.82673657 0-1.65347315 0.82673657-13.18427353-3.28519006-17.73132549-16.90458811-22.6699887-28.45714553-12.37929319-29.28388128-14.46789084-76.32084512-3.74207163-110.15177755 2.893578-8.70249106 15.22935874-35.89777469 10.33420799-44.14338502-2.48020972-7.83224204-10.72582004-12.37929319-15.22935874-18.55806124a167.7405108 167.7405108 0 0 1-14.83774668-26.41206034c-9.89908347-23.10511322-14.83774668-48.66867993-25.56356753-71.79554938-4.98217566-10.72582004-13.61939804-21.86500836-20.64665891-31.764091-7.83224204-11.13918832-16.49121982-18.99318658-22.69174493-32.17746011-2.04508521-4.54705115-4.93866321-11.96592489-1.63171691-16.90458893a6.5268685 6.5268685 0 0 1 5.76539977-5.37378771c5.35203149-4.54705115 20.6249035 1.24010486 25.99869122 3.72031457 15.22935874 6.17876889 28.04377642 11.96592489 40.83643872 20.60314727 5.76539978 4.13368286 11.96592489 11.96592489 19.38479783 14.05452255h8.70249106c13.18427353 2.87182177 28.04377642 0.80498034 40.40131421 4.52529575a263.7289855 263.7289855 0 0 1 59.41625619 28.45714472 366.07027725 366.07027725 0 0 1 128.70983963 141.0891328c4.93866321 9.48571518 7.00550546 18.16645 11.55255662 28.06553266 8.70249106 20.21153522 19.40655488 40.8364379 28.04377642 60.63460565 8.70249106 19.38479865 16.92634433 39.16120852 29.30563833 55.28257252 6.20052512 8.70249106 30.93735525 13.20602976 42.07654276 17.7313255 8.26736655 3.72031458 21.03827179 7.02726169 28.47890177 11.5525566 14.0110101 8.70249106 28.04377642 18.55806208 41.33683108 28.06553266 6.5268685 4.93866321 27.21703986 15.22935874 28.45714553 23.47496905z" fill="#00678C" p-id="1425"></path><path d="M1331.82356101 192.13994919a64.13735715 64.13735715 0 0 0-16.90458892 2.17562256v0.80498035h0.80498034c3.30694629 6.5268685 9.09410312 11.16094455 13.20602975 16.9045881 3.28519006 6.5268685 6.20052512 13.20602976 9.48571518 19.81992316l0.82673657-0.82673658c5.76539978-4.11192664 8.70249106-10.72582004 8.70249106-20.6249035-2.48020972-2.893578-2.893578-5.78715601-4.96041943-8.70249024-2.48020972-4.13368286-7.83224204-6.20052512-11.13918832-9.48571517z" fill="#00678C" p-id="1426"></path><path d="M891.23820536 858.79426056h155.10014292a117.65767621 117.65767621 0 0 0 49.51717354-10.31245175C1119.37400334 837.75598877 1130.5567041 823.30985415 1130.5567041 804.36018002v-39.59633304c0-15.22935874-12.79266147-29.71900662-38.356229-39.61809009a135.3019768 135.3019768 0 0 0-45.79685816-7.83224121h-65.26868087c-21.75622723 0-32.17746011-6.5268685-35.07103812-21.03827178a20.03748542 20.03748542 0 0 1-0.41336828-4.93866404v-24.34521807a18.44928094 18.44928094 0 0 1 0.41336828-4.54705115c2.893578-11.13918832 8.70249106-14.03276633 27.65216438-16.07785236h158.8204583v-35.89777469h-150.96646005c-21.75622723 0-33.41756497 1.24010486-43.70826049 4.54705198-31.78584805 9.87732724-45.79685815 25.56356672-45.79685816 53.19397486v31.37247975c0 24.32346185 27.21703986 44.97012158 73.4272663 49.9087848 4.93866321 0.41336828 10.31245176 0.41336828 15.66448407 0.41336828h55.69594161a23.9318498 23.9318498 0 0 1 5.76539979 0.43512452c16.92634433 1.63171692 24.34521807 4.52529492 29.28388129 10.68230758a12.57509921 12.57509921 0 0 1 4.15543991 9.92083969v31.35072354c0 3.69855835-2.50196594 8.70249106-7.44062997 12.79266146s-12.8144177 7.00550546-23.10511323 7.41887293c-2.17562256 0-3.28519006 0.41336828-5.37378773 0.41336911H891.23820536z m575.06059506-62.28807879c0 36.72451126 27.65216438 57.34941476 82.93473771 61.48309845 5.35203149 0.41336828 10.29069553 0.80498034 15.66448406 0.80498034h140.26239624v-35.87601847h-141.41547702c-31.37247977 0-43.33840466-7.85399827-43.33840384-26.82542861v-185.64588611h-54.10773715v186.0592544z m-301.56306427 1.65347313v-127.88310222c0-32.63434085 23.083357-52.41075073 68.0752348-58.58951962 4.96041943-0.41336828 9.89908347-0.82673657 14.44613462-0.82673741h102.25426767c5.35203149 0 9.89908347 0.41336828 15.22935874 0.82673741 44.94836536 6.17876889 67.64011028 26.10747235 67.64011028 58.58951961v127.88310223c0 26.39030328-9.48571518 40.42306961-31.764091 49.93054185l52.8023628 47.86369959h-62.20105308l-42.90328015-38.76959729-43.33840467 2.48021054h-57.74102682a126.18611746 126.18611746 0 0 1-31.37247894-4.11192746c-34.20078909-9.5074714-51.12713342-27.65216438-51.12713425-57.34941477z m58.15439512-2.87182177a33.22175894 33.22175894 0 0 0 1.26186108 5.35203232c2.87182177 14.8595029 16.90458811 23.10511322 38.356229 23.10511321H1311.13338883l-44.55675329-40.44482665h62.28807797l39.16120935 35.50616263a25.78112896 25.78112896 0 0 0 13.61939804-17.40498129 23.47496906 23.47496906 0 0 0 0.41336829-5.37378855v-122.46580207a19.95046051 19.95046051 0 0 0-0.41336829-4.93866402c-2.893578-14.0110101-16.90458811-21.75622723-37.9428599-21.75622642h-81.19423965c-23.9318498 0-39.61808926 10.31245176-39.61809009 26.80367158zM1729.94076102 859.20762885h7.83224122v-30.11061869h10.31245175v-6.17876807h-28.87051301v6.17876807h10.72582004z m59.80786827-1e-8h7.41887292v-36.28938675h-11.1174321l-9.0941023 24.75858637-9.87732724-24.75858637h-10.72582003v36.28938675h7.00550546v-27.63040896h0.41336828l10.31245093 27.63040896h5.35203232l10.33420798-27.63040896v27.63040896z" fill="#CE8B2C" p-id="1427"></path></svg>