<?xml version="1.0" standalone="no"?><!DOCTYPE svg PUBLIC "-//W3C//DTD SVG 1.1//EN" "http://www.w3.org/Graphics/SVG/1.1/DTD/svg11.dtd"><svg t="1704786092702" class="icon" viewBox="0 0 1024 1024" version="1.1" xmlns="http://www.w3.org/2000/svg" p-id="1992" xmlns:xlink="http://www.w3.org/1999/xlink" width="200" height="200"><path d="M134.88 498.64c-4.72-5.6-10.8-10-18.16-13.12-7.36-3.12-15.76-4.72-25.12-4.72-9.44 0-18.4 1.6-26.88 4.72-8.4 3.2-16 7.52-22.64 13.12-6.64 5.6-12.24 12.16-16.72 19.68-4.48 7.52-7.52 15.68-9.04 24.32-1.52 8.72-1.36 16.8 0.56 24.4 1.84 7.52 5.12 14.08 9.84 19.68s10.72 10 18 13.12c7.36 3.2 15.76 4.72 25.2 4.72 9.36 0 18.32-1.6 26.8-4.72 8.48-3.2 16.08-7.52 22.8-13.12 6.72-5.6 12.32-12.16 16.8-19.68s7.52-15.68 9.04-24.4c1.52-8.72 1.36-16.8-0.56-24.32-1.84-7.52-5.12-14.08-9.92-19.68m-26.08 56.96c-2.48 3.92-5.44 7.36-8.96 10.24-3.52 2.88-7.44 5.2-11.68 6.8-4.24 1.6-8.56 2.4-13.04 2.4-4.4 0-8.48-0.8-12.16-2.4-3.68-1.6-6.8-3.84-9.2-6.8-2.48-2.88-4.24-6.32-5.28-10.24-1.12-3.92-1.28-8.24-0.48-12.88 0.8-4.64 2.48-8.96 4.88-12.88s5.44-7.36 8.88-10.24c3.52-2.88 7.36-5.12 11.6-6.8 4.24-1.6 8.56-2.4 13.04-2.4 4.4 0 8.48 0.8 12.16 2.4 3.68 1.6 6.8 3.84 9.36 6.8 2.56 2.88 4.32 6.32 5.36 10.24s1.2 8.24 0.4 12.88c-0.8 4.64-2.4 8.96-4.88 12.88M334.24 575.52h-61.36l3.6-20.24h59.28l4.48-25.84h-59.28l3.44-19.6h61.28l4.56-25.84H258.64l-20.56 117.36h91.68zM545.12 554.4l-35.36-70.4h-30.24l-20.56 117.36h30.24l12.56-70.4 35.36 70.4h30.16l20.56-117.36h-30.16z" fill="#0B6FFF" p-id="1993"></path><path d="M675.36 567.28c0.64-3.52 0.8-6.88 0.48-10-0.32-3.12-1.12-5.92-2.64-8.4-1.44-2.48-3.6-4.56-6.32-6.32-2.72-1.68-6.16-2.96-10.4-3.84 4.8-2.72 8.56-6 11.36-9.92 2.8-3.92 4.72-8.8 5.76-14.72 1.68-9.76 0.24-17.2-4.4-22.4-4.64-5.2-12.32-7.76-23.04-7.76h-49.12l-20.56 117.36h52.64c6.16 0 11.84-0.72 17.04-2.16 5.2-1.44 9.76-3.6 13.76-6.56 3.92-2.88 7.28-6.48 9.92-10.72 2.8-4.16 4.56-9.04 5.52-14.56m-52-59.92h9.52c9.44 0 13.52 3.76 12.24 11.36-1.36 7.6-6.72 11.36-16.24 11.36h-9.52l4-22.72z m15.2 67.36c-3.68 2-9.28 2.96-16.88 2.96h-10.64l4.4-24.88h10.64c7.6 0 12.88 0.96 15.84 2.96 2.96 2 4.08 5.12 3.28 9.52-0.8 4.32-3.04 7.52-6.64 9.44M855.84 529.76c-2.32-0.8-4.72-1.6-7.12-2.32-2.4-0.72-4.48-1.6-6.32-2.56a11.76 11.76 0 0 1-4.24-3.52c-0.96-1.36-1.28-3.04-0.96-5.12 0.56-3.04 2.16-5.44 4.96-7.28 2.8-1.84 6.16-2.8 10.08-2.8 3.12 0 6.16 0.64 9.2 1.92 3.04 1.28 6 3.28 8.8 6l16.24-23.84a68.056 68.056 0 0 0-34.48-9.52c-6.16 0-11.92 0.96-17.28 2.8-5.36 1.84-10 4.48-14.08 7.84-4.08 3.36-7.44 7.44-10.16 12.16-2.72 4.72-4.64 10-5.6 15.76-1.04 5.84-0.96 10.64 0.16 14.4 1.12 3.76 2.96 6.96 5.44 9.44 2.48 2.48 5.52 4.48 8.96 6 3.52 1.52 7.12 2.88 10.8 4.16 3.12 1.12 5.76 2.16 7.84 3.12 2.16 0.96 3.84 1.92 5.12 3.04 1.28 1.12 2.08 2.32 2.48 3.6 0.4 1.28 0.4 2.8 0.16 4.56-0.48 2.88-2.16 5.52-4.96 7.76-2.8 2.32-6.72 3.44-11.68 3.44-4.32 0-8.56-0.96-12.64-2.96s-8-4.96-11.84-9.04l-17.28 24.56c11.04 8.8 23.92 13.2 38.64 13.2 7.12 0 13.6-0.96 19.6-2.88 5.92-1.92 11.2-4.64 15.6-8.08 4.48-3.44 8.16-7.68 11.04-12.56 2.88-4.88 4.8-10.32 5.84-16.32 1.6-8.96 0.56-16.16-3.04-21.68-3.52-5.52-9.92-9.92-19.28-13.28" fill="#040D29" p-id="1994"></path><path d="M222.48 480.72c-8.16 0-16.16 1.52-24.16 4.56-7.92 3.04-15.2 7.28-21.76 12.8-6.56 5.44-12.16 11.92-16.88 19.44-4.64 7.52-7.76 15.76-9.36 24.8-1.6 9.04-1.36 17.36 0.72 24.96 2.08 7.6 5.44 14.24 10.08 19.76 4.64 5.52 10.4 9.84 17.2 12.88 6.8 3.04 14.24 4.56 22.32 4.56 3.92 0 7.92-0.4 12.08-1.2 4.16-0.8 8.72-2 13.6-3.68l3.28-1.12 6.32-36.08c-9.2 8.32-18.64 12.48-28.32 12.48-4.4 0-8.4-0.8-11.92-2.48-3.52-1.68-6.48-3.92-8.8-6.88-2.32-2.88-3.92-6.32-4.88-10.24-0.88-3.92-0.96-8.24-0.16-12.88a39.84 39.84 0 0 1 12.96-22.96c3.28-2.88 6.96-5.12 11.12-6.8 4.16-1.68 8.48-2.48 13.04-2.48 10.32 0 18.16 4.32 23.68 12.88l6.4-36.4c-4.56-2.08-9.04-3.6-13.36-4.56-4.08-0.8-8.56-1.36-13.2-1.36" fill="#0B6FFF" p-id="1995"></path><path d="M781.36 576.72c-4.88-0.96-14.48-1.44-30.88 2.32l3.76 22.72h32.32l-5.2-25.04z" fill="#040D29" p-id="1996"></path><path d="M780.08 569.84L774.8 544c-7.84 0.16-17.6 1.28-29.68 4.24-1.36 0.32-2.72 0.64-4.08 1.04-6.72 1.84-12.96 3.04-18.64 3.84l17.68-34 3.84 22.72c12.16-2.96 21.92-4.16 29.68-4.24l-10.88-53.2h-33.04L664.8 601.84h32.32l11.6-22.32c9.68-0.64 21.52-2.32 34.88-5.92 1.92-0.56 3.76-0.96 5.6-1.36 16.32-3.84 25.92-3.28 30.88-2.4" fill="#040D29" p-id="1997"></path><path d="M942.16 530.4c-24 6.16-42.32 5.52-50.32 4.8l-4.24 25.2c2.24 0.16 4.96 0.32 8 0.4 11.84 0.24 29.2-0.8 50.16-6.16 19.84-5.04 31.6-4.72 37.6-3.76l4.32-25.36c-10.16-1.04-24.88-0.4-45.52 4.88" fill="#0B6FFF" p-id="1998"></path><path d="M948.32 485.04c-22.96 5.84-40.64 5.6-49.2 4.96l-6.4 38.72c5.6 0.48 16.32 0.96 30.48-0.96l2.24-13.52c7.92-0.96 16.8-2.48 26.48-4.96 21.2-5.44 33.12-4.72 38.72-3.6l4.32-25.44c-10.16-1.2-25.12-0.72-46.64 4.8M936.32 574.24c-7.6 1.92-14.64 3.2-20.88 4l2.08-12.4c-8.8 0.96-16.48 1.2-22.56 1.12-2.96-0.08-5.6-0.16-7.84-0.32l-6.48 37.6c2.48 0.24 5.52 0.4 9.04 0.48 11.84 0.24 29.2-0.8 50.16-6.16 18.72-4.8 30.24-4.8 36.48-3.92l4.32-25.28c-10-1.04-24.32-0.24-44.32 4.88" fill="#040D29" p-id="1999"></path><path d="M399.44 484l-64.88 117.36h32.32l10.48-20.4h43.28l3.36 20.4h32.32L432.48 484h-33.04z m-10 73.76l20.4-39.04 6.72 39.04h-27.12z" fill="#0B6FFF" p-id="2000"></path></svg>