<?xml version="1.0" standalone="no"?><!DOCTYPE svg PUBLIC "-//W3C//DTD SVG 1.1//EN" "http://www.w3.org/Graphics/SVG/1.1/DTD/svg11.dtd"><svg t="1710313000887" class="icon" viewBox="0 0 1024 1024" version="1.1" xmlns="http://www.w3.org/2000/svg" p-id="2191" xmlns:xlink="http://www.w3.org/1999/xlink" width="200" height="200"><path d="M96.256 159.744v256h832v-256c0-38.4-25.6-64-64-64H159.744c-31.744 0.512-63.488 26.112-63.488 64z m768 192.512H159.744V159.744h704v192.512h0.512z" p-id="2192"></path><path d="M159.744 586.24V415.744h704v170.496h64.512V352.256H96.256v233.984zM230.4 224.256h256v64H230.4z" p-id="2193"></path><path d="M96.768 779.264c0-99.84 58.88-164.864 158.72-164.864s158.208 65.024 158.208 164.864c0 98.816-58.88 157.696-158.208 157.696s-158.72-59.392-158.72-157.696z m158.72 103.424c50.176 0 80.384-39.424 80.384-103.424 0-20.992-3.072-39.936-9.216-56.32-12.288-33.28-37.888-53.248-71.168-53.248-48.64 0-80.896 45.056-80.896 109.568 0 64 29.696 103.424 80.896 103.424zM432.64 620.032h118.272c97.792 0 149.504 58.368 149.504 156.16 0 101.376-51.712 155.136-151.552 155.136H432.64v-311.296z m118.784 256c12.288 0 24.576-4.096 35.328-11.776 22.528-15.872 37.888-47.104 37.888-87.552 0-56.832-32.768-101.376-73.216-101.376h-45.568v200.704h45.568zM816.128 936.96c-39.936 0-75.776-8.192-106.496-25.6v-65.536c32.256 19.968 75.264 34.304 107.008 34.304 26.112 0 41.984-14.336 43.52-30.72 3.072-23.552-18.432-43.008-57.344-55.296-22.528-7.168-39.936-14.336-52.224-22.016-25.088-14.336-38.4-35.328-38.4-68.608 0-49.152 36.864-86.016 98.816-89.088 2.56-0.512 6.656-0.512 12.288-0.512 30.72 0 64.512 7.168 85.504 16.384v57.344c-23.04-10.24-57.856-17.408-81.408-17.408-30.208 0-46.592 11.264-46.592 30.208 0 17.408 16.896 30.208 52.736 42.496 22.016 6.144 38.912 13.312 52.736 20.992 27.136 15.872 43.52 40.448 43.52 78.336 0 53.248-38.4 91.136-99.328 93.696-2.048 1.024-7.68 1.024-14.336 1.024z" p-id="2194"></path></svg>