<?xml version="1.0" standalone="no"?><!DOCTYPE svg PUBLIC "-//W3C//DTD SVG 1.1//EN" "http://www.w3.org/Graphics/SVG/1.1/DTD/svg11.dtd"><svg t="1704786004187" class="icon" viewBox="0 0 2864 1024" version="1.1" xmlns="http://www.w3.org/2000/svg" p-id="2150" xmlns:xlink="http://www.w3.org/1999/xlink" width="559.375" height="200"><path d="M1255.68 555.84h148.48l-78.4-125.76-144 227.2h-65.6L1291.52 384a41.92 41.92 0 0 1 68.16 0L1536 657.28h-66.24L1440 608h-150.4l-32-50.56zM1936.96 608v-236.8h-55.68v260.16a27.2 27.2 0 0 0 8 19.2 28.8 28.8 0 0 0 20.48 8.32h253.76l32-50.56h-259.2z m-920.64-43.84a96 96 0 0 0 0-194.56h-243.52v288h55.68v-236.8h184a46.4 46.4 0 0 1 32 79.04 47.04 47.04 0 0 1-32 13.76h-156.8l166.08 143.68h80.96L992 564.16z m-585.92 93.12a143.68 143.68 0 1 1 0-288h168a143.68 143.68 0 1 1 0 288h-168zM594.88 608a94.08 94.08 0 0 0 66.24-27.2 92.8 92.8 0 0 0 0-131.2 94.08 94.08 0 0 0-66.24-27.2h-160a93.12 93.12 0 0 0 0 186.24h160z m1056 50.56a144.96 144.96 0 0 1-128-71.36 143.04 143.04 0 0 1 0-144.64 144.96 144.96 0 0 1 128-71.36h200l-32 50.56h-163.52a93.76 93.76 0 0 0-82.56 46.08 92.48 92.48 0 0 0 0 94.08A93.76 93.76 0 0 0 1655.36 608H1856l-32 50.56h-172.48zM2332.48 608a93.44 93.44 0 0 1-89.92-67.52h237.44l32-50.56h-269.76a93.76 93.76 0 0 1 90.24-67.84H2496l32-50.56h-199.36a143.68 143.68 0 0 0 0 288h171.84l32-50.56h-200z m225.92-206.08a25.6 25.6 0 1 1 25.6 25.28 25.6 25.6 0 0 1-25.6-25.28z" fill="#FF0000" p-id="2151"></path><path d="M2580.8 381.12a25.28 25.28 0 0 1 9.6 0 10.24 10.24 0 0 1 7.04 10.24 14.08 14.08 0 0 1 0 2.88 9.92 9.92 0 0 1-4.48 6.08h-1.6l8.32 15.04H2592l-7.36-13.76h-4.8V416h-7.04v-34.88h9.28z" fill="#FFFFFF" p-id="2152"></path><path d="M2583.36 397.44a6.72 6.72 0 0 0 6.08-2.24 5.44 5.44 0 0 0 0-3.2 4.8 4.8 0 0 0-2.88-4.48 17.6 17.6 0 0 0-6.72 0h-1.92v10.56h4.48z" fill="#FF0000" p-id="2153"></path></svg>