<?xml version="1.0" standalone="no"?><!DOCTYPE svg PUBLIC "-//W3C//DTD SVG 1.1//EN" "http://www.w3.org/Graphics/SVG/1.1/DTD/svg11.dtd"><svg t="1704785996326" class="icon" viewBox="0 0 1024 1024" version="1.1" xmlns="http://www.w3.org/2000/svg" p-id="1861" xmlns:xlink="http://www.w3.org/1999/xlink" width="200" height="200"><path d="M879.87865483 571.00059788c-12.5733633-10.77716844-28.73911634-12.5733633-44.90487015-7.18477871-12.5733633 3.59238973-26.94292148 5.38858461-39.51628555 5.38858384 35.92389581-59.27442833 62.8668173-123.9374405 80.82876598-192.19284161 8.98097356-30.53531122 14.36955817-62.8668173 14.36955817-96.99451902 3.59238973-26.94292148-3.59238973-53.88584372-19.75814278-75.44018059-44.90486938-57.47823346-114.95646615-89.80973954-186.80425778-88.01354468h-5.3885846c-30.53531122 0-61.07062242 5.38858461-89.80973954 12.57336331h-1.79619488c-17.96194792-3.59238973-37.72009069-5.38858461-55.68203782-5.38858461-34.12770095-1.79619487-70.05159677 7.18477947-100.58690798 25.14672738-43.10867528-16.16575304-91.60593441-23.35053252-138.30699866-21.55433765-43.10867528 0-86.21734981 17.96194792-116.75266179 48.49725912-32.33150608 34.12770095-48.49725912 86.21734981-46.70106425 159.86133631 3.59238973 32.33150608 8.98097356 64.66301216 16.16575304 95.19832337 10.77716844 46.70106425 23.35053252 91.60593441 39.51628555 136.5108038 12.5733633 41.31248042 34.12770095 80.82876521 62.86681729 113.16027206 14.36955817 14.36955817 34.12770095 23.35053252 55.6820386 25.14672661 16.16575304 0 30.53531122-7.18477947 43.10867452-17.96194715 10.77716844 12.5733633 25.14672739 19.75814277 41.31248042 23.35053176 21.55433764 5.38858461 43.10867528 7.18477947 64.66301216 3.59238973 10.77716844-1.79619487 19.75814277-5.38858461 28.73911712-8.98097434 0 10.77716844 0 21.55433764 1.79619485 32.33150685-1.79619487 32.33150608 3.59238973 62.8668173 12.57336331 93.4021285 3.59238973 17.96194792 12.5733633 34.12770095 25.14672661 48.49725913 25.14672739 23.35053252 59.27442833 32.33150608 91.60593441 25.14672737 34.12770095-5.38858461 66.45920703-23.35053252 86.21734982-50.29345398 23.35053252-32.33150608 34.12770095-80.82876521 35.9238958-158.06514145 0-3.59238973 1.79619487-7.18477947 1.79619488-10.77716842h5.3885846c30.53531122 1.79619487 61.07062242-3.59238973 88.0135439-14.36955895 21.55433764-8.98097356 41.31248042-23.35053252 55.68203859-43.10867452 3.59238973-7.18477947 7.18477947-14.36955817 8.98097435-21.55433765 1.79619487-14.36955817-3.59238973-26.94292148-14.36955818-35.92389581z m-10.77716919 41.31248042c-12.5733633 16.16575304-26.94292148 26.94292148-46.70106426 34.12770095-21.55433764 8.98097356-44.90486938 12.5733633-68.2554019 12.5733633-10.77716844 0-21.55433764-1.79619487-32.33150607-3.59238974-5.38858461 44.90486938-8.98097356 89.80973954-17.96194791 134.7146097-1.79619487 21.55433764-12.5733633 43.10867528-26.94292225 61.07062242-17.96194792 16.16575304-39.51628555 26.94292148-62.86681729 28.73911635-26.94292148 7.18477947-53.88584372 1.79619487-75.44018137-14.36955817-12.5733633-10.77716844-21.55433764-26.94292148-28.73911635-43.10867452-3.59238973-10.77716844-5.38858461-19.75814277-7.18477947-30.53531198-1.79619487-16.16575304-3.59238973-32.33150608-3.59238897-46.70106426-1.79619487-28.73911634-1.79619487-55.6820386-1.79619486-82.62496006-14.36955817 12.5733633-32.33150608 21.55433764-50.293454 25.14672738-17.96194792 3.59238973-37.72009069 1.79619487-55.68203858-3.59238974-5.38858461-1.79619487-10.77716844-3.59238973-16.16575304-7.18477947-7.18477947-1.79619487-10.77716844-7.18477947-14.36955818-12.5733633-1.79619487-3.59238973-3.59238973-8.98097356-1.79619486-12.57336331 1.79619487-3.59238973 3.59238973-8.98097356 7.1847787-10.7771692 8.98097356-5.38858461 17.96194792-8.98097356 28.73911711-10.77716845 12.5733633-1.79619487 25.14672739-5.38858461 37.72008991-10.7771692 7.18477947-5.38858461 12.5733633-12.5733633 17.96194791-19.758142v-1.79619488c-16.16575304 0-30.53531122-5.38858461-44.90486938-10.7771692-5.38858461 5.38858461-28.73911634 30.53531122-61.07062244 68.25540189-10.77716844 14.36955817-25.14672739 23.35053252-43.10867528 25.14672738-16.16575304 0-30.53531122-7.18477947-41.31248041-17.9619479-26.94292148-30.53531122-44.90486938-66.45920703-57.47823269-104.17929772-14.36955817-46.70106425-26.94292148-91.60593441-35.92389583-136.51080379-7.18477947-30.53531122-12.5733633-59.27442833-16.16575303-89.80973954-3.59238973-68.25540189 12.5733633-113.16027128 39.51628478-141.89938841 26.94292148-26.94292148 62.8668173-41.31248042 102.38310361-43.1086745 48.49725912-1.79619487 96.99451824 7.18477947 141.89938762 25.1467266 28.73911634-17.96194792 61.07062242-26.94292148 95.19832416-26.94292148 17.96194792 0 37.72009069 3.59238973 55.68203858 7.18477947 7.18477947-3.59238973 16.16575304-5.38858461 25.14672661-7.18477947 23.35053252-5.38858461 44.90486938-7.18477947 68.25540191-8.98097434 68.25540189-1.79619487 132.91841406 26.94292148 176.02708934 80.82876598 10.77716844 17.96194792 16.16575304 41.31248042 14.36955818 62.86681729-1.79619487 30.53531122-7.18477947 61.07062242-14.36955818 91.60593441-19.75814277 75.44018137-52.08964885 147.28797223-95.19832415 213.74717925 1.79619487 1.79619487 3.59238973 1.79619487 5.38858461 3.59238975 25.14672739 5.38858461 50.293454 5.38858461 75.44018137-1.79619487 8.98097356-3.59238973 19.75814277-1.79619487 28.73911635 1.79619487 3.59238973 3.59238973 7.18477947 8.98097356 7.18477947 14.36955817-5.38858461 0-5.38858461 5.38858461-7.18477947 8.98097434z" p-id="1862"></path><path d="M680.50103298 159.67199162h-5.38858461c-17.96194792 0-37.72009069 1.79619487-55.68203781 7.18477948 35.92389581 16.16575304 68.25540189 43.10867528 93.4021285 73.64398573 14.36955817 19.75814277 26.94292148 39.51628555 37.72009069 62.86681806 3.59238973 8.98097356 7.18477947 16.16575304 8.98097356 21.55433764 0 3.59238973 1.79619487 5.38858461 1.79619487 8.98097358v5.3885846c1.79619487 28.73911634-7.18477947 46.70106425-7.1847787 75.44018059 0 19.75814277 5.38858461 43.10867528 5.38858383 68.2554019 3.59238973 26.94292148-3.59238973 53.88584372-17.96194713 75.44018137 1.79619487 1.79619487 3.59238973 3.59238973 3.59238896 5.38858461 37.72009069-61.07062242 68.25540189-127.52983022 86.21734981-197.58142699 7.18477947-28.73911634 12.5733633-57.47823346 12.57336408-86.21734981 1.79619487-16.16575304-1.79619487-32.33150608-8.98097435-48.49725911-35.92389581-48.49725912-93.40212928-73.6439865-154.4727517-71.84779165z" fill="#306092" p-id="1863"></path><path d="M526.02828128 166.8567711c-32.33150608-1.79619487-62.8668173 8.98097356-86.21734981 28.73911633-21.55433764 17.96194792-35.92389581 43.10867528-46.70106425 68.25540192-8.98097356 25.14672739-14.36955817 52.08964885-16.16575305 79.03257109 14.36955817-7.18477947 28.73911634-12.5733633 44.90486939-16.16575381 16.16575304-3.59238973 34.12770095-3.59238973 50.29345399 1.79619487 17.96194792 7.18477947 30.53531122 23.35053252 34.12770096 43.10867529 23.35053252 105.97549258-7.18477947 145.49177813-17.96194791 177.82328421-5.38858461 10.77716844-8.98097356 21.55433764-10.77716844 32.33150608 1.79619487 0 3.59238973 0 5.3885846-1.79619486 5.38858461 0 12.5733633 1.79619487 17.96194715 3.59238974 10.77716844 5.38858461 19.75814277 14.36955817 23.35053249 26.94292147 1.79619487 3.59238973 1.79619487 7.18477947 1.79619488 8.98097357v5.38858461c-1.79619487 41.31248042-1.79619487 82.62496007 0 123.93744048 0 16.16575304 1.79619487 30.53531122 3.59238974 46.70106425 0 8.98097356 1.79619487 16.16575304 5.38858383 25.14672738 3.59238973 12.5733633 10.77716844 23.35053252 21.55433763 32.33150608s26.94292148 14.36955817 55.68203861 8.98097358c17.96194792-1.79619487 35.92389581-10.77716844 50.29345398-23.35053175 10.77716844-14.36955817 17.96194792-30.53531122 19.75814278-48.49725912 7.18477947-34.12770095 17.96194792-134.71460893 19.75814277-152.67655761 0-10.77716844 1.79619487-23.35053252 7.18477871-32.33150608 3.59238973-7.18477947 10.77716844-12.5733633 17.9619479-16.16575303 3.59238973-1.79619487 5.38858461-1.79619487 8.98097435-3.59238975-3.59238973-3.59238973-5.38858461-7.18477947-8.98097435-10.77716843-8.98097356-10.77716844-16.16575304-23.35053252-21.55433686-35.92389581-3.59238973-5.38858461-5.38858461-10.77716844-8.98097435-16.16575305-5.38858461-8.98097356-8.98097356-17.96194792-16.16575304-28.73911633-12.5733633-23.35053252-23.35053252-48.49725912-30.53531121-75.44018138-7.18477947-26.94292148-8.98097356-52.08964885 8.98097357-71.84779163 14.36955817-16.16575304 41.31248042-25.14672739 80.82876597-19.75814278-1.79619487-3.59238973-1.79619487-7.18477947-3.59238973-10.77716843-7.18477947-21.55433764-19.75814277-41.31248042-34.12770096-57.47823347-39.51628555-53.88584372-102.38310285-84.42115493-168.84230987-86.2173498l-7.18477947-5.38858383z" fill="#306092" p-id="1864"></path><path d="M306.89251741 168.65296597h-12.57336408c-32.33150608 0-64.66301216 12.5733633-86.2173498 35.92389581-23.35053252 23.35053252-39.51628555 62.8668173-35.92389504 129.32602432 3.59238973 28.73911634 8.98097356 57.47823346 14.36955817 86.21734981 8.98097356 44.90486938 21.55433764 88.01354467 37.72009068 131.12221919 10.77716844 35.92389581 28.73911634 68.25540189 52.08964809 96.99451902 5.38858461 7.18477947 14.36955817 10.77716844 25.14672738 10.77716843 10.77716844-1.79619487 19.75814277-7.18477947 26.94292148-16.16575305 19.75814277-23.35053252 39.51628555-46.70106425 59.27442833-66.45920702-30.53531122-25.14672739-44.90486938-64.66301216-37.72009069-104.17929771 1.79619487-21.55433764 3.59238973-43.10867528 3.59238974-66.45920703 0-17.96194792-1.79619487-28.73911634-1.79619487-35.92389582V368.03058705c0-37.72009069 7.18477947-75.44018137 19.75814277-111.36407642 8.98097356-25.14672739 23.35053252-48.49725912 43.10867452-68.25540266-30.53531122-10.77716844-62.8668173-16.16575304-95.19832337-17.96194791-5.38858461-1.79619487-8.98097356-1.79619487-12.57336331-1.79619409zM730.79448698 412.93545643c1.79619487-28.73911634 7.18477947-46.70106425 7.18477946-66.45920701-8.98097356-1.79619487-16.16575304-1.79619487-25.14672738-1.79619489-14.36955817-1.79619487-28.73911634 3.59238973-41.31247964 12.57336409-8.98097356 8.98097356-8.98097356 28.73911634-5.3885846 52.08964886 7.18477947 25.14672739 16.16575304 48.49725912 28.73911633 70.05159676 5.38858461 10.77716844 10.77716844 19.75814277 14.36955818 28.73911634 3.59238973 5.38858461 7.18477947 12.5733633 8.98097434 17.96194792 1.79619487 3.59238973 3.59238973 8.98097356 7.18477869 10.77716843 7.18477947-17.96194792 10.77716844-35.92389581 8.98097434-53.88584373 1.79619487-21.55433764-3.59238973-46.70106425-3.59238972-70.05159677z m-12.57336331-53.88584295c0 1.79619487 0 3.59238973-1.79619487 5.38858384-1.79619487 1.79619487-1.79619487 3.59238973-3.59238974 5.3885846-3.59238973 3.59238973-8.98097356 5.38858461-12.57336331 7.18477948-5.38858461 0-8.98097356 0-12.5733633-3.59238974-1.79619487-1.79619487-3.59238973-1.79619487-5.3885846-3.59238974-1.79619487 0-1.79619487-1.79619487-1.79619487-3.59238973s0-3.59238973 1.79619487-5.38858461l3.59238974-3.59238896c5.38858461-3.59238973 12.5733633-5.38858461 17.96194791-5.38858461h8.98097356c1.79619487 0 3.59238973 1.79619487 5.38858461 1.79619488v5.38858459z" fill="#306092" p-id="1865"></path><path d="M482.91960675 375.21536653c-1.79619487-12.5733633-8.98097356-23.35053252-21.55433763-28.73911712-5.38858461-1.79619487-10.77716844-1.79619487-16.16575305-1.79619488-7.18477947 0-12.5733633 1.79619487-19.75814277 1.79619488-12.5733633 3.59238973-25.14672739 8.98097356-37.72009068 14.36955817-3.59238973 1.79619487-7.18477947 5.38858461-10.77716845 8.98097434 0 5.38858461 1.79619487 16.16575304 1.79619489 32.33150609 0 23.35053252 0 46.70106425-3.59238974 68.25540188-8.98097356 48.49725912 23.35053252 93.40212928 71.84779162 102.38310285 3.59238973 0 5.38858461 0 8.98097357 1.79619488 3.59238973-10.77716844 8.98097356-23.35053252 10.77716843-35.92389582 10.77716844-32.33150608 37.72009069-59.27442833 16.16575382-163.45372528z m-12.57336407 1.79619487l-5.38858382 5.38858382c-3.59238973 3.59238973-8.98097356 5.38858461-14.36955895 3.59238974-5.38858461-1.79619487-8.98097356-3.59238973-12.5733633-8.98097356-1.79619487-1.79619487-3.59238973-3.59238973-3.59238975-5.38858461-3.59238973-3.59238973-3.59238973-5.38858461-3.59238896-7.18477947 0-3.59238973 3.59238973-5.38858461 7.18477871-7.1847787 3.59238973-1.79619487 7.18477947-1.79619487 8.98097433-1.79619487h5.38858384c5.38858461 0 8.98097356 1.79619487 12.57336408 5.38858383 1.79619487 1.79619487 3.59238973 1.79619487 5.38858382 3.59238974s1.79619487 3.59238973 1.79619487 7.18477947c-1.79619487 1.79619487-1.79619487 3.59238973-1.79619487 5.38858461zM745.16404514 599.739715c-3.59238973 1.79619487-7.18477947 1.79619487-10.77716844 1.79619487-3.59238973 1.79619487-5.38858461 3.59238973-8.98097434 7.1847787-1.79619487 7.18477947-3.59238973 14.36955817-3.59238895 21.55433763 1.79619487 1.79619487 3.59238973 1.79619487 5.38858382 1.79619488 7.18477947 1.79619487 16.16575304 3.59238973 25.14672739 3.59238973 21.55433764 0 41.31248042-3.59238973 61.07062242-10.7771692 10.77716844-5.38858461 21.55433764-10.77716844 30.53531199-19.75814278-46.70106425 8.98097356-70.05159677 7.18477947-86.21734981 0-5.38858461-1.79619487-8.98097356-3.59238973-12.57336408-5.38858383zM481.1234119 603.33210396c-1.79619487 0-5.38858461 0-8.98097435 7.18477947-10.77716844 12.5733633-14.36955817 21.55433764-25.14672661 28.73911635-14.36955817 8.98097356-28.73911634 14.36955817-46.70106502 16.16575303-5.38858461 0-10.77716844 1.79619487-14.36955817 5.38858461l1.79619487 1.79619487c3.59238973 1.79619487 8.98097356 3.59238973 10.77716844 5.3885846 14.36955817 3.59238973 30.53531122 5.38858461 46.70106501 3.59238897 21.55433764-3.59238973 41.31248042-16.16575304 52.08964887-34.12770095 3.59238973-5.38858461 3.59238973-10.77716844 0-16.16575304-1.79619487-5.38858461-7.18477947-10.77716844-10.77716922-12.5733633 0-5.38858461-3.59238973-5.38858461-5.38858382-5.38858461z" fill="#306092" p-id="1866"></path></svg>