<?xml version="1.0" standalone="no"?><!DOCTYPE svg PUBLIC "-//W3C//DTD SVG 1.1//EN" "http://www.w3.org/Graphics/SVG/1.1/DTD/svg11.dtd"><svg t="1705369349541" class="icon" viewBox="0 0 1024 1024" version="1.1" xmlns="http://www.w3.org/2000/svg" p-id="1969" xmlns:xlink="http://www.w3.org/1999/xlink" width="200" height="200"><path d="M662.624 671.776a31.968 31.968 0 1 0-45.248 45.248l112 112a31.968 31.968 0 1 0 45.248-45.248l-112-112z" p-id="1970"></path><path d="M712.896 571.616a247.36 247.36 0 0 0-334.112-269.568 31.968 31.968 0 0 0-11.008 52.448L465.6 452.32a31.968 31.968 0 0 1 0 45.248l-31.328 31.328a31.968 31.968 0 0 1-45.248 0l-98.144-98.144a32 32 0 0 0-52.384 10.848 247.36 247.36 0 0 0 268 335.456L652.32 922.88a145.6 145.6 0 1 0 205.92-205.92L712.896 571.616z m100.096 306.016a81.6 81.6 0 0 1-115.392 0L527.264 707.296l-17.28 4a183.36 183.36 0 0 1-224.032-194.944l57.824 57.824a96 96 0 0 0 135.776 0l31.328-31.328a96 96 0 0 0 0-135.776l-57.248-57.248a183.36 183.36 0 0 1 193.472 225.024l-4.096 17.376L813.024 762.24c31.808 31.872 31.808 83.52-0.032 115.392z" p-id="1971"></path><path d="M944.672 423.328l-363.2-363.2a96.096 96.096 0 0 0-135.776 0l-363.2 363.2A96.032 96.032 0 0 0 97.6 571.392V896c0 52.928 43.072 96 96 96h320a32 32 0 1 0 0-64h-320c-17.632 0-32-14.336-32-32V551.744a32.012 32.012 0 0 0-21.6-30.272 32 32 0 0 1-12.256-52.896l363.2-363.2a32.064 32.064 0 0 1 45.28 0l363.2 363.232c6.048 6.016 9.376 14.048 9.376 22.624a31.808 31.808 0 0 1-21.6 30.24 32.032 32.032 0 0 0-21.632 30.272v76.544a32 32 0 1 0 64 0v-56.864a95.456 95.456 0 0 0 43.232-80.192c0-25.664-9.984-49.792-28.128-67.904z" p-id="1972"></path></svg>