<?xml version="1.0" standalone="no"?><!DOCTYPE svg PUBLIC "-//W3C//DTD SVG 1.1//EN" "http://www.w3.org/Graphics/SVG/1.1/DTD/svg11.dtd"><svg t="1704785978417" class="icon" viewBox="0 0 1024 1024" version="1.1" xmlns="http://www.w3.org/2000/svg" p-id="1565" xmlns:xlink="http://www.w3.org/1999/xlink" width="200" height="200"><path d="M122.42480469 749.70019531v-9.4921875c7.11914063-8.70117188 15.8203125-11.07421875 25.70800781-10.28320312 61.30371094 3.95507813 113.11523438-23.73046875 164.13574219-51.02050782 94.921875-51.02050781 194.58984375-88.59375 303.75-99.66796874 23.73046875-2.37304688 47.06542969-2.37304688 70.79589844-6.328125 14.23828125-2.37304688 19.77539063-8.70117188 12.65625-22.93945313-33.61816406-63.28125-60.90820313-128.93554688-101.64550782-187.86621094-7.91015625-11.86523438-17.40234375-22.93945313-26.49902343-32.03613281-35.20019531-35.20019531-74.35546875-32.03613281-105.99609375 7.11914063-27.68554688 35.20019531-48.25195313 74.35546875-68.42285157 113.51074218-27.29003906 52.60253906-58.93066406 102.83203125-104.4140625 141.19628907-41.52832031 35.20019531-87.80273438 56.55761719-143.56933593 53.39355468-9.4921875-0.79101563-19.77539063 0.79101563-24.12597657-11.86523437-2.37304688-14.23828125 2.37304688-28.87207031-2.37304687-43.11035157v-4.74609375c10.28320313-11.86523438 24.12597656-13.44726563 38.36425781-15.02929687 52.60253906-7.11914063 83.05664063-43.90136719 110.7421875-83.05664063 8.70117188-11.86523438 2.37304688-19.77539063-15.8203125-19.77539062-34.40917969-1.58203125-69.21386719-0.79101563-103.62304687-0.79101562-11.07421875 0-22.93945313 0-29.66308594-10.28320313v-9.4921875c3.95507813-11.86523438 3.95507813-23.73046875 0-35.20019531v-9.4921875c7.91015625-10.28320313 18.984375-10.28320313 30.45410156-10.28320313 46.27441406-1.58203125 93.33984375-2.37304688 139.61425781-0.79101562 28.08105469 1.58203125 43.90136719-10.28320313 55.76660157-33.61816407 11.07421875-23.73046875 25.70800781-44.69238281 40.73730468-66.04980468 27.29003906-37.57324219 62.09472656-65.25878906 110.7421875-67.63183594h48.64746094c68.42285156 3.1640625 99.66796875 54.97558594 133.28613281 102.83203125 11.07421875 15.8203125 20.56640625 32.03613281 29.66308594 49.43847656 7.91015625 14.23828125 18.19335938 19.77539063 33.61816406 19.77539063 43.90136719 0 87.80273438-0.79101563 132.49511719 0 11.07421875 0 22.93945313 0 29.66308594 10.28320312v4.74609375c-3.95507813 11.86523438-3.95507813 23.73046875 0 35.20019532v4.74609375c-7.91015625 10.28320313-18.984375 10.28320313-29.66308594 10.28320312-30.45410156 1.58203125-62.09472656-2.37304688-92.54882812 3.95507813-20.56640625 4.74609375-24.12597656 9.4921875-15.02929688 28.08105468 10.28320313 20.56640625 18.984375 41.52832031 28.87207031 62.09472657 8.70117188 18.19335938 22.93945313 26.49902344 42.31933594 26.49902343 15.02929688 0 29.66308594-0.79101563 43.90136719 0.79101563 9.4921875 0.79101563 18.19335938 2.37304688 20.56640625 13.44726562-0.79101563 57.34863281 10.28320313 51.81152344-51.02050781 51.81152344-24.12597656 0-46.27441406 7.91015625-70.00488282 7.91015625-91.7578125-1.58203125-181.93359375 7.91015625-270.52734375 31.24511719-48.64746094 13.44726563-94.13085938 34.40917969-138.03222656 57.34863281-50.22949219 25.70800781-102.04101563 45.48339844-158.59863281 48.64746094H177.40039062c-11.86523438-4.74609375-23.73046875-2.37304688-35.20019531-2.37304688-12.65625 0.79101563-17.40234375-3.95507813-16.61132812-16.61132812-0.39550781-7.11914063 1.18652344-16.61132813-3.1640625-24.52148438z" fill="#188EFE" p-id="1566"></path><path d="M900.38867188 595.05664063c1.58203125 0 3.1640625-0.79101563 4.74609374-0.79101563v53.39355469c-43.11035156 0.79101563-86.22070313 2.37304688-128.54003906-0.79101563 30.45410156-5.53710938 61.30371094-1.58203125 91.7578125-2.37304687 32.82714844-0.79101563 32.82714844 0 32.82714844-32.03613282-0.79101563-5.53710938-0.79101563-11.86523438-0.79101563-17.40234375z" fill="#88C5FE" p-id="1567"></path><path d="M122.42480469 749.70019531c1.58203125 30.45410156 15.8203125 46.27441406 47.85644531 41.52832032 1.58203125-0.79101563 3.95507813 2.37304688 6.328125 3.1640625h-9.4921875c-15.02929688 0-35.20019531 6.328125-43.11035156-1.58203125-7.11914063-7.91015625-1.58203125-28.08105469-1.58203125-43.11035157z" fill="#2495FE" p-id="1568"></path><path d="M126.77539062 635.00292969c-1.58203125 0-3.1640625-0.79101563-4.74609374-0.79101563v-44.69238281c8.70117188 15.02929688 3.1640625 30.84960938 4.74609375 45.48339844zM122.42480469 413.9140625c6.328125 11.86523438 6.328125 23.73046875 0 35.20019531v-35.20019531zM905.13476563 449.11425781c-6.328125-11.86523438-6.328125-23.73046875-1e-8-35.20019531v35.20019531z" fill="#2494FE" p-id="1569"></path></svg>