<?xml version="1.0" standalone="no"?><!DOCTYPE svg PUBLIC "-//W3C//DTD SVG 1.1//EN" "http://www.w3.org/Graphics/SVG/1.1/DTD/svg11.dtd"><svg t="1708761499280" class="icon" viewBox="0 0 1024 1024" version="1.1" xmlns="http://www.w3.org/2000/svg" p-id="8860" xmlns:xlink="http://www.w3.org/1999/xlink" width="200" height="200"><path d="M172.6464 682.6496h679.168c38.8096 0 70.2464 31.488 70.2464 70.2976v93.696c0 38.7584-31.4368 70.1952-70.2464 70.1952H172.6464A70.2464 70.2464 0 0 1 102.4 846.592v-93.696c0-38.7584 31.4368-70.2464 70.2464-70.2464z" fill="#2A94F4" p-id="8861"></path><path d="M302.7968 744.704l186.7776 172.1344h-126.464L278.9376 843.264l23.808-98.56z" fill="#156CBB" p-id="8862"></path><path d="M208.2304 744.0896l167.7312 172.7488H260.096L184.4736 843.264l23.7568-99.1744z" fill="#156CBB" p-id="8863"></path><path d="M196.096 741.2224c12.9024 0 23.3984 10.496 23.3984 23.3984v58.5728a23.3984 23.3984 0 0 1-46.848 0v-58.5728a23.3984 23.3984 0 0 1 23.4496-23.3984zM289.792 741.2224a23.3984 23.3984 0 0 1 23.3984 23.3984v58.5728a23.3984 23.3984 0 1 1-46.848 0v-58.5728c0-12.9024 10.496-23.3984 23.3984-23.3984z" fill="#FFFFFF" p-id="8864"></path><path d="M172.6464 392.5504h679.168c38.8096 0 70.2464 31.4368 70.2464 70.2464v93.696c0 38.7584-31.4368 70.2464-70.2464 70.2464H172.6464A70.2464 70.2464 0 0 1 102.4 556.4416v-93.696c0-38.7584 31.4368-70.1952 70.2464-70.1952z" fill="#2A94F4" p-id="8865"></path><path d="M302.7968 454.5536l186.7776 172.1344h-126.464l-84.1216-73.5744 23.808-98.56z" fill="#156CBB" p-id="8866"></path><path d="M208.2304 453.9392l167.7312 172.7488H260.096l-75.6224-73.5232 23.7568-99.2256z" fill="#156CBB" p-id="8867"></path><path d="M196.096 451.072c12.9024 0 23.3984 10.496 23.3984 23.4496v58.5216a23.3984 23.3984 0 0 1-46.848 0V474.5216a23.3984 23.3984 0 0 1 23.4496-23.4496zM289.792 451.072a23.3984 23.3984 0 0 1 23.3984 23.4496v58.5216a23.3984 23.3984 0 1 1-46.848 0V474.5216c0-12.9536 10.496-23.4496 23.3984-23.4496z" fill="#FFFFFF" p-id="8868"></path><path d="M172.6464 102.4h679.168c38.8096 0 70.2464 31.4368 70.2464 70.2464v93.696c0 38.8096-31.4368 70.2464-70.2464 70.2464H172.6464A70.2464 70.2464 0 0 1 102.4 266.3424v-93.696C102.4 133.8368 133.8368 102.4 172.6464 102.4z" fill="#2A94F4" p-id="8869"></path><path d="M302.7968 164.4032l186.7776 172.1344h-126.464L278.9376 262.9632l23.808-98.56z" fill="#156CBB" p-id="8870"></path><path d="M208.2304 163.84l167.7312 172.6976H260.096L184.4736 263.0144l23.7568-99.2256z" fill="#156CBB" p-id="8871"></path><path d="M196.096 160.9216c12.9024 0 23.3984 10.496 23.3984 23.4496v58.5216a23.3984 23.3984 0 0 1-46.848 0V184.3712a23.3984 23.3984 0 0 1 23.4496-23.4496zM289.792 160.9216a23.3984 23.3984 0 0 1 23.3984 23.4496v58.5216a23.3984 23.3984 0 1 1-46.848 0V184.3712c0-12.9536 10.496-23.4496 23.3984-23.4496z" fill="#FFFFFF" p-id="8872"></path></svg>