<?xml version="1.0" standalone="no"?><!DOCTYPE svg PUBLIC "-//W3C//DTD SVG 1.1//EN" "http://www.w3.org/Graphics/SVG/1.1/DTD/svg11.dtd"><svg t="1710148298706" class="icon" viewBox="0 0 1024 1024" version="1.1" xmlns="http://www.w3.org/2000/svg" p-id="2222" xmlns:xlink="http://www.w3.org/1999/xlink" width="200" height="200"><path d="M152.064 757.248C82.432 757.248 25.6 814.08 25.6 884.224s56.832 125.952 126.464 125.952c69.12 0 126.464-55.808 126.464-125.952s-56.32-126.976-126.464-126.976z m0 189.44c-32.256-1.024-58.368-27.136-59.904-59.904-1.536-34.304 25.6-64 59.904-66.048 32.256 1.536 58.368 28.16 59.904 59.904 2.048 34.816-25.088 64.512-59.904 66.048zM520.192 945.152c-27.136-5.632-48.128-29.696-49.664-58.88-1.024-17.408 5.632-33.28 16.384-45.056-1.536-13.312-2.56-27.136-2.56-40.96 0-11.776 0.512-23.552 2.048-34.816-47.616 17.92-82.432 63.488-82.432 117.76 0 70.144 56.832 126.464 126.464 126.464 11.264 0 21.504-1.536 31.744-4.096-15.872-17.92-30.208-38.4-41.984-60.416zM909.824 378.88h-347.136V312.32c71.68-14.848 125.952-78.336 125.952-154.624 0-87.04-70.656-157.696-157.696-157.696S372.736 70.656 372.736 157.696c0 76.288 54.272 140.288 126.464 154.624v66.56H119.808v239.104l-32.256-32.256-44.544 44.544L150.016 737.28l115.712-104.448-41.984-47.104-40.96 36.352V442.368h315.904v176.128l-32.256-32.256-44.544 44.544 76.8 75.776c1.536-4.608 3.072-9.728 5.12-14.336 0.512-1.536 1.024-3.072 1.536-4.096l4.608-10.752c0.512-1.024 1.024-2.56 1.536-3.584 1.536-4.096 3.584-7.68 5.632-11.776l1.536-3.072c2.048-4.096 4.608-8.192 6.656-12.288 10.752-18.432 23.04-35.84 37.376-51.2V442.368h315.904v61.952c22.016 6.656 43.52 15.36 63.488 26.112V378.88h-32.256z m-379.392-126.464c-51.712 0-94.72-43.008-94.72-94.72s43.008-94.72 94.72-94.72c52.736 0 94.72 43.008 94.72 94.72s-43.008 94.72-94.72 94.72z" p-id="2223"></path><path d="M1016.832 844.288c12.288-49.664-1.024-82.432-1.024-82.432l-47.616-2.56c-4.096-14.848-10.24-29.184-17.92-41.984l32.256-36.352c-26.624-44.032-58.88-57.344-58.88-57.344l-35.328 32.256c-13.312-7.68-27.648-13.824-42.496-17.408l-3.072-48.128c-49.664-12.288-82.432 1.024-82.432 1.024l-2.048 46.08c-14.848 3.584-29.184 9.216-41.984 16.384l-33.28-30.208s-32.768 13.312-58.88 57.344c8.192 9.728 25.088 20.48 26.112 34.304 0 3.584-15.872 44.032-16.384 44.032l-43.008 2.048s-13.824 32.256-1.024 82.432l42.496 2.56c4.096 16.896 10.24 32.768 18.944 47.104l-28.16 30.72s13.312 32.768 57.344 58.88l31.744-28.16c14.336 8.704 30.208 15.36 47.104 19.456l2.048 41.984s32.256 13.824 82.432 1.024l2.56-44.032c16.896-4.608 32.768-11.264 47.616-20.48l33.792 29.696c44.032-26.624 57.344-58.88 57.344-58.88l-30.72-33.792c7.68-13.824 13.312-28.16 16.896-44.032l45.568-1.536z m-214.016 62.464c-56.32 0-102.4-45.568-102.4-102.4 0-56.32 45.568-102.4 102.4-102.4 56.32 0 102.4 45.568 102.4 102.4-0.512 56.832-46.08 102.4-102.4 102.4z" p-id="2224"></path></svg>