<?xml version="1.0" standalone="no"?><!DOCTYPE svg PUBLIC "-//W3C//DTD SVG 1.1//EN" "http://www.w3.org/Graphics/SVG/1.1/DTD/svg11.dtd"><svg t="1705369337718" class="icon" viewBox="0 0 1024 1024" version="1.1" xmlns="http://www.w3.org/2000/svg" p-id="1690" xmlns:xlink="http://www.w3.org/1999/xlink" width="200" height="200"><path d="M508.928 381.952c-74.752 0-135.168 60.416-135.168 134.144 0 74.752 60.416 135.168 135.168 135.168 74.752 0 135.168-60.416 135.168-135.168 0-74.752-60.416-134.144-135.168-134.144z m0 327.68c-107.52 0-194.56-87.04-194.56-194.56s87.04-194.56 194.56-194.56 194.56 87.04 194.56 194.56-87.04 194.56-194.56 194.56z m29.696 221.184c2.048-1.024 8.192-7.168 9.216-14.336l18.432-80.896c4.096-16.384 16.384-30.72 32.768-35.84l3.072-1.024c15.36-5.12 29.696-11.264 45.056-18.432l3.072-1.024c15.36-8.192 33.792-7.168 48.128 2.048l70.656 45.056c3.072 2.048 8.192 4.096 13.312 4.096 2.048 0 3.072 0 4.096-1.024l39.936-39.936c0-3.072-1.024-10.24-6.144-17.408l-43.008-70.656c-8.192-14.336-9.216-31.744-2.048-47.104l1.024-2.048c7.168-14.336 13.312-28.672 17.408-43.008l1.024-3.072c5.12-15.36 18.432-27.648 33.792-31.744l78.848-19.456c10.24-2.048 16.384-6.144 18.432-8.192v-57.344c-1.024-2.048-7.168-8.192-14.336-9.216l-81.92-18.432c-17.408-4.096-30.72-16.384-35.84-32.768l-1.024-3.072c-5.12-14.336-11.264-29.696-18.432-45.056l-1.024-2.048c-7.168-15.36-7.168-32.768 2.048-47.104l41.984-70.656c5.12-8.192 7.168-16.384 7.168-18.432l-39.936-39.936h-3.072c-4.096 0-9.216 1.024-13.312 4.096l-71.68 44.032c-14.336 9.216-32.768 10.24-48.128 2.048l-3.072-2.048c-15.36-8.192-30.72-14.336-45.056-19.456l-3.072-1.024c-16.384-5.12-28.672-18.432-32.768-35.84l-17.408-78.848v-2.048c-1.024-7.168-7.168-13.312-9.216-14.336h-56.32c-2.048 2.048-6.144 8.192-8.192 17.408l-19.456 78.848c-4.096 16.384-16.384 29.696-31.744 34.816l-2.048 1.024c-17.408 5.12-33.792 12.288-49.152 20.48l-3.072 1.024c-15.36 8.192-33.792 7.168-48.128-2.048l-71.68-46.08c-3.072-2.048-8.192-4.096-13.312-4.096-2.048 0-3.072 0-4.096 1.024l-39.936 39.936c0 3.072 1.024 10.24 6.144 17.408l45.056 75.776c8.192 13.312 8.192 29.696 2.048 44.032l-2.048 4.096c-7.168 15.36-13.312 29.696-17.408 43.008l-1.024 4.096c-5.12 15.36-17.408 27.648-33.792 30.72l-81.92 18.432c-7.168 1.024-13.312 7.168-14.336 9.216v56.32c2.048 2.048 8.192 6.144 17.408 8.192l79.872 19.456c16.384 4.096 28.672 16.384 33.792 31.744l1.024 3.072c4.096 13.312 9.216 25.6 16.384 38.912l1.024 2.048c7.168 14.336 6.144 31.744-2.048 46.08L196.608 768c-5.12 8.192-7.168 15.36-7.168 18.432l39.936 39.936h3.072c4.096 0 9.216-1.024 13.312-4.096l71.68-46.08c14.336-9.216 32.768-10.24 48.128-2.048l3.072 1.024c16.384 8.192 32.768 15.36 48.128 20.48l3.072 1.024c16.384 5.12 28.672 18.432 32.768 34.816l19.456 77.824c2.048 10.24 6.144 16.384 8.192 18.432l58.368 3.072z m-59.392 60.416c-34.816 0-57.344-31.744-65.536-63.488l-17.408-71.68c-17.408-6.144-34.816-13.312-51.2-21.504l-64.512 40.96c-13.312 9.216-30.72 14.336-47.104 14.336-18.432 0-34.816-6.144-46.08-17.408l-40.96-40.96C121.856 806.912 128 768 145.408 740.352l40.96-68.608c-7.168-14.336-12.288-27.648-16.384-40.96L97.28 612.352c-31.744-7.168-63.488-29.696-63.488-65.536v-58.368c0-35.84 32.768-62.464 63.488-68.608l71.68-15.36c5.12-14.336 10.24-28.672 18.432-44.032l-40.96-68.608c-17.408-27.648-23.552-66.56 1.024-91.136l40.96-40.96c11.264-11.264 27.648-17.408 46.08-17.408 16.384 0 33.792 5.12 47.104 14.336l64.512 40.96c16.384-8.192 33.792-15.36 51.2-21.504l17.408-71.68c7.168-31.744 30.72-63.488 65.536-63.488h58.368c35.84 0 62.464 32.768 68.608 63.488l16.384 71.68c16.384 5.12 31.744 12.288 47.104 19.456l62.464-39.936c13.312-9.216 30.72-14.336 47.104-14.336 18.432 0 34.816 6.144 46.08 17.408l40.96 40.96c26.624 26.624 17.408 65.536 1.024 91.136l-38.912 65.536c8.192 16.384 14.336 32.768 19.456 48.128l71.68 15.36c30.72 5.12 63.488 32.768 63.488 68.608v58.368c0 34.816-31.744 57.344-63.488 65.536l-72.704 18.432c-5.12 14.336-11.264 29.696-18.432 44.032l38.912 64.512c17.408 27.648 23.552 66.56-1.024 91.136l-40.96 40.96c-11.264 11.264-27.648 17.408-46.08 17.408-16.384 0-33.792-5.12-47.104-14.336L670.72 834.56c-15.36 8.192-30.72 14.336-47.104 19.456l-16.384 72.704c-5.12 30.72-32.768 63.488-68.608 63.488h-59.392z" p-id="1691"></path></svg>