<?xml version="1.0" standalone="no"?><!DOCTYPE svg PUBLIC "-//W3C//DTD SVG 1.1//EN" "http://www.w3.org/Graphics/SVG/1.1/DTD/svg11.dtd"><svg t="1705748108090" class="icon" viewBox="0 0 1024 1024" version="1.1" xmlns="http://www.w3.org/2000/svg" p-id="1829" xmlns:xlink="http://www.w3.org/1999/xlink" width="200" height="200"><path d="M558.05029297 87.94970703l339.89941406 196.35029297a35.775 35.775 0 0 1 13.95 14.4 35.85058594 35.85058594 0 0 1 4.80058594 17.55c2.25 8.775 2.7 22.5 0.59941406 43.57529297v335.25a90 90 0 0 1-1.125 14.47470703 36 36 0 0 1-17.47441406 37.27441406l-336.97529297 194.55029297a36 36 0 0 1-23.4 8.25029297 36 36 0 0 1-23.4-8.25029297L174.725 744.875a36 36 0 0 1-17.92529297-33.525V317.07529297a35.775 35.775 0 0 1 1.50029297-12.75029297 35.85058594 35.85058594 0 0 1 16.80029297-21.97529297L511.55 88.02529297a36.14941406 36.14941406 0 0 1 23.24970703-8.17558594 36 36 0 0 1 23.25058594 8.1z m-23.25058594 69.75L263.75029297 314.15029297l274.64941406 158.54941406 271.125-156.44970703L534.79970703 157.625z m-29.7 378.97558594L228.87529297 377.14941406V693.125l276.22441406 159.525v-315.97558594z m72.07558594-3.22558594V849.35058594l268.04970703-154.72441406v-315.97558594L577.25 533.44970703z" p-id="1830"></path></svg>