<?xml version="1.0" standalone="no"?><!DOCTYPE svg PUBLIC "-//W3C//DTD SVG 1.1//EN" "http://www.w3.org/Graphics/SVG/1.1/DTD/svg11.dtd"><svg t="1704786099156" class="icon" viewBox="0 0 1270 1024" version="1.1" xmlns="http://www.w3.org/2000/svg" p-id="2282" xmlns:xlink="http://www.w3.org/1999/xlink" width="248.046875" height="200"><path d="M818.72367911 348.46589463l-123.28274093 40.26036357-107.33697245 47.2613836-29.98380235 7.91889169c-7.64892949 7.32497432-15.60381504 14.64994864-24.47657315 21.95692559-9.46667461 8.24284599-18.35743008 15.54982295-25.07049052 21.05705215-7.64892949 6.08314834-18.66338701 17.06161113-24.47657315 24.08062851-8.54880293 10.67250586-15.2978581 21.95692646-18.0334749 30.48773203-5.21926963 15.54982295-2.75361416 31.40560283 7.34297168 46.05555235 12.52624658 18.59139756 37.92069141 37.50674941 67.292579 50.30295732 14.97390381 6.71306045 40.36834864 14.93790908 59.33769258 19.83322354 31.49559053 7.9188917 92.66902646 16.7556542 126.30631729 17.99748018 6.73105781 0.28795957 15.90977286 0.28795957 16.21572978 0 0.61191474-0.62991211 6.11914307-10.38454629 11.9323292-22.89279552 20.8050873-42.07810869 35.47303418-81.70856104 43.73387754-115.25586415 4.89531445-20.42714004 8.56680029-47.56734052 11.32041533-79.90881241 0.61191474-9.14272031 0.91787168-39.32449453 0.30595693-49.38508564a407.82290449 407.82290449 0 0 0-4.58935752-43.60789512c-0.30595693-1.83574336-0.61191474-3.65348847-0.30595693-3.65348847 0.30595693-0.30595693 1.52978555-0.61191474 16.82764365-4.8773171l-3.05957109-7.63093212z m-28.14805987 16.46769462c1.22382862 0 3.97744277 28.66998604 4.89531533 46.64946885 0.30595693 3.67148584 0 6.40710263 0 6.40710352-0.61191474 0-15.58581768-8.8367625-26.60027608-15.54982295a788.37962695 788.37962695 0 0 1-29.67784541-19.81522617c-0.89987432-0.61191474-0.89987432-0.61191474 6.73105781-3.36552891 12.85020088-4.57136016 43.42791972-14.32599433 44.65174835-14.32599434z m-62.99118106 20.73309698c0.89987432 0 3.05957197 1.22382862 8.242846 4.26540322 19.2573044 11.89633447 45.26366308 26.52828575 56.58407842 31.42360107 3.36552891 1.51178818 3.67148584 0.89987432-3.95944541 6.38910528-16.82764453 11.59037754-38.2446457 22.87479727-63.94504834 34.15921787a87.9176918 87.9176918 0 0 1-8.54880293 3.65348847c-0.30595693 0 0.30595693-2.42965987 1.22382861-5.1832749 6.11914307-23.16275684 9.77263154-46.64946885 10.07858935-65.25886377-0.61191474-9.44867724-0.61191474-9.44867724 0.30595694-9.44867724z m-12.85020088 4.87731797c0.61191474 0.61191474 0.30595693 21.34501172-0.61191386 27.14019961a228.99994013 228.99994013 0 0 1-8.56680117 40.56632138c-0.91787168 3.34753154-1.83574336 6.38910527-2.15969766 6.38910528-0.28795957 0.61191474-13.13816045-11.87833711-17.42156104-16.7556542a121.60897471 121.60897471 0 0 1-17.13360146-25.01649756c-2.14170029-4.26540323-5.5072292-12.49025098-5.20127138-12.49025186 1.52978555-1.22382862 50.78888965-20.13918047 51.09484657-19.83322265z m-60.86747812 23.79266895c0.61191474 0.30595693 1.22382862 1.81774511 1.52978554 3.34753066 3.05957197 8.24284599 9.77263154 20.1211831 15.58581768 27.4461583 6.42510088 8.24284599 14.68594424 17.38556631 21.41700205 23.1807542 2.14170029 1.81774511 4.28340058 3.65348847 4.58935753 3.95944541 0.61191474 0.61191474 0.61191474 0.61191474-14.37998731 6.10114658-17.74551533 6.71306045-36.71486016 13.40812266-58.72577784 20.42714004-5.20127138 1.83574336-10.40254365 3.36552891-15.60381591 5.18327403-0.89987432 0.30595693-0.61191474-0.30595693 1.83574336-3.95944542 11.0144584-17.07960849 27.53614511-50.32095469 36.71486015-74.09562714 1.52978555-3.95944541 3.05957197-8.24284599 3.36552803-9.1607168 0.30595693-1.20583125 0.89987432-1.81774511 2.1417003-2.42965986 0.61191474 0.30595693 1.22382862 0 1.52978642 0z m-18.66338701 7.61293388c0.30595693 0.30595693-4.58935752 10.07858935-9.17871504 19.22130879a777.13120195 777.13120195 0 0 1-32.10750528 55.79218916c-2.15969766 3.67148584-4.28340058 7.01901738-4.58935752 7.32497432-0.61191474 0.61191474-0.61191474 0.61191474-2.15969765-2.42965987a81.76255313 81.76255313 0 0 1-7.01901738-21.65096865c-1.52978555-7.32497432-1.22382862-19.83322354 0.61191474-27.75211435 1.22382862-5.79518877 1.22382862-5.79518877 3.95944541-7.01901739 11.33841269-5.79518877 49.8530206-23.79266895 50.48293272-23.48671201z m160.57351934 6.71306045v3.95944541c0 20.75109521-2.14170029 49.09712607-5.50722921 69.83022393-0.61191474 3.67148584-0.89987432 6.71306045-1.22382861 6.71306045 0 0-2.75361416-0.61191474-5.81318613-1.52978643a226.08434795 226.08434795 0 0 1-42.81600586-18.28543975c-9.17871503-4.87731709-22.31687549-13.12016309-21.70496074-13.4261209l8.54880292-4.57135927a563.59109707 563.59109707 0 0 0 51.09484659-29.87581729c5.79518877-3.67148584 14.36198906-10.07858935 16.19773242-11.59037754l1.22382862-1.22382861z m-230.90767295 27.44615742c0.28795957 0 0.28795957 0.61191474-0.3239543 3.95944541-0.30595693 2.44765723-0.89987432 7.01901738-0.89987432 10.07858936-0.62991211 13.40812266 1.51178818 23.46871465 8.242846 37.2007916 1.83574336 3.65348847 3.36552891 7.01901738 3.3655289 7.01901738-0.61191474 0.59391651-62.39726455 18.59139756-81.6725663 23.75667422-5.81318613 1.54778291-10.70850058 3.05957197-11.32041446 3.05957109-0.59391651 0.30595693-0.59391651 0-0.59391738-1.51178818 2.12370292-13.73207783 12.52624658-31.42360107 27.21219082-46.66746621 9.79062891-10.06059112 17.4395584-15.83778252 30.59571621-23.46871465 9.46667461-4.89531445 23.84666104-13.12016309 25.37644746-13.42612002-0.30595693 0-0.30595693 0 0 0z m145.27566123 25.91637187s2.44765723 1.22382862 4.89531445 2.75361417c19.86921826 11.59037754 47.69332295 22.2628834 71.27002266 27.75211435l2.12370292 0.59391739-3.05957196 1.52978554c-12.52624658 7.01901738-53.21854951 23.79266895-94.81072677 39.34249189-6.11914307 2.12370292-11.9323292 4.57136016-13.13816044 4.8773171-1.24182597 0.61191474-2.15969766 0.61191474-2.15969766 0.61191474s1.52978555-3.36552891 3.67148584-7.32497432c11.62637227-21.65096865 23.25274453-48.17925528 29.37188848-66.46469501 1.22382862-2.14170029 1.83574336-3.67148584 1.83574248-3.67148585z m-14.68594424 4.87731709s-0.61191474 2.14170029-1.52978555 4.28339971a607.03701503 607.03701503 0 0 1-32.43145957 64.93490948c-3.34753154 6.11914307-6.40710263 10.97846279-6.40710264 10.97846279s-2.75361416-1.51178818-6.11914394-3.65348847c-19.88721562-12.20229141-37.32677403-26.81624531-48.62919112-41.46619484l-1.52978642-2.1416994 8.54880293-2.42965987c30.28975928-8.24284599 56.27812148-17.09760674 81.97852324-28.07606953 2.75361416-1.20583125 5.81318613-2.42965987 6.11914307-2.42965987z m92.0571126 32.03551495c0 2.12370292-4.58935752 21.32701435-8.54880294 35.0590913-3.36552891 11.59037754-6.11914307 20.73309698-11.33841269 36.89483468-2.12370292 7.01901738-4.26540323 12.81420615-4.26540322 12.81420615s-0.61191474 0-1.22382862-0.30595693c-27.53614511-4.87731709-52.60663477-11.89633447-75.8593793-21.34501172-6.42510088-2.75361416-15.90977286-6.71306045-16.52168759-7.32497432-0.30595693-0.30595693 5.5072292-2.7356168 12.54424394-5.79518877 42.51004893-18.59139756 86.26192295-39.3424919 101.54178458-48.48521221 1.83574336-0.89987432 3.36552891-1.52978555 3.67148584-1.52978555z m-212.56824024 7.30697695c0.30595693 0.30595693-11.62637227 17.07960849-28.14805986 40.26036357-5.79518877 8.22484864-12.52624658 17.67352588-14.97390381 21.03905479-2.44765723 3.65348847-6.42510088 9.14272031-8.5668003 12.49025098l-3.97744277 6.11914306-4.28340059-3.67148584a158.91775136 158.91775136 0 0 1-17.43955839-17.69152324c-7.95488643-10.06059112-13.46211563-20.42714004-15.58581856-29.87581728-0.91787168-4.57136016-0.91787168-6.71306045 0-7.01901739a7499.01013857 7499.01013857 0 0 0 49.54706367-11.59037754c12.83220352-3.05957197 27.82410469-6.40710263 33.33133389-7.91889082 5.5072292-1.22382862 9.79062891-2.14170029 10.07858848-2.14170029z m11.9323292 4.57136016l3.05957197 3.3655289a179.56086152 179.56086152 0 0 0 43.73387666 35.67100606c3.05957197 1.52978555 5.20127138 3.05957197 4.89531445 3.34753066-0.61191474 0.61191474-57.5019501 20.73309698-84.12022266 29.58785771-14.66794688 5.18327403-26.906233 9.44867724-27.21219081 9.44867726l-1.83574248-1.22382862-1.52978555-1.22382862 2.75361416-3.95944541c8.8727581-12.49025098 19.86921826-26.52828575 43.73387754-55.19827265l16.52168672-19.79722793z m74.32959375 53.05657148s4.26540323 1.52978555 9.17871503 3.36552891c12.23828701 4.57136016 21.70496162 7.30697695 34.5551625 10.67250586 15.89177549 3.95944541 38.83856221 7.9188917 52.30067784 9.14272031 2.14170029 0.30595693 3.05957197 0.30595693 2.75361416 0.61191474-0.61191474 0.30595693-14.37998643 4.87731709-24.47657315 8.22484776-15.89177549 4.87731709-64.84492177 19.52726661-104.9073126 30.81168633-7.34297168 2.12370292-13.76807256 3.95944541-14.07403036 3.95944629-0.89987432 0.30595693-3.95944541-0.61191474-3.95944542-0.89987432 0-0.3239543 2.12370292-3.05957197 4.8773171-6.11914307a589.95740566 589.95740566 0 0 0 37.93868876-50.60891513 88.00767862 88.00767862 0 0 1 5.79518877-9.16071768z m-16.52168672 0.30595781s-6.42510088 10.67250586-18.05147315 28.97594297c-4.89531445 7.61293388-10.40254365 16.46769463-12.54424394 19.50926924-1.83574336 3.05957197-4.58935752 7.63093125-6.11914307 10.36654805l-2.75361416 4.87731709-1.52978643-0.30595694a771.012058 771.012058 0 0 1-33.02537607-11.57238017c-7.64892949-3.05957197-15.60381504-6.71306045-21.72295898-10.07858848-7.32497432-3.95944541-16.80964629-10.06059112-15.89177549-10.06059199 0.30595693 0 12.83220352-3.65348847 28.43601944-7.61293389 40.67430557-10.97846279 63.31513623-17.38556631 78.28903915-22.2628834 2.46565459-1.22382862 4.91331182-1.83574336 4.9133127-1.83574248z m115.90377363 27.14020049c0.62991211 0.91787168-14.66794688 42.69002344-20.15717871 55.79218828-1.24182597 3.05957197-1.54778291 3.67148584-2.46565458 3.67148672-1.52978555 0-23.5407041-3.05957197-36.71486016-5.1832749-23.2167498-3.65348847-62.09130761-10.36654893-71.86393828-12.50824834l-2.1417003-0.59391738 13.76807256-3.0595711c29.96580498-6.71306045 44.03983447-10.36654893 58.72577783-14.63195215a403.32353467 403.32353467 0 0 0 54.74833506-21.05705126c3.05957197-1.20583125 5.5072292-2.42965987 6.11914394-2.42965987zM691.48149278 62.12598242c-2.14170029-0.30595693-35.16707636 11.59037754-56.58407843 20.13918047-28.75997373 11.57238018-51.07684922 22.8567999-64.84492177 32.62943145-5.20127138 3.65348847-11.62637227 10.06059112-12.54424395 12.49025185a10.79848828 10.79848828 0 0 0-0.61191386 3.05957198l12.54424394 11.87833623 29.67784453 9.46667549 70.64011054 12.49025097 80.75469464 13.73207783 0.91787168-7.01901738h-0.61191475l-10.70850058-1.52978642-2.14170029-3.65348848a685.93796895 685.93796895 0 0 1-30.27176192-59.463675 282.52444658 282.52444658 0 0 1-13.46211563-37.50674854C692.70532138 62.43193935 692.39936445 62.12598242 691.48149278 62.12598242z m-1.52978556 4.57136016c0.30595693 0 0.61191474 2.75361416 0.91787169 5.79518877 1.52978555 13.12016309 4.58935752 25.62841231 9.17871416 39.05453232 3.36552891 10.34855156 3.36552891 9.73663682-0.61191387 8.53080557-9.48467197-2.75361416-52.01271826-10.07858935-82.89639492-14.3439917-4.89531445-0.61191474-9.17871503-1.22382862-9.17871504-1.52978642-0.30595693-0.28795957 22.33487285-12.18429404 32.12550264-16.7556542C652.31897539 81.65324815 687.50405 67.30925645 689.93370987 66.69734258z m-89.9154123 41.79014912l3.65348847 1.20583125c19.88721562 6.71306045 69.4342793 16.1617377 96.97042442 18.30343711l5.81318613 0.61191475s-2.44765723 1.52978555-5.81318613 3.05957196c-13.13816045 6.69506309-27.84210205 14.63195127-37.93868877 21.02105655-3.05957197 1.83574336-5.79518877 3.36552891-6.11914307 3.36552891-0.28795957 0-2.42965987-0.30595693-4.26540321-0.61191387l-3.67148585-0.61191474-9.17871503-9.14272032c-16.52168672-15.85577989-29.3718876-28.05807217-34.26720206-32.93538838l-5.1832749-4.26540322z m-3.67148584 2.73561679l13.13816045 16.46769463c7.03701474 9.14272031 14.39798467 17.69152324 15.90977285 19.81522618 1.52978555 1.83574336 2.75361416 3.67148584 2.75361416 3.67148583-0.30595693 0.30595693-18.96934395-3.36552891-28.74197549-5.48923183-10.09658672-2.44765723-14.39798467-3.36552891-20.51712773-5.48923096l-5.18327402-1.52978642v-1.22382861c0-6.1011457 7.95488643-15.54982295 21.41700117-24.9985002l1.22382861-1.22382862z m111.63837041 22.26288341c0.30595693 0 0.89987432 0.89987432 1.83574336 3.34753154 3.05957197 7.01901738 13.13816045 25.62841231 15.58581768 29.28190078 0.61191474 1.22382862 2.15969766 1.22382862-10.99646016-0.89987432-31.49559053-5.20127138-41.61017461-6.73105781-41.61017461-7.01901738 0 0 0.91787168-0.61191474 2.15969766-1.52978555a195.99256143 195.99256143 0 0 0 28.43601856-19.5272666c2.14170029-1.81774511 3.95944541-3.34753154 4.58935751-3.65348847-0.30595693 0 0 0 0 0z" fill="#909CA9" p-id="2283"></path><path d="M558.12016338 125.85506065s-2.14170029 3.36552891 0 8.24284599c1.22382862 3.05957197 4.89531445 6.71306045 8.8727581 10.36654805 0 0 41.59217724 40.26036357 46.4874917 46.03755498 22.9467876 26.5462831 33.04337432 52.46265498 33.96124512 88.13366103 0.61191474 23.18075508-3.67148584 43.30193731-14.68594424 66.77065284-19.2573044 42.09610693-60.25556425 88.74557578-123.26474268 140.29035908l9.17871505-3.05957197c5.81318613-4.57136016 14.07402949-9.14272031 33.02537607-19.50926836 44.05783184-24.09862588 93.29893857-46.05555234 153.86045977-68.60639531 87.16179727-32.62943145 230.61971338-71.05405253 312.29227968-83.56230089l8.54880293-1.22382861-1.22382861-2.12370293a263.37512724 263.37512724 0 0 0-18.64538965-26.2223288c-17.74551533-22.2628834-39.46847432-39.95440664-66.06875039-54.89231573-36.40890234-20.42714004-83.81426573-36.2829208-143.76387305-48.17925439-11.32041533-2.14170029-36.08494805-6.40710263-56.27812148-9.46667461a6601.83574307 6601.83574307 0 0 1-100.62391289-16.44969727 756.81204609 756.81204609 0 0 1-37.93868789-7.01901738c-5.48923184-1.22382862-16.19773242-3.65348847-24.7645336-6.71306045-7.34297168-2.14170029-16.82764453-4.87731709-18.96934394-12.81420527z m24.17061621 23.48671113s1.52978555 0.61191474 3.67148584 1.22382861c3.67148584 1.22382862 8.26084336 2.7356168 13.46211562 3.95944629 3.95944541 1.22382862 8.24284599 2.14170029 12.23828614 3.36552891 5.48923184 1.51178818 10.38454629 2.7356168 10.38454628 2.7356168 0.61191474 0.61191474 10.09658672 30.79368896 13.13816046 42.07810868 1.24182597 4.26540323 2.15969766 8.24284599 2.15969765 8.24284601s-1.22382862-1.52978555-2.44765723-3.67148585c-11.0144584-19.20331143-28.14805898-38.42462021-48.01727724-54.28040097-2.75361416-2.12370292-4.58935752-3.65348847-4.58935752-3.65348848z m45.8935752 12.50824921c0.59391651 0 2.42965987 0.30595693 4.87731708 0.89987432 15.90977286 3.67148584 44.34579141 8.85476075 62.39726368 11.89633448 3.05957197 0.61191474 5.5072292 0.91787168 5.50722919 1.22382861 0 0.30595693-1.22382862 0.91787168-2.44765722 1.52978555-3.05957197 1.52978555-15.60381504 8.8367625-19.58125869 11.59037753-10.40254365 7.01901738-19.56326133 14.32599433-26.29431826 21.03905479l-4.89531534 4.85931972s-0.61191474-1.51178818-0.9178708-3.6354911a294.85272041 294.85272041 0 0 0-16.82764453-45.44363848c-1.22382862-1.83574336-2.14170029-3.95944541-1.83574336-3.95944542-0.30595693 0-0.30595693 0 0 0z m80.43073945 15.24386602c0.61191474 0.30595693 1.52978555 3.34753154 3.36552891 10.36654893a166.11674326 166.11674326 0 0 1 4.58935751 42.69002344c-0.30595693 3.95944541-0.30595693 7.63093125-0.61191474 7.91889082l-0.30595694 0.91787168-4.89531445-1.51178819c-10.09658672-3.05957197-26.31231651-7.9188917-40.08038906-11.89633447-7.95488643-2.14170029-14.36198906-3.95944541-14.36198906-4.26540323 0-0.61191474 11.6083749-12.20229141 16.50368935-16.46769462 9.48467197-8.24284599 35.18507373-28.05807217 35.79698848-27.75211436z m6.4251 0.89987344c0.30595693-0.28795957 38.53260527 6.42510088 55.97216454 9.77263242 12.83220352 2.44765723 31.80154746 6.40710263 33.02537609 7.01901739 0.61191474 0.30595693-1.52978555 1.20583125-7.6489295 3.95944541-24.47657315 10.97846279-42.81600586 21.03905479-61.17343506 32.93538925-4.89531445 3.05957197-8.8727581 5.79518877-8.8727581 5.79518877s-0.30595693-2.75361416-0.30595694-5.79518877a132.28148057 132.28148057 0 0 0-10.07858935-50.6269125c-0.30595693-1.52978555-0.91787168-2.7356168-0.91787168-3.05957197z m99.09412734 19.5272666c0.30595693 0.30595693-0.91787168 7.9188917-2.1417003 12.20229141-3.36552891 13.71407959-12.54424395 34.44717744-23.55870146 53.66848711a54.29839834 54.29839834 0 0 1-3.95944628 6.40710263c-0.3239543 0-2.7716124-1.22382862-5.50722833-3.05957197-10.70850058-6.40710263-23.25274453-12.18429404-36.40890322-17.67352587-3.67148584-1.52978555-7.01901738-2.75361416-7.01901738-3.0595711-0.62991211-0.61191474 29.33589287-20.42714004 45.24566572-29.87581728 12.54424395-7.63093125 33.04337432-18.8973545 33.34933125-18.60939493z m7.01901738 1.22382862c0.93586904 0 17.76351269 4.57136016 26.63627081 7.32497431 22.01091855 6.38910527 47.09940645 15.54982295 63.29713799 23.16275772l6.73105781 3.05957109-4.89531445 1.20583125c-40.0623917 9.16071768-74.32959375 19.83322354-107.35497071 33.24134619-2.75361416 1.22382862-5.20127138 2.14170029-5.20127139 2.1417003-0.30595693 0 0.61191474-2.14170029 1.83574336-4.8773171 10.09658672-21.05705215 16.52168672-43.01397773 18.05147226-61.91133222a31.13564063 31.13564063 0 0 0 0.89987432-3.34753154z m-168.8163662 38.73057802c0.30595693-0.30595693 13.13816045 2.7356168 20.17517607 4.85931973 10.70850058 3.05957197 33.04337432 10.38454629 33.04337344 10.9784628l-5.5072292 4.89531445a592.11710332 592.11710332 0 0 0-37.93868789 34.44717743c-4.26540323 3.95944541-7.63093125 7.32497432-7.93688906 7.32497432-0.30595693 0-0.30595693-0.61191474-0.30595695-1.22382861 2.14170029-15.54982295 1.52978555-35.67100605-1.2238286-56.0981461 0-3.05957197-0.30595693-5.18327403-0.30595781-5.18327402z m272.21189062 0.30595694c0.30595693 0.30595693-6.11914307 9.75463418-9.79062891 15.24386601-5.5072292 7.9188917-13.76807256 18.59139756-32.4134622 41.77215176-9.79062891 12.20229141-20.8050873 26.22232881-24.47657403 30.79368897-3.67148584 4.57136016-6.73105781 8.54880293-7.0190165 8.54880292 0 0-1.24182597-1.52978555-2.77161241-3.67148584a193.65288838 193.65288838 0 0 0-37.61473359-41.46619482 50.96886416 50.96886416 0 0 0-7.01901738-5.48923184 14.28999961 14.28999961 0 0 1-1.85374073-1.52978555c0-0.30595693 15.90977286-7.01901738 27.84210206-11.87833711a902.30367744 902.30367744 0 0 1 71.27002265-25.32245448c11.6083749-3.95944541 23.84666104-7.30697695 23.84666104-7.01901739z m7.34297168 1.81774512c0.30595693 0 2.75361416 0.91787168 5.20127226 2.75361503a310.87047832 310.87047832 0 0 1 62.39726455 46.64946885c4.89531445 4.87731709 17.13360146 17.38556631 16.82764365 17.69152324 0 0-4.28340058 0.30595693-9.17871503 0.61191475-39.16251739 3.05957197-89.32149492 11.2844206-137.64472911 22.8567999-3.36552891 0.61191474-6.11914307 1.52978555-6.42510088 1.52978555-0.30595693 0 3.36552891-3.65348847 7.95488643-7.9188917 28.43601855-27.14020049 41.28622031-44.5257668 56.58407842-75.01349795 2.14170029-5.18327403 3.97744277-8.85476075 4.28339971-9.16071767-0.30595693 0-0.30595693 0 0 0z m-207.69092315 21.05705214c1.22382862 0.28795957 13.46211563 6.08314834 22.64083067 10.34855156l21.72295898 11.28441973s-4.28340058 2.44765723-9.79062979 5.1832749c-17.4395584 8.85476075-32.43145957 17.09760674-48.32323505 26.52828574a867.65852812 867.65852812 0 0 1-8.27884073 4.89531446c-0.28795957 0-0.28795957-0.30595693 2.15969766-4.89531446 8.26084336-15.24386602 14.99190117-33.52930576 18.95134658-51.22082899 0.30595693-1.22382862 0.61191474-2.14170029 0.91787168-2.1417003z m-11.91433183 2.42965987c0.30595693 0.30595693-2.75361416 11.59037754-4.89531446 17.99748017-3.67148584 11.87833711-10.40254365 26.52828575-16.52168671 37.79470899-1.52978555 2.75361416-3.67148584 6.40710263-4.89531534 8.54880292l-2.44765722 3.65348849-5.20127139-4.85931885a72.92579062 72.92579062 0 0 0-17.42156103-12.81420615c-2.44765723-1.22382862-4.58935752-2.44765723-4.58935752-2.75361505 0-0.61191474 15.89177549-15.24386602 28.13006161-25.61041406 8.8727581-7.63093125 27.53614511-22.2628834 27.84210206-21.95692646z m74.00563945 30.1817751l4.58935752 3.05957109c10.40254365 6.71306045 22.64083066 15.83778252 32.12550176 23.77467158 5.20127138 4.28340058 15.60381504 13.42612002 17.72751885 15.85578076l1.22382861 1.22382861-7.63093213 2.14169942a1433.78727012 1433.78727012 0 0 0-114.104025 36.2829208 113.31213662 113.31213662 0 0 1-8.24284599 2.75361416c-0.61191474 0-0.91787168 0.59391651 8.56680029-8.242846 24.47657315-22.56884033 46.4874917-47.56734052 62.68522412-71.6659664l3.05957197-5.18327402z m-19.56326133 4.87731708c0.30595693 0.30595693-12.54424395 17.99748018-20.19317255 28.3640291a1312.5562418 1312.5562418 0 0 1-36.39090586 45.4436376c-4.58935752 5.48923184-8.56680029 10.06059112-8.87275723 10.06059112-0.30595693 0-0.30595693-1.22382862-0.30595782-3.36552803a76.12934151 76.12934151 0 0 0-7.95488642-33.52930664c-2.14170029-4.28340058-2.44765723-5.18327403-2.14169941-5.79518877 1.83574336-1.52978555 28.75997373-17.07960849 46.18153388-26.22232881 11.32041533-6.11914307 29.3718876-15.26186338 29.67784541-14.9379082z m-117.75751435 28.66998604c0.30595693 0 2.44765723 1.22382862 4.89531532 2.44765722 5.81318613 3.34753154 11.30241797 7.01901738 15.89177461 10.67250586 0.30595693 0.30595693-2.14170029 2.12370292-5.50722831 4.57136016-8.85476075 6.40710263-22.31687549 16.46769463-29.96580498 22.56884033-8.26084336 6.38910527-8.56680029 6.69506309-7.6489295 5.18327402 6.11914307-9.46667461 9.17871503-14.64994864 12.54424395-21.34501172 2.75361416-6.11914307 5.81318613-13.12016309 7.95488642-19.52726571 0.61191474-2.42965987 1.52978555-4.57136016 1.83574249-4.57136016z m31.49559141 24.71054063c0.61191474 0 0.91787168 0.59391651 3.67148583 4.57136015 5.20127138 7.9188917 9.48467197 18.59139756 10.40254365 27.14020048l0.30595693 1.81774513-12.85020087 4.87731708a1140.6263124 1140.6263124 0 0 0-58.11386397 24.09862588c-3.95944541 1.83574336-11.0144584 5.18327403-15.60381591 7.3249752-4.58935752 2.42965987-8.24284599 3.95944541-8.242846 3.95944541s2.7356168-2.14170029 6.40710352-4.87731709c27.84210205-20.13918047 52.01271826-42.38406651 70.04619316-64.34099209 1.83574336-2.44765723 3.67148584-4.57136016 3.97744366-4.57136015z m-14.37998731 3.34753154c0.30595693 0.30595693-10.38454629 12.50824922-17.42156104 19.81522529a317.18759414 317.18759414 0 0 1-57.80790703 46.66746709c-2.75361416 1.81774511-5.21926963 3.34753154-5.50722832 3.65348848-0.61191474 0.30595693 0.30595693-0.61191474 9.79062891-10.97846368 6.11914307-6.71306045 10.69050323-12.20229141 16.19773242-18.89735361a36.17493575 36.17493575 0 0 1 9.17871503-8.85476074c13.46211563-10.36654893 44.95770615-31.71156065 45.56962003-31.40560283z" fill="#EE352C" p-id="2284"></path><path d="M262.34957128 739.69512295c-1.83574336 0-3.36552891 0.30595693-5.20127138 0.30595693-34.86111943 1.83574336-58.11386396 17.09760674-71.8819374 46.97342403-11.6083749 26.81624531-10.38454629 62.1992918 0 89.03353534 12.23828701 26.52828575 32.12550263 40.54832315 65.15087959 45.73159718 7.03701474 1.22382862 11.62637227 4.89531445 25.39444482 20.75109521L292.63933057 962h30.27176191l-20.17517519-20.1211831c-11.0144584-10.97846279-20.19317256-20.73309698-20.19317344-21.65096866 0-0.91787168 4.28340058-2.75361416 9.48467285-4.26540322 17.11560411-5.18327403 31.18963359-18.30343711 40.9802625-38.42462022 7.95488643-16.1617377 9.17871503-21.05705215 10.40254365-41.17823525 3.05957197-59.75163458-28.43601855-96.97042441-81.06065157-96.64646924z m26.61827344 156.1281416c-14.68594424 7.01901738-36.10294541 8.54880293-50.15897753 3.36552891-14.39798467-5.18327403-28.4540168-20.13918047-34.8791168-37.20079161-7.01901738-18.60939492-6.11914307-52.76861279 2.15969766-68.0124788 12.83220352-24.38658545 29.96580498-35.67100605 54.73033769-35.67100606 36.71486016 0 57.80790703 22.56884033 60.56152119 64.64694991 2.15969766 35.36504912-9.79062891 61.91133222-32.41346221 72.88979501z m523.33073351-105.19527217c-12.85020088 0-22.31687549 5.18327403-29.06593067 15.24386514l-5.18327402 7.9188917v-20.73309698h-22.02891593v124.72253878h22.02891593v-39.95440665c0-36.58887773 0.30595693-40.85428008 5.48923095-50.60891513 7.03701474-13.71407959 19.27530175-20.42714004 30.90167403-17.38556543l7.95488642 2.14170029V790.30403721l-10.09658671 0.30595781z m-129.07792882-1.22382861c-4.28340058 0-8.8727581 0.61191474-13.46211563 1.52978555-29.35389023 7.61293388-45.87557783 35.67100605-44.95770526 64.64694902 0 24.08062852 4.58935752 36.2829208 16.52168671 49.09712695 23.84666104 19.50926836 45.56962002 21.03905479 74.94150762 10.67250586l10.38454629-4.57136016v-19.52726659l-10.38454629 5.48923183c-23.55870146 10.36654893-41.61017461 10.36654893-55.97216367-1.83574336-9.17871503-9.14272031-13.15615781-20.42714004-14.99190118-32.93538838h88.6915837v-16.7556542c0-34.4651748-20.78708994-56.11614346-50.75289492-55.79218916z m-35.77899111 54.89231485s3.36552891-21.34501172 15.29785811-29.87581729c5.79518877-3.95944541 12.52624658-6.11914307 19.25730439-6.11914395 6.73105781 0 13.13816045 2.15969766 18.66338701 6.40710351 11.0144584 8.54880293 13.13816045 29.58785771 13.13816045 29.58785773H647.45965567z m-530.38574561-22.56884034c-23.84666104-14.32599433-34.5551625-24.69254326-33.02537695-36.89483466 3.67148584-33.8352627 45.56962002-29.28190078 68.82236543-16.46769464l0.30595693-22.8567999s-12.85020088-5.5072292-31.18963359-5.81318613c-28.14805898-0.30595693-46.50548906 8.85476075-55.07229023 27.75211435-12.52624658 27.75211435-1.52978555 48.79116914 38.85656044 71.97192422 22.62283242 13.10216573 32.71941914 24.38658545 32.71941914 36.89483467 0 25.61041494-30.88367666 34.4651748-62.99118105 18.59139668-6.74905518-3.34753154-12.23828701-6.08314834-12.54424395-6.08314834-1.22382862 7.30697695-0.61191474 24.69254326-0.61191386 24.69254326s9.77263154 3.95944541 24.47657315 7.01901739c36.69686279 7.30697695 69.72223886-9.75463418 73.0697704-37.50674854 2.46565459-26.22232881-7.01901738-39.95440664-42.79800849-61.29941836z m890.0833878-32.32347451c-4.28340058 0-8.8727581 0.61191474-13.46211475 1.52978555-29.3718876 7.61293388-45.8935752 35.67100605-44.95770615 64.64694902 0 24.08062852 4.58935752 36.2829208 16.50368935 48.77317177 23.86465927 19.52726661 45.58761739 21.36300908 75.24746544 10.69050323l10.40254365-4.57135928v-19.5272666l-10.40254365 5.48923184c-23.84666104 10.36654893-41.59217724 10.36654893-55.97216368-1.817746-9.17871503-9.16071768-13.13816045-20.13918047-14.99190117-32.93538838h88.40362324v-16.77365244c0-34.4651748-20.8050873-56.11614346-50.77089228-55.50422871z m-36.10294541 54.5863579s3.36552891-21.34501172 15.2978581-29.87581815a31.89153516 31.89153516 0 0 1 18.96934482-6.11914307c6.42510088 0 13.13816045 2.15969766 18.64538966 6.40710351 11.0144584 8.54880293 13.15615781 29.58785771 13.15615781 29.58785771h-66.05075303z m-403.12556279-21.95692646c-23.86465927-14.32599433-34.24920469-24.69254326-33.02537608-36.89483466 3.67148584-33.8352627 45.56962002-29.28190078 68.80436718-16.46769463l0.30595782-22.8567999s-12.83220352-5.5072292-31.1896336-5.81318614c-28.14805898-0.30595693-46.4874917 8.85476075-55.07229023 27.75211436-12.52624658 27.75211435-1.20583125 48.79116914 38.87455781 71.97192422 22.62283242 13.10216573 32.39546484 24.38658545 32.39546484 36.58887773 0 25.61041494-30.88367666 34.75313438-62.99118193 18.59139668a163.41712119 163.41712119 0 0 0-12.54424307-6.08314834c-1.22382862 7.30697695-0.61191474 24.69254326-0.61191474 24.69254326s9.79062891 3.95944541 24.47657315 7.01901739c36.69686279 7.30697695 69.72223886-9.75463418 73.08776777-37.50674854 2.75361416-25.91637187-6.73105781-39.64844883-42.51004892-60.99346143z m568.30643789-31.71156064c-12.85020088 0-22.64083066 5.18327403-29.06593155 15.24386601l-5.20127139 7.91889171v-20.73309786H1079.93910869v124.72253877h22.02891592v-39.63045146c0-36.6068751 0.30595693-40.85428008 5.5072292-50.6269125 7.01901738-13.71407959 19.2573044-20.42714004 30.90167402-17.0796085l7.93688819 2.1417003v-21.65096866l-10.07858848-0.30595781z m-743.25994366 31.09964678v-79.58485811h-22.02891592v175.94336778h93.2989377v-20.73309786h-70.96406484l-0.30595694-75.62541181z m512.92818984 24.71053974l-18.35743008 47.2613836-17.42156102-47.56734053-17.74551534-52.76861192h-22.6228333c14.66794688 41.48419219 30.59571621 83.86825869 46.79344951 124.72253878 7.01901738 0.30595693 14.07402949 0 21.11104424 0l24.76453271-61.91133224 25.08848789-63.11716435h-21.72295898c-0.30595693 0.30595693-9.79062891 25.3224545-19.88721563 53.38052666z m-461.54538368-152.16869619a11.78834941 11.78834941 0 0 0 8.8727581-3.65348847 11.6983626 11.6983626 0 0 0 3.67148584-8.85475987 11.6983626 11.6983626 0 0 0-3.67148584-8.83676338 12.77821143 12.77821143 0 0 0-8.8727581-3.36552891 11.33841269 11.33841269 0 0 0-8.87275811 3.67148672 12.20229141 12.20229141 0 0 0-3.67148584 8.8367625c0 3.65348847 1.22382862 6.71306045 3.67148584 8.8367625a12.25628437 12.25628437 0 0 0 8.87275811 3.36552891z m-7.95488643-20.42714003a10.38454629 10.38454629 0 0 1 7.95488643-3.05957198c3.05957197 0 5.81318613 0.91787168 7.95488642 3.05957198a11.05045313 11.05045313 0 0 1 0 15.85577987 10.85248037 10.85248037 0 0 1-7.95488642 3.05957198 10.85248037 10.85248037 0 0 1-7.95488643-3.05957198 11.05045313 11.05045313 0 0 1-3.36552891-7.91889081 12.45425625 12.45425625 0 0 1 3.36552891-7.93688906z m5.21926963 9.14272031h1.51178818c0.91787168 0 2.15969766 0.89987432 2.75361417 2.73561679l1.83574335 3.95944541h2.75361416l-2.14170029-4.26540235c-0.89987432-1.81774511-1.83574336-2.7356168-2.75361417-3.04157461a5.83118349 5.83118349 0 0 0 3.05957198-1.52978554c0.61191474-0.61191474 0.91787168-1.81774511 0.9178708-2.7356168a3.90545332 3.90545332 0 0 0-1.22382861-3.05957196c-0.89987432-0.89987432-2.44765723-1.20583125-4.58935752-1.20583125h-4.58935752v15.83778251h2.15969766l0.28796045-6.6950622z m0-7.32497432h2.26768183c1.61977325 0 2.60963437 0.3599499 3.25754473 0.6839042 0.66590684 0.3599499 0.66590684 1.0438541 0.66590684 2.41166161 0 2.0517126-1.31381631 3.0955667-3.59949639 3.09556671h-2.60963437v-6.19113252z m-366.14074043 5.79518789c0-5.48923184-0.30595693-9.75463418-0.30595693-12.20229141 0.61191474 2.75361416 1.22382862 4.89531445 1.83574247 6.40710352l21.41700206 47.27938008h3.67148583l21.41700118-47.87329747c0.59391651-1.22382862 1.20583125-3.36552891 1.81774599-6.11914306h0.30595694c-0.30595693 4.89531445-0.61191474 8.85476075-0.61191387 12.20229141V722.63351094h7.34297168v-62.21728917H123.19305313l-19.86921826 43.60789513c-0.61191474 1.83574336-1.83574336 4.26540323-3.05957198 7.63093125h-0.30595693c-0.30595693-1.83574336-1.52978555-4.28340058-2.75361416-7.32497432L77.92939003 660.72217872H68.12076289v62.19929266h7.03701563l0.30595693-41.75415438z m72.49385039 0.30595781h6.42510088v38.73057715h-6.42510088v-38.73057715z m3.05957197-14.32599434a4.60735488 4.60735488 0 0 0 3.36552891-1.2238286c0.91787168-0.89987432 1.52978555-1.83574336 1.52978555-3.34753155 0-1.22382862-0.30595693-2.44765723-1.52978555-3.36552891a4.60735488 4.60735488 0 0 0-3.36552891-1.20583125 4.60735488 4.60735488 0 0 0-3.3655289 1.20583125 4.89531445 4.89531445 0 0 0-1.52978555 3.36552891c0 1.51178818 0.30595693 2.42965987 1.52978555 3.34753155 0.91787168 0.89987432 2.15969766 1.22382862 3.3655289 1.2238286z m48.01727725 53.66848624v-6.71306046a18.71737998 18.71737998 0 0 1-11.01445753 3.95944542 14.11002422 14.11002422 0 0 1-10.99646102-4.57135928c-2.75361416-3.05957197-4.28340058-7.01901738-4.28339971-12.20229229 0-5.48923184 1.52978555-9.75463418 4.28339971-12.79620791a14.57795918 14.57795918 0 0 1 10.99646102-4.57136016c3.67148584 0 7.34297168 1.20583125 10.7085006 3.34753155v-7.61293476a22.67682539 22.67682539 0 0 0-10.40254365-2.15969766c-7.01901738 0-12.83220352 2.15969766-16.8096463 6.73105781-3.97744277 4.26540323-6.11914307 10.36654893-6.11914394 17.67352588 0 6.40710263 1.83574336 11.89633447 5.81318613 15.85577988 3.95944541 4.28340058 9.17871503 6.40710263 15.29785898 6.40710352 5.18327403-0.30595693 9.17871503-1.22382862 12.52624571-3.34753154z m18.05147314-20.42714004c0-5.18327403 1.22382862-9.16071768 3.36552891-12.20229229 2.14170029-2.44765723 4.28340058-3.95944541 7.34297167-3.95944541 2.44765723 0 4.28340058 0.30595693 5.50722921 1.51178819v-7.30697696a14.21800928 14.21800928 0 0 0-4.28340059-0.61191387 10.70850058 10.70850058 0 0 0-6.73105781 2.42965987 15.06389062 15.06389062 0 0 0-4.89531446 7.63093125h-0.30595693v-9.14272032h-7.01901738v44.50776944h7.01901738v-22.8567999z m40.9802625 23.46871377c6.73105781 0 12.23828701-2.12370292 16.21572979-6.40710264 3.95944541-4.26540323 6.11914307-10.06059112 6.11914394-17.06161113 0-7.32497432-1.83574336-12.81420615-5.5072292-17.09760675-3.67148584-4.24740498-8.8727581-6.08314834-15.60381591-6.08314833s-12.23828701 2.14170029-16.19773242 5.79518877c-4.28340058 4.26540323-6.42510088 10.36654893-6.4251 17.99748018 0 6.69506309 1.83574336 12.18429404 5.81318613 16.44969726 3.65348847 4.28340058 8.85476075 6.40710263 15.58581767 6.40710264z m-10.07858848-35.97696299a14.79392842 14.79392842 0 0 1 10.69050323-4.26540235c4.58935752 0 7.95488643 1.51178818 10.70850059 4.26540235 2.44765723 3.05957197 3.97744277 7.32497432 3.97744365 12.81420615s-1.22382862 9.75463418-3.67148672 12.49025098c-2.44765723 3.05957197-6.11914307 4.57136016-10.70850059 4.57136015a14.11002422 14.11002422 0 0 1-11.01445751-4.57136015c-2.75361416-3.05957197-3.95944541-7.01901738-3.9594463-12.49025098-0.3239543-5.48923184 0.89987432-9.77263154 3.9594463-12.81420615z m63.29713799 32.32347451a11.87833711 11.87833711 0 0 0 0.91787169-17.38556543c-1.83574336-1.81774511-4.28340058-3.34753154-8.26084336-4.85931973a38.44261846 38.44261846 0 0 1-6.71306046-3.67148672 5.75919404 5.75919404 0 0 1-1.83574248-4.57135927c0-1.83574336 0.61191474-3.36552891 2.14169942-4.28340059a8.8367625 8.8367625 0 0 1 5.79518876-1.81774512c3.97744277 0 7.03701474 0.89987432 10.09658672 3.0595711v-7.01901738a19.70724112 19.70724112 0 0 0-9.48467196-2.15969766c-4.57136016 0-8.54880293 1.24182597-11.30241797 3.67148584a10.96046543 10.96046543 0 0 0-4.28340059 9.16071768c0 3.34753154 0.89987432 6.08314834 2.75361504 7.91889169 1.52978555 1.83574336 4.28340058 3.34753154 7.95488642 4.87731709 3.67148584 1.52978555 6.11914307 3.05957197 7.32497432 4.26540235a5.52522656 5.52522656 0 0 1 1.83574336 4.28340059c0 4.26540323-2.75361416 6.38910527-8.54880381 6.38910527-4.28340058 0-8.27884073-1.51178818-11.62637226-4.26540235v7.63093125c3.05957197 1.81774511 6.73105781 2.7356168 11.01445839 2.73561768 5.18327403-0.30595693 9.46667461-1.51178818 12.23828614-3.95944629z m33.961246-42.69002344c-6.73105781 0-12.23828701 2.14170029-16.19773243 5.79518877-4.30139795 4.26540323-6.44309824 10.36654893-6.44309823 17.99748018 0 6.69506309 1.83574336 12.18429404 5.81318613 16.44969726 3.97744277 4.28340058 9.17871503 6.40710263 15.90977285 6.40710352s12.23828701-2.12370292 16.19773242-6.40710352c3.97744277-4.26540323 6.11914307-10.06059112 6.11914307-17.06161113 0-7.32497432-1.83574336-12.81420615-5.48923184-17.09760673-3.97744277-4.24740498-9.17871503-6.08314834-15.90977197-6.08314835z m14.07402949 23.18075508c0 5.48923184-1.22382862 9.75463418-3.67148583 12.49025098-2.44765723 3.05957197-6.11914307 4.57136016-10.70850148 4.57136015a14.11002422 14.11002422 0 0 1-11.01445751-4.57136015c-2.75361416-3.05957197-3.97744277-7.01901738-3.97744366-12.49025098 0-5.79518877 1.52978555-10.07858935 4.28340059-13.12016308a14.79392842 14.79392842 0 0 1 10.70850058-4.26540323c4.28340058 0 7.95488643 1.52978555 10.40254366 4.26540323 2.75361416 3.05957197 3.95944541 7.32497432 3.95944629 13.12016308z m19.25730352 22.24488603h7.03701474v-38.40662372h10.40254365v-6.11914307h-10.40254365v-6.69506308c0-6.1011457 2.44765723-9.44867724 7.34297256-9.44867638a7.37896729 7.37896729 0 0 1 4.58935752 1.22382862v-6.40710352c-1.22382862-0.61191474-3.05957197-0.61191474-5.20127226-0.61191387-3.95944541 0-7.01901738 1.22382862-9.48467198 3.65348848-3.05957197 2.75361416-4.58935752 6.40710263-4.58935751 11.59037667v7.32497519h-7.6489295v6.08314833h7.6489295l0.30595693 37.81270635z m29.37188847-12.18429492c0 8.53080557 3.95944541 13.10216573 11.62637227 13.10216573 2.7356168 0 4.87731709-0.30595693 6.71305957-1.51178818v-6.11914307a7.52294708 7.52294708 0 0 1-4.57136015 1.52978554c-2.44765723 0-3.97744277-0.59391651-5.21926875-1.81774512-0.89987432-1.22382862-1.51178818-3.36552891-1.51178819-6.40710351v-25.01649756h11.30241709v-6.08314834h-11.30241709v-13.12016309c-2.44765723 0.91787168-4.89531445 1.52978555-7.03701475 2.1417003v10.67250586h-7.64892949v6.1011457h7.64892949v26.52828574z m766.18873301 82.01451797a12.77821143 12.77821143 0 0 0-8.87275723-3.34753066 11.33841269 11.33841269 0 0 0-8.8727581 3.65348847 12.20229141 12.20229141 0 0 0-3.67148584 8.85475987 11.6983626 11.6983626 0 0 0 3.67148584 8.83676338 13.35413057 13.35413057 0 0 0 8.87275811 3.34753066 11.78834941 11.78834941 0 0 0 8.87275722-3.65348847 11.6983626 11.6983626 0 0 0 3.67148584-8.8367625 10.34855156 10.34855156 0 0 0-3.67148584-8.85476075z m-0.91787168 16.77365244a10.38454629 10.38454629 0 0 1-7.95488554 3.0595711 10.85248037 10.85248037 0 0 1-7.95488643-3.0595711 11.05045313 11.05045313 0 0 1-3.3655289-7.91889169c0-3.05957197 0.91787168-5.79518877 3.05957109-7.91889171a10.38454629 10.38454629 0 0 1 7.95488643-3.05957109c3.05957197 0 5.81318613 0.89987432 7.95488642 3.05957109a11.05045313 11.05045313 0 0 1 3.3655289 7.91889171c0 3.05957197-0.91787168 5.79518877-3.05957196 7.91889169z m-6.4251-7.30697783c1.22382862-0.30595693 2.14170029-0.91787168 3.05957197-1.52978555 0.61191474-0.61191474 0.91787168-1.83574336 0.91787081-2.73561679a3.90545332 3.90545332 0 0 0-1.22382862-3.05957198c-0.91787168-0.89987432-2.44765723-1.22382862-4.58935752-1.2238286h-4.58935751v15.85578075h2.15969765v-6.69506309h1.51178907c0.91787168 0 1.83574336 0.89987432 2.75361415 2.7356168l1.83574249 3.95944629h2.75361503l-2.14170029-4.26540322c-0.91787168-1.83574336-1.83574336-2.7356168-2.44765723-3.05957198z m-1.36780839-0.53992441h-2.60963526v-6.17313516h2.28568008c1.61977325 0 2.60963437 0.3599499 3.25754385 0.71989892 0.66590684 0.3599499 0.66590684 1.09784619 0.66590683 2.55564229-0.34195254 2.17769502-1.31381631 2.89759394-3.5994955 2.89759395z m-398.69818243-125.0824878h2.14170029v-15.87377812h5.20127139v-2.14170029h-12.54424394v2.14170029h5.20127226v15.85578076z m11.9323292-11.91433183v-3.65348935c0 0.89987432 0.30595693 1.52978555 0.61191475 1.83574336l6.11914306 13.71408046h0.89987432l6.11914307-13.71408046c0.30595693-0.30595693 0.30595693-0.91787168 0.61191474-1.83574336v15.54982382h2.15969766v-17.99748105H792.69932217l-5.5072292 12.50824921c0 0.30595693-0.61191474 1.22382862-0.89987344 2.44765724h-0.32395518c0-0.61191474-0.30595693-1.22382862-0.89987343-2.1417003l-5.5072292-12.50824834h-2.75361416v17.99748018h2.14169941l-0.30595694-12.20229141z" fill="#231F1F" p-id="2285"></path></svg>