<?xml version="1.0" standalone="no"?><!DOCTYPE svg PUBLIC "-//W3C//DTD SVG 1.1//EN" "http://www.w3.org/Graphics/SVG/1.1/DTD/svg11.dtd"><svg t="1702965923885" class="icon" viewBox="0 0 1024 1024" version="1.1" xmlns="http://www.w3.org/2000/svg" p-id="2056" xmlns:xlink="http://www.w3.org/1999/xlink" width="200" height="200"><path d="M517.12 918.18666667c-56.20622222 0-110.70577778-11.03644445-162.13333333-32.768-49.60711111-20.93511111-94.09422222-50.97244445-132.32355556-89.20177778s-68.26666667-82.71644445-89.20177778-132.32355556c-21.73155555-51.31377778-32.768-105.92711111-32.768-162.13333333s11.03644445-110.70577778 32.768-162.13333333c20.93511111-49.60711111 50.97244445-94.09422222 89.20177778-132.32355556 38.22933333-38.22933333 82.71644445-68.26666667 132.32355556-89.20177778 51.31377778-21.73155555 105.92711111-32.768 162.13333333-32.768s110.70577778 11.03644445 162.13333333 32.768c49.60711111 20.93511111 94.09422222 50.97244445 132.32355556 89.20177778 38.22933333 38.22933333 68.26666667 82.71644445 89.20177778 132.32355556 21.73155555 51.31377778 32.768 105.92711111 32.768 162.13333333s-11.03644445 110.70577778-32.768 162.13333333c-20.93511111 49.60711111-50.97244445 94.09422222-89.20177778 132.32355556-38.22933333 38.22933333-82.71644445 68.26666667-132.32355556 89.20177778-51.31377778 21.73155555-105.92711111 32.768-162.13333333 32.768z m0-750.93333334c-184.43377778 0-334.50666667 150.07288889-334.50666667 334.50666667s150.07288889 334.50666667 334.50666667 334.50666667 334.50666667-150.07288889 334.50666667-334.50666667-150.07288889-334.50666667-334.50666667-334.50666667z" p-id="2057"></path><path d="M425.52888889 317.78133333L698.70933333 494.93333333 425.52888889 671.97155555z" p-id="2058"></path></svg>