<?xml version="1.0" standalone="no"?><!DOCTYPE svg PUBLIC "-//W3C//DTD SVG 1.1//EN" "http://www.w3.org/Graphics/SVG/1.1/DTD/svg11.dtd"><svg t="1709877215367" class="icon" viewBox="0 0 1024 1024" version="1.1" xmlns="http://www.w3.org/2000/svg" p-id="16307" xmlns:xlink="http://www.w3.org/1999/xlink" width="200" height="200"><path d="M703.13 576.11c42.74 0 82.92 16.64 113.14 46.86s46.86 70.4 46.86 113.14-16.64 82.92-46.86 113.14-70.4 46.86-113.14 46.86-82.91-16.65-113.13-46.87-46.86-70.4-46.86-113.14 16.64-82.92 46.86-113.14c30.22-30.21 70.39-46.85 113.13-46.85m0-64c-123.71 0-224 100.29-224 224s100.29 224 224 224 224-100.29 224-224-100.29-224-224-224zM641.01 223.5h-362c-17.67 0-32 14.33-32 32s14.33 32 32 32h362c17.67 0 32-14.33 32-32s-14.33-32-32-32zM542.77 400.75H279.01c-17.67 0-32 14.33-32 32s14.33 32 32 32h263.76c17.67 0 32-14.33 32-32s-14.33-32-32-32zM369.76 578h-90.75c-17.67 0-32 14.33-32 32s14.33 32 32 32h90.75c17.67 0 32-14.33 32-32s-14.33-32-32-32z" p-id="16308"></path><path d="M411.42 960h-198.4c-61.76 0-112-50.24-112-112V176c0-61.76 50.24-112 112-112H707c61.76 0 112 50.24 112 112v242.21c0 17.67-14.33 32-32 32s-32-14.33-32-32V176c0-26.47-21.53-48-48-48H213.02c-26.47 0-48 21.53-48 48v672c0 26.47 21.53 48 48 48h198.4c17.67 0 32 14.33 32 32s-14.33 32-32 32z" p-id="16309"></path><path d="M687.95 663.54c-10.36 0-20.08 8.19-20.08 20.04v105.06c0 11.84 9.71 20.04 20.08 20.04 4.02 0 8.14-1.23 11.83-3.97l70.52-52.29c10.75-7.97 10.79-24.06 0.07-32.08l-70.52-52.77c-3.7-2.78-7.85-4.03-11.9-4.03z" p-id="16310"></path></svg>