<?xml version="1.0" standalone="no"?><!DOCTYPE svg PUBLIC "-//W3C//DTD SVG 1.1//EN" "http://www.w3.org/Graphics/SVG/1.1/DTD/svg11.dtd"><svg t="1710667930415" class="icon" viewBox="0 0 1024 1024" version="1.1" xmlns="http://www.w3.org/2000/svg" p-id="4360" xmlns:xlink="http://www.w3.org/1999/xlink" width="200" height="200"><path d="M405.3504 123.7504q136.704 0 234.3424 32.5632 111.104 37.0176 111.2576 99.5328v167.7824q82.5856 7.9872 143.36 68.7616 69.9392 69.9904 69.9392 168.96 0 98.9696-69.9904 168.96-69.9392 69.9392-168.96 69.9392-57.4976 0-107.9296-25.7024-91.5968 25.7024-212.0192 25.7024-136.704 0-234.3936-32.5632Q59.7504 830.6176 59.7504 768V256q0-62.6176 111.2064-99.6864 97.6896-32.5632 234.3936-32.5632z m155.1872 711.68q-3.4816-3.2256-6.8608-6.5536-42.7008-42.3936-58.7776-103.424-43.52 4.1472-89.6 4.1472-136.704 0-234.3424-32.5632-35.7376-11.9296-60.0064-26.4704V768q0 9.2672 15.36 21.4016 20.7872 16.384 60.8256 29.696 89.8048 29.952 218.2144 29.952 85.8112 0 155.1872-13.6192z m-73.728-160.6144l-0.1536-1.9968q-0.256-5.7344-0.256-11.4688 0-58.9824 25.3952-108.2368-50.8416 5.8368-106.496 5.8368-136.704 0-234.3424-32.5632-35.7376-11.9296-60.0064-26.4704v97.4336q0 9.2672 15.36 21.4016 20.7872 16.384 60.8256 29.696 89.8048 29.952 218.2144 29.952 41.8304 0 81.408-3.584z m66.7648-179.6096q60.7232-63.488 146.176-71.6288V329.216q-24.2688 14.592-60.0576 26.4704-97.6384 32.5632-234.3424 32.5632t-234.3936-32.5632q-35.7376-11.8784-60.0064-26.4704v97.4336q0 9.3184 15.36 21.4528 20.7872 16.384 60.8256 29.696 89.8048 29.952 218.2144 29.952 79.5648 0 148.224-12.544z m285.6448 87.3472l-96.3584-55.6032a31.6928 31.6928 0 0 0-31.6416 0l-96.3584 55.6032a31.6928 31.6928 0 0 0-15.8208 27.4432v111.2064c0 11.3152 6.0416 21.76 15.872 27.4432l96.256 55.6032c9.8304 5.632 21.9136 5.632 31.744 0l96.256-55.6032a31.6928 31.6928 0 0 0 15.872-27.4432v-111.2064a31.6928 31.6928 0 0 0-15.872-27.4432z" p-id="4361"></path></svg>