<?xml version="1.0" standalone="no"?><!DOCTYPE svg PUBLIC "-//W3C//DTD SVG 1.1//EN" "http://www.w3.org/Graphics/SVG/1.1/DTD/svg11.dtd"><svg t="1702965930008" class="icon" viewBox="0 0 1024 1024" version="1.1" xmlns="http://www.w3.org/2000/svg" p-id="2196" xmlns:xlink="http://www.w3.org/1999/xlink" width="200" height="200"><path d="M512 932C280.034375 932 92 743.965625 92 512S280.034375 92 512 92s420 188.034375 420 420-188.034375 420-420 420z m0.403125-78.43125c188.446875 0 341.259375-152.821875 341.259375-341.259375s-152.8125-341.26875-341.259375-341.26875-341.259375 152.821875-341.259375 341.259375 152.71875 341.26875 341.259375 341.26875zM380.740625 354.425h262.528125c14.475 0 26.2125 11.7375 26.2125 26.2125v262.621875c0 14.475-11.7375 26.2125-26.2125 26.2125H380.740625c-14.475 0-26.2125-11.7375-26.2125-26.2125V380.740625c0-14.578125 11.7375-26.315625 26.2125-26.315625z" p-id="2197"></path></svg>