<?xml version="1.0" standalone="no"?><!DOCTYPE svg PUBLIC "-//W3C//DTD SVG 1.1//EN" "http://www.w3.org/Graphics/SVG/1.1/DTD/svg11.dtd"><svg t="1705750500653" class="icon" viewBox="0 0 1024 1024" version="1.1" xmlns="http://www.w3.org/2000/svg" p-id="2108" xmlns:xlink="http://www.w3.org/1999/xlink" width="200" height="200"><path d="M96 160v256h832V160c0-38.4-25.6-64-64-64H160c-32 0-64 25.6-64 64z m768 192H160V160h704v192z" p-id="2109"></path><path d="M96 352v320h832V352H96z m768 256H160V416h704v192z" p-id="2110"></path><path d="M96 608v256c0 38.4 25.6 64 64 64h704c38.4 0 64-25.6 64-64V608H96z m768 256H160V672h704v192zM230.4 224h256v64h-256z m0 256h256v64h-256z" p-id="2111"></path><path d="M230.4 736h256v64h-256z" p-id="2112"></path></svg>