<?xml version="1.0" standalone="no"?><!DOCTYPE svg PUBLIC "-//W3C//DTD SVG 1.1//EN" "http://www.w3.org/Graphics/SVG/1.1/DTD/svg11.dtd"><svg t="1710918853423" class="icon" viewBox="0 0 1024 1024" version="1.1" xmlns="http://www.w3.org/2000/svg" p-id="26501" xmlns:xlink="http://www.w3.org/1999/xlink" width="200" height="200"><path d="M469.333333 128a42.666667 42.666667 0 0 1 85.333334 0v85.333333a42.666667 42.666667 0 0 1-85.333334 0V128z m0 682.666667a42.666667 42.666667 0 0 1 85.333334 0v85.333333a42.666667 42.666667 0 0 1-85.333334 0v-85.333333z m42.666667-85.333334a213.333333 213.333333 0 1 1 0-426.666666 213.333333 213.333333 0 0 1 0 426.666666z m0-85.333333a128 128 0 1 0 0-256 128 128 0 0 0 0 256z m-384-85.333333a42.666667 42.666667 0 0 1 0-85.333334h85.333333a42.666667 42.666667 0 0 1 0 85.333334H128z m682.666667 0a42.666667 42.666667 0 0 1 0-85.333334h85.333333a42.666667 42.666667 0 0 1 0 85.333334h-85.333333z m-30.165334-371.498667a42.666667 42.666667 0 0 1 60.330667 60.330667l-67.456 67.456a42.666667 42.666667 0 0 1-60.330667-60.330667l67.413334-67.456zM243.498667 840.832a42.666667 42.666667 0 1 1-60.330667-60.330667l67.456-67.456a42.666667 42.666667 0 1 1 60.330667 60.330667l-67.413334 67.456z m-60.330667-597.333333a42.666667 42.666667 0 0 1 60.330667-60.330667l67.456 67.456a42.666667 42.666667 0 0 1-60.330667 60.330667l-67.456-67.413334z m657.664 537.002666a42.666667 42.666667 0 0 1-60.330667 60.330667l-67.456-67.456a42.666667 42.666667 0 0 1 60.330667-60.330667l67.456 67.413334z" p-id="26502"></path></svg>