<?xml version="1.0" standalone="no"?><!DOCTYPE svg PUBLIC "-//W3C//DTD SVG 1.1//EN" "http://www.w3.org/Graphics/SVG/1.1/DTD/svg11.dtd"><svg t="1704282487056" class="icon" viewBox="0 0 1088 1024" version="1.1" xmlns="http://www.w3.org/2000/svg" p-id="4522" xmlns:xlink="http://www.w3.org/1999/xlink" width="212.5" height="200"><path d="M539.904 559.616l80.448 167.936H544.896c0 93.888 60.352 182.848 150.848 217.408 90.56 34.56 196.16 14.784 261.504-54.4l25.152 54.4c-55.296 49.408-125.696 79.04-196.096 79.04-165.952 0-301.76-133.376-301.76-296.448 0-64.192 20.16-118.528 55.36-167.936zM448 0c123.2 0 235.2 17.984 313.6 54.016 84.352 39.488 128.96 84.352 133.952 134.528l0.448 9.472v215.296a297.6 297.6 0 0 0-59.2-21.12c1.408-3.2 2.368-6.4 2.816-9.6l0.384-4.608V305.984c-56 24-95.168 54.016-156.8 66.048A975.36 975.36 0 0 1 448 401.92a975.36 975.36 0 0 1-235.2-29.952c-54.784-10.688-91.84-35.584-138.688-57.856l-18.112-8.192v66.048c0 35.968 44.8 72 123.2 101.952 78.4 24 173.568 41.984 268.8 41.984 24.064 0 48.448-1.088 72.704-3.2a351.36 351.36 0 0 0-37.44 62.464l-4.032 0.192L448 576a975.36 975.36 0 0 1-235.2-30.016c-53.888-15.744-90.624-36.096-136.512-60.992l-20.288-11.008v90.048c0 41.984 44.8 77.952 123.2 101.952s173.568 41.984 268.8 41.984h1.024a381.056 381.056 0 0 0 0.832 65.92l-7.424 0.128c-78.4 0-162.432-12.032-229.632-30.08-53.888-15.68-90.624-36.032-136.512-60.992L56 672v89.984c0 36.032 44.8 72 123.2 96s173.568 41.984 268.8 41.984c11.904 0 24.064-0.192 36.48-0.64 9.92 20.864 21.76 40.512 35.136 58.624C496.32 959.296 472.384 960 448 960c-123.2 0-235.2-17.984-313.6-60.032C49.792 866.048 5.12 816 0.384 764.992L0 756.032v-558.08C0 144 44.8 96 134.4 54.016 212.8 18.048 324.8 0 448 0z m338.304 431.168C952.256 431.168 1088 564.48 1088 727.552c0 59.328-20.096 118.592-55.296 168l-80.448-168h75.392c0-93.824-60.352-182.784-150.848-217.344-90.496-39.552-196.096-19.776-261.504 49.408l-30.144-54.4c55.296-49.344 125.696-74.048 201.152-74.048z m4.992 153.152c10.048 0 25.152 4.928 35.2 4.928 30.208 9.856 55.36 24.704 70.4 49.408 15.104 24.704 25.152 49.408 25.152 83.968 0 29.632-10.048 54.4-25.152 79.04-20.096 29.632-45.248 49.408-80.448 59.328-12.544 4.096-28.608 4.8-48.192 4.864h-77.504V589.312l4.992-4.928h95.552z m-30.144 54.336h-15.104v182.784h5.056c20.096 0 35.2-4.928 45.248-4.928 15.104-4.928 25.152-9.856 35.2-14.848 25.152-19.712 35.2-44.416 35.2-74.112 0-24.704-5.056-44.416-20.096-59.264-10.112-9.856-20.16-19.776-35.2-24.704-10.112-4.928-30.208-4.928-50.304-4.928zM448 60.032c-95.168 0-190.4 11.968-263.168 35.968C106.432 126.016 61.632 161.984 61.632 198.016c0 41.984 39.168 78.016 123.136 101.952 72.832 30.08 168 42.048 263.232 42.048 89.6 0 190.4-12.032 263.168-42.048 84.032-23.936 123.2-59.968 123.264-96 0-35.968-44.8-71.936-123.2-101.952A902.4 902.4 0 0 0 448 60.032z" fill="" p-id="4523"></path></svg>