<?xml version="1.0" standalone="no"?><!DOCTYPE svg PUBLIC "-//W3C//DTD SVG 1.1//EN" "http://www.w3.org/Graphics/SVG/1.1/DTD/svg11.dtd"><svg t="1703755867898" class="icon" viewBox="0 0 1024 1024" version="1.1" xmlns="http://www.w3.org/2000/svg" p-id="1538" xmlns:xlink="http://www.w3.org/1999/xlink" width="200" height="200"><path d="M174.5 118.25c-31.06582031 0-56.25 25.18417969-56.25 56.25v675c0 31.06582031 25.18417969 56.25 56.25 56.25h675c31.06582031 0 56.25-25.18417969 56.25-56.25V174.5c0-31.06582031-25.18417969-56.25-56.25-56.25H174.5z m0-56.25h675c62.13164063 0 112.5 50.36835937 112.5 112.5v675c0 62.13164063-50.36835937 112.5-112.5 112.5H174.5C112.36835938 962 62 911.63164062 62 849.5V174.5C62 112.36835938 112.36835938 62 174.5 62z m289.28583984 220.98164063h265.17919922V343.25c-15.83789063 24.51708984-51.3 59.7375-84.375 84.375 21.15 7.65087891 61.32832031 11.66748047 120.53583985 12.05332031l-12.05419922 60.26923828c-55.6875-6.41425781-108.53085938-27.96591797-144.64335938-48.21591796-38.47412109 18.5625-88.95498047 36.40166016-144.64248047 48.21416015l-24.10839843-60.26748047c49.55273438-7.46367187 88.13671875-10.94501953 120.53671875-24.10664062-24.6375-21.9375-48.11835938-39.58417969-60.26835938-72.32167969h-36.15996094v-60.26835937zM564.73525391 343.25c10.8 22.6125 19.57324219 36.196875 42.18574218 52.734375 28.01425781-17.55087891 39.61494141-31.134375 52.77744141-52.734375H564.734375zM512 512h60.26835937v-36.15996094h60.25429688V512h60.28154297v60.26835937h-60.28154297v36.15996094h96.44150391v60.26923828h-96.44238282v96.4265625h-60.25253906V668.69580078H475.84091797v-60.26748047h96.42832031v-36.15908203H512V512zM331.19580078 258.875c30.13505859 19.43525391 71.29511719 48.21503906 96.42832031 72.32080078l-48.21416015 60.26923828c-18.9-22.95087891-47.92412109-57.71337891-84.3741211-84.375L331.19580078 258.875z m120.54902344 349.55332031v48.21416016C402.14111328 703.60419922 365.97587891 735.74580078 343.25 753.07167969L311.609375 701.84375c9.45-8.4375 19.58642578-22.00957031 19.58642578-33.14794922V475.84003906h-72.31992187v-60.26923828h132.58916015v229.01923828c25.16484375-8.00068359 45.25839844-20.05488281 60.27978516-36.16171875z" p-id="1539"></path></svg>