<?xml version="1.0" standalone="no"?><!DOCTYPE svg PUBLIC "-//W3C//DTD SVG 1.1//EN" "http://www.w3.org/Graphics/SVG/1.1/DTD/svg11.dtd"><svg t="1710919228962" class="icon" viewBox="0 0 1024 1024" version="1.1" xmlns="http://www.w3.org/2000/svg" p-id="35896" xmlns:xlink="http://www.w3.org/1999/xlink" width="200" height="200"><path d="M513.208 1018.338c-280.367 0-507.624-227.296-507.624-507.624C5.584 230.327 232.84 3.069 513.208 3.069s507.624 227.257 507.624 507.645c0 280.328-227.257 507.624-507.624 507.624z m0-920.088c-227.801 0-412.445 184.662-412.445 412.464 0 106.532 40.746 203.267 107 276.44 59.758-28.848 37.83-4.821 115.98-37.014 79.976-32.854 98.912-44.324 98.912-44.324l0.777-75.817s-29.976-22.706-39.269-94.013c-18.74 5.365-24.922-21.851-26.05-39.191-1.01-16.72-10.847-69.013 12.014-64.309-4.666-34.915-8.01-66.369-6.376-83.048 5.715-58.555 62.559-119.733 150.08-124.185 102.915 4.453 143.702 65.592 149.417 124.126 1.672 16.7-1.983 48.193-6.687 83.03 22.9-4.666 12.947 47.59 11.82 64.308-1.01 17.34-7.35 44.48-26.011 39.114-9.37 71.269-39.309 93.858-39.309 93.858l0.7 75.35s18.936 10.732 98.913 43.625c78.149 32.193 56.22 9.565 115.942 38.492 66.29-73.174 107.039-169.908 107.039-276.441C925.653 282.912 741.009 98.25 513.208 98.25z" p-id="35897"></path></svg>