<?xml version="1.0" standalone="no"?><!DOCTYPE svg PUBLIC "-//W3C//DTD SVG 1.1//EN" "http://www.w3.org/Graphics/SVG/1.1/DTD/svg11.dtd"><svg t="1705369355372" class="icon" viewBox="0 0 1024 1024" version="1.1" xmlns="http://www.w3.org/2000/svg" p-id="2110" xmlns:xlink="http://www.w3.org/1999/xlink" width="200" height="200"><path d="M512.125 146.402c97.488 0 181.399 72.188 196.205 168.234 15.22-4.733 30.848-7.2 46.684-7.2 43.807 0 83.293 17.687 112.084 46.274 28.794 28.587 46.07 68.486 46.07 112.087 0 41.34-16.039 79.797-42.368 107.768l37.434 37.64c16.863 16.658 29.408 35.372 37.84 55.735 8.635 20.977 12.957 42.984 12.957 66.428v46.687c0 12.544-3.91 25.5-11.106 35.785-7.608 11.104-19.333 18.51-33.935 20.565-1.233 0.41-2.056 0.41-3.29 0.41h-36.404v12.342c0 16.453-12.956 28.998-28.996 28.998H178.542c-15.837 0-28.794-12.545-28.794-28.998v-12.341h-36.402c-1.027 0-2.26 0-3.292-0.41-14.808-2.056-26.325-9.462-33.935-20.566-7.195-10.285-11.307-23.241-11.307-35.785v-46.687c0-23.444 4.523-45.451 12.957-66.428 8.637-20.362 21.385-39.077 37.84-55.736l37.639-37.639c-26.534-27.97-42.574-66.43-42.574-107.768 0-43.6 17.685-83.5 46.477-112.087 28.382-28.587 68.283-46.274 111.883-46.274 16.037 0 31.67 2.467 46.48 7.2 15.014-96.046 98.718-168.234 196.611-168.234z m89.258 673.962v-25.913l0.412-2.467V688.945c0-9.87 7.818-17.48 17.277-17.48 9.459 0 17.274 7.611 17.274 17.48v76.3h74.863c1.031-1.644 1.644-4.112 1.644-6.58v-61.288c0-22.623-3.7-42.983-11.723-61.905-4.728-10.9-10.9-22.006-18.506-32.7h-0.21l-0.41-0.412v-0.206l-0.411-0.41-0.411-0.411c-4.523-5.964-9.666-11.724-15.215-17.482l-62.317-62.318c-27.357 14.397-58.617 22.828-91.523 22.828-33.316 0-64.167-8.431-91.93-22.828l-61.903 62.318c-5.76 5.758-11.105 11.518-15.633 17.482v0.411l-0.616 0.41v0.206l-0.614 0.411a209.14 209.14 0 0 0-18.512 32.701c-7.82 18.922-11.725 39.282-11.725 61.905v61.288c0 2.468 0.616 4.935 1.439 6.58h74.863v-76.3c0-9.87 7.815-17.48 17.482-17.48s17.48 7.611 17.48 17.48v131.418h178.925v0.001z m-89.258-334c76.301 0 140.47-62.316 140.47-141.084 0-77.331-62.73-140.675-140.47-140.675-77.737 0-140.877 63.344-140.877 140.675 0 78.768 64.165 141.083 140.877 141.083z m-303.969 334h84.324c-10.9-3.7-19.745-11.312-26.327-20.565-8.433-11.723-12.957-26.737-12.957-41.133v-61.288c0-26.119 4.113-50.593 12.135-73.216-23.035-0.823-45.247-6.582-64.988-15.63L156.74 651.72c-11.514 11.93-19.74 24.063-25.502 37.432v0.203c-5.345 13.369-8.224 28.178-8.224 44.014v45.245H173.4v-51.208c0-9.872 8.021-17.481 17.48-17.481 9.464 0 17.277 7.61 17.277 17.481v92.958z m107.562-443.413c-5.143-2.673-10.9-4.937-16.66-7.199-9.457-2.674-19.333-4.32-30.024-4.32-27.56 0-52.651 11.518-71.158 29.41-17.689 18.099-29.205 43.19-29.205 70.955 0 27.56 11.516 52.65 29.205 70.749 18.507 18.1 43.597 29.41 71.158 29.41 6.991 0 13.779-0.616 19.745-1.852 4.112-1.233 8.224-2.26 12.133-3.494 5.139-5.966 10.486-12.135 16.246-17.69l55.941-55.736-1.44-1.233h-0.206c-26.734-26.943-43.602-59.23-53.062-96.043-0.411-2.674-1.234-6.171-2.056-9.255v-1.03l-0.207-0.823-0.41-1.849z m500.173 443.413v-92.958c0-9.872 7.611-17.481 17.482-17.481 9.461 0 17.277 7.61 17.277 17.481v51.208h50.593V733.37c0-15.836-3.086-30.644-8.64-44.014h0.411l-0.411-0.203c-5.346-13.369-13.984-25.501-25.093-37.432l-44.008-43.187c-19.334 9.048-41.542 14.807-64.988 15.629 8.224 22.622 12.133 47.096 12.133 73.216v61.288c0 14.396-4.32 29.41-12.544 41.133-6.789 9.253-15.633 16.864-26.537 20.565h84.325zM708.33 376.951l-0.411 1.85v0.823l-0.41 0.618v0.412c-7.817 39.487-26.119 76.3-54.912 105.298h-0.207l-1.233 1.233 55.53 55.736c6.167 5.555 11.513 11.724 16.447 17.69 3.708 1.234 7.82 2.26 12.137 3.494h-0.205 0.205c5.965 1.236 12.956 1.853 19.744 1.853 27.768 0 52.853-11.313 70.954-29.41 18.1-18.1 29.407-43.19 29.407-70.75 0-27.765-11.308-52.856-29.407-70.954-18.1-17.893-43.186-29.41-70.954-29.41-10.489 0-20.772 1.644-29.819 4.32-5.763 2.26-11.52 4.524-16.866 7.197z" p-id="2111"></path></svg>