<?xml version="1.0" standalone="no"?><!DOCTYPE svg PUBLIC "-//W3C//DTD SVG 1.1//EN" "http://www.w3.org/Graphics/SVG/1.1/DTD/svg11.dtd"><svg t="1710148302954" class="icon" viewBox="0 0 1024 1024" version="1.1" xmlns="http://www.w3.org/2000/svg" p-id="2362" xmlns:xlink="http://www.w3.org/1999/xlink" width="200" height="200"><path d="M152.782435 755.736527C83.289421 755.736527 26.570858 812.45509 26.570858 882.459082s56.718563 125.700599 126.211577 125.700599c68.982036 0 126.211577-55.696607 126.211577-125.700599s-56.207585-126.722555-126.211577-126.722555z m0 189.061876c-32.191617-1.021956-58.251497-27.081836-59.784431-59.784431-1.532934-34.235529 25.548902-63.872255 59.784431-65.916168 32.191617 1.532934 58.251497 28.103792 59.784431 59.784432 2.043912 34.746507-25.037924 64.383234-59.784431 65.916167zM520.175649 943.265469c-27.081836-5.620758-48.031936-29.636727-49.564871-58.762475-1.021956-17.373253 5.620758-33.213573 16.351298-44.966068-1.532934-13.285429-2.55489-27.081836-2.55489-40.878243 0-11.752495 0.510978-23.50499 2.043912-34.746507-47.520958 17.884232-82.267465 63.361277-82.267465 117.52495 0 70.003992 56.718563 126.211577 126.211577 126.211577 11.241517 0 21.461078-1.532934 31.680638-4.087825-15.840319-17.884232-30.147705-38.323353-41.900199-60.295409zM909.02994 378.123752h-346.443114V311.696607c71.536926-14.818363 125.700599-78.179641 125.700599-154.315369 0-86.866267-70.51497-157.381238-157.381237-157.381238S373.013972 70.51497 373.013972 157.381238c0 76.135729 54.163673 140.007984 126.211577 154.315369v66.427145H120.590818v238.626747l-32.191616-32.191617-44.45509 44.45509L150.738523 735.808383l115.481038-104.239521-41.9002-47.00998-40.878243 36.279441V441.48503h315.273453v175.776447l-32.191617-32.191617-44.45509 44.45509 76.646707 75.624751c1.532934-4.598802 3.065868-9.708583 5.10978-14.307386 0.510978-1.532934 1.021956-3.065868 1.532934-4.087824l4.598803-10.730539c0.510978-1.021956 1.021956-2.55489 1.532934-3.576846 1.532934-4.087824 3.576846-7.664671 5.620758-11.752495l1.532935-3.065868c2.043912-4.087824 4.598802-8.175649 6.642714-12.263474 10.730539-18.39521 22.994012-35.768463 37.301397-51.097804V441.48503h315.273453v61.828343c21.972056 6.642715 43.433134 15.329341 63.361278 26.05988V378.123752h-32.191617z m-378.63473-126.211576c-51.608782 0-94.530938-42.922156-94.530939-94.530938s42.922156-94.530938 94.530939-94.530939c52.630739 0 94.530938 42.922156 94.530938 94.530939s-42.922156 94.530938-94.530938 94.530938z" p-id="2363"></path><path d="M771.065868 962.682635c-109.349301 0-195.704591-86.866267-195.704591-195.704591s86.866267-195.704591 195.704591-195.704591 195.704591 86.866267 195.704591 195.704591-86.355289 195.704591-195.704591 195.704591z m0-56.207585c78.179641 0 140.007984-61.317365 140.007984-140.007984s-61.317365-140.007984-140.007984-140.007984-140.007984 61.317365-140.007984 140.007984 61.828343 140.007984 140.007984 140.007984z m165.045908 0l78.179641 78.179641-39.345309 39.345309-78.179641-78.179641 39.345309-39.345309z" fill="" p-id="2364"></path></svg>