<?xml version="1.0" standalone="no"?><!DOCTYPE svg PUBLIC "-//W3C//DTD SVG 1.1//EN" "http://www.w3.org/Graphics/SVG/1.1/DTD/svg11.dtd"><svg t="1705371059799" class="icon" viewBox="0 0 1024 1024" version="1.1" xmlns="http://www.w3.org/2000/svg" p-id="2528" xmlns:xlink="http://www.w3.org/1999/xlink" width="200" height="200"><path d="M224 194.95h56v56h-56zM320.26 194.95h56v56h-56zM415.74 194.95h56v56h-56z" p-id="2529"></path><path d="M888 64H136a72 72 0 0 0-72 72v752a72 72 0 0 0 72 72h752a72 72 0 0 0 72-72V136a72 72 0 0 0-72-72z m-752 72h752v169.85H136V136z m752 752H136V377.85h752V888z" p-id="2530"></path><path d="M618.7 566.21l101.81 101.82-101.82 101.83 39.59 39.6 101.83-101.83h0.01l39.59-39.6-141.42-141.42-39.59 39.6zM404.39 566.21l-39.59-39.6-141.42 141.42 39.59 39.6h0.01l101.83 101.83 39.59-39.6-101.82-101.83 101.81-101.82z" p-id="2531"></path><path d="M434.106 818.885l98.35-367.052 54.093 14.494-98.352 367.052z" p-id="2532"></path></svg>