<?xml version="1.0" standalone="no"?><!DOCTYPE svg PUBLIC "-//W3C//DTD SVG 1.1//EN" "http://www.w3.org/Graphics/SVG/1.1/DTD/svg11.dtd"><svg t="1708682850619" class="icon" viewBox="0 0 1024 1024" version="1.1" xmlns="http://www.w3.org/2000/svg" p-id="9676" xmlns:xlink="http://www.w3.org/1999/xlink" width="200" height="200"><path d="M512 320C423.808 320 352 248.192 352 160S423.808 0 512 0c88.256 0 160 71.808 160 160S600.256 320 512 320z m0-256c-52.928 0-96 43.072-96 96S459.072 256 512 256s96-43.072 96-96S564.928 64 512 64zM512 1024c-70.592 0-128-57.408-128-128s57.408-128 128-128 128 57.408 128 128-57.408 128-128 128z m0-192a64.064 64.064 0 0 0 0 128 64 64 0 0 0 0-128zM896 1024c-70.592 0-128-57.408-128-128s57.408-128 128-128 128 57.408 128 128-57.408 128-128 128z m0-192a64 64 0 1 0 0 128 64 64 0 0 0 0-128zM128 1024c-70.592 0-128-57.408-128-128s57.408-128 128-128 128 57.408 128 128-57.408 128-128 128z m0-192a64.064 64.064 0 0 0 0 128 64.064 64.064 0 0 0 0-128zM128 384h768v64H128z" fill="" p-id="9677"></path><path d="M96 384h64v289.728h-64zM864 384h64v289.728h-64zM480 256h64v449.344h-64z" fill="" p-id="9678"></path><path d="M126.72 748.032L18.752 640 64 594.752l65.28 65.216 73.152-65.152 42.56 47.808zM894.72 748.032L786.752 640 832 594.752l65.28 65.216 73.152-65.152 42.56 47.808zM510.72 748.032L402.752 640 448 594.752l65.28 65.216 73.152-65.152 42.56 47.808z" fill="" p-id="9679"></path><path d="M512 320C423.808 320 352 248.192 352 160S423.808 0 512 0c88.256 0 160 71.808 160 160S600.256 320 512 320z m0-256c-52.928 0-96 43.072-96 96S459.072 256 512 256s96-43.072 96-96S564.928 64 512 64zM512 1024c-70.592 0-128-57.408-128-128s57.408-128 128-128 128 57.408 128 128-57.408 128-128 128z m0-192a64.064 64.064 0 0 0 0 128 64 64 0 0 0 0-128zM896 1024c-70.592 0-128-57.408-128-128s57.408-128 128-128 128 57.408 128 128-57.408 128-128 128z m0-192a64 64 0 1 0 0 128 64 64 0 0 0 0-128zM128 1024c-70.592 0-128-57.408-128-128s57.408-128 128-128 128 57.408 128 128-57.408 128-128 128z m0-192a64.064 64.064 0 0 0 0 128 64.064 64.064 0 0 0 0-128zM128 384h768v64H128z" fill="" p-id="9680"></path><path d="M96 384h64v289.728h-64zM864 384h64v289.728h-64zM480 256h64v449.344h-64z" fill="" p-id="9681"></path><path d="M126.72 748.032L18.752 640 64 594.752l65.28 65.216 73.152-65.152 42.56 47.808zM894.72 748.032L786.752 640 832 594.752l65.28 65.216 73.152-65.152 42.56 47.808zM510.72 748.032L402.752 640 448 594.752l65.28 65.216 73.152-65.152 42.56 47.808z" fill="" p-id="9682"></path></svg>