<?xml version="1.0" standalone="no"?><!DOCTYPE svg PUBLIC "-//W3C//DTD SVG 1.1//EN" "http://www.w3.org/Graphics/SVG/1.1/DTD/svg11.dtd"><svg t="1705371072517" class="icon" viewBox="0 0 1024 1024" version="1.1" xmlns="http://www.w3.org/2000/svg" p-id="2818" xmlns:xlink="http://www.w3.org/1999/xlink" width="200" height="200"><path d="M932.29511111 220.27377778c-19.456-33.67822222-50.85866667-57.79911111-88.40533333-67.81155556-31.06133333-8.30577778-63.14666667-5.68888889-92.38755556 6.25777778-107.97511111-84.53688889-258.38933333-107.17866667-385.25155555-55.86488889-24.91733333 10.01244445-36.864 38.34311111-26.73777778 63.14666667 10.01244445 24.91733333 38.45688889 36.864 63.14666666 26.73777777 89.77066667-36.29511111 195.81155555-23.43822222 275.56977778 31.63022223-22.98311111 42.89422222-24.34844445 96.256 1.82044445 141.53955555 26.96533333 46.64888889 76.00355555 72.704 126.40711111 72.704 24.68977778 0 49.72088889-6.25777778 72.59022222-19.456 33.67822222-19.456 57.79911111-50.85866667 67.81155556-88.40533333 10.01244445-37.66044445 4.89244445-76.91377778-14.56355556-110.47822222z m-79.18933333 85.33333333c-3.41333333 12.51555555-11.37777778 22.98311111-22.64177778 29.46844444-23.32444445 13.42577778-53.02044445 5.34755555-66.33244445-17.74933333-13.42577778-23.21066667-5.46133333-52.90666667 17.74933334-66.33244444 7.50933333-4.32355555 15.81511111-6.48533333 24.12088889-6.48533333 4.20977778 0 8.53333333 0.56888889 12.62933333 1.70666666 12.51555555 3.29955555 22.98311111 11.37777778 29.46844444 22.64177778 6.59911111 11.15022222 8.30577778 24.23466667 5.00622223 36.75022222z m-509.38311111 60.30222222c40.16355555-69.51822222 16.27022222-158.83377778-53.36177778-198.99733333-69.51822222-40.16355555-158.83377778-16.27022222-198.99733334 53.36177778-36.63644445 63.488-19.456 142.90488889 36.52266667 186.82311111-2.61688889 18.432-4.55111111 37.09155555-4.55111111 55.86488889 0 120.832 54.72711111 232.67555555 150.18666667 306.85866667 8.87466667 6.82666667 19.34222222 10.24 29.696 10.24 14.44977778 0 28.78577778-6.48533333 38.34311111-18.77333334 16.49777778-21.16266667 12.62933333-51.65511111-8.53333334-68.15288889-71.56622222-55.63733333-112.64-139.49155555-112.64-230.05866667 0-8.30577778 0.68266667-16.61155555 1.36533334-24.91733333 48.92444445-1.70666667 95.91466667-27.07911111 121.96977778-72.24888889z m-168.16355556-97.16622222c8.98844445-15.58755555 25.25866667-24.23466667 42.09777778-24.23466666 8.192 0 16.61155555 2.16177778 24.23466666 6.48533333 23.21066667 13.42577778 31.17511111 43.12177778 17.74933334 66.33244444s-43.23555555 31.06133333-66.33244444 17.74933333c-23.09688889-13.42577778-31.17511111-43.12177778-17.74933334-66.33244444z m679.36711111 182.38577778c-26.16888889-2.95822222-50.51733333 16.49777778-53.36177777 43.12177778-10.92266667 102.74133333-74.41066667 189.89511111-166.00177778 232.56177778-25.71377778-41.64266667-71.22488889-69.632-123.67644445-69.632-80.32711111 0-145.63555555 65.30844445-145.63555555 145.63555555s65.30844445 145.63555555 145.63555555 145.63555555c73.38666667 0 133.68888889-54.84088889 143.58755556-125.61066666 133.12-52.90666667 227.10044445-173.73866667 242.57422222-318.35022222 2.84444445-26.624-16.49777778-50.51733333-43.12177778-53.36177778zM511.88622222 851.28533333c-26.73777778 0-48.58311111-21.73155555-48.58311111-48.58311111s21.73155555-48.58311111 48.58311111-48.58311111c26.51022222 0 47.90044445 21.27644445 48.35555556 47.67288889 0.11377778 0.34133333 0 0.68266667 0.11377777 0.91022222v0.11377778c-0.11377778 26.85155555-21.73155555 48.46933333-48.46933333 48.46933333z" p-id="2819"></path></svg>